%TF.GenerationSoftware,KiCad,Pcbnew,10.0.0*%
%TF.CreationDate,2026-04-24T12:00:35-06:00*%
%TF.ProjectId,pi-zero-interconnect,70692d7a-6572-46f2-9d69-6e746572636f,rev?*%
%TF.SameCoordinates,Original*%
%TF.FileFunction,Copper,L1,Top*%
%TF.FilePolarity,Positive*%
%FSLAX45Y45*%
G04 Gerber Fmt 4.5, Leading zero omitted, Abs format (unit mm)*
G04 Created by KiCad (PCBNEW 10.0.0) date 2026-04-24 12:00:35*
%MOMM*%
%LPD*%
G01*
G04 APERTURE LIST*
G04 Aperture macros list*
%AMRoundRect*
0 Rectangle with rounded corners*
0 $1 Rounding radius*
0 $2 $3 $4 $5 $6 $7 $8 $9 X,Y pos of 4 corners*
0 Add a 4 corners polygon primitive as box body*
4,1,4,$2,$3,$4,$5,$6,$7,$8,$9,$2,$3,0*
0 Add four circle primitives for the rounded corners*
1,1,$1+$1,$2,$3*
1,1,$1+$1,$4,$5*
1,1,$1+$1,$6,$7*
1,1,$1+$1,$8,$9*
0 Add four rect primitives between the rounded corners*
20,1,$1+$1,$2,$3,$4,$5,0*
20,1,$1+$1,$4,$5,$6,$7,0*
20,1,$1+$1,$6,$7,$8,$9,0*
20,1,$1+$1,$8,$9,$2,$3,0*%
G04 Aperture macros list end*
%TA.AperFunction,ComponentPad*%
%ADD10C,3.100000*%
%TD*%
%TA.AperFunction,ConnectorPad*%
%ADD11C,4.700000*%
%TD*%
%TA.AperFunction,SMDPad,CuDef*%
%ADD12C,1.000000*%
%TD*%
%TA.AperFunction,ComponentPad*%
%ADD13R,1.700000X1.700000*%
%TD*%
%TA.AperFunction,ComponentPad*%
%ADD14C,1.700000*%
%TD*%
%TA.AperFunction,ComponentPad*%
%ADD15RoundRect,0.250001X-0.499999X-0.499999X0.499999X-0.499999X0.499999X0.499999X-0.499999X0.499999X0*%
%TD*%
%TA.AperFunction,ComponentPad*%
%ADD16C,1.500000*%
%TD*%
%TA.AperFunction,Conductor*%
%ADD17C,0.254000*%
%TD*%
%TA.AperFunction,Conductor*%
%ADD18C,1.000000*%
%TD*%
G04 APERTURE END LIST*
D10*
%TO.P,H2,1*%
%TO.N,N/C*%
X12141200Y-10307320D03*
D11*
X12141200Y-10307320D03*
%TD*%
D10*
%TO.P,H1,1*%
%TO.N,N/C*%
X6339840Y-10312400D03*
D11*
X6339840Y-10312400D03*
%TD*%
D12*
%TO.P,TP1,1,1_1*%
%TO.N,Net-(J1-3V3-Pad1)*%
X9616440Y-10744200D03*
%TD*%
D13*
%TO.P,J1,1,3V3_1*%
%TO.N,Net-(J1-3V3-Pad1)*%
X11647940Y-10460220D03*
D14*
%TO.P,J1,2,5V_2*%
%TO.N,+5V*%
X11647940Y-10206220D03*
%TO.P,J1,3,SDA/GPIO2_3*%
%TO.N,unconnected-(J1-SDA{slash}GPIO2-Pad3)*%
X11393940Y-10460220D03*
%TO.P,J1,4,5V_4*%
%TO.N,+5V*%
X11393940Y-10206220D03*
%TO.P,J1,5,SCL/GPIO3_5*%
%TO.N,/PI_ZERO_RST*%
X11139940Y-10460220D03*
%TO.P,J1,6,GND_6*%
%TO.N,GND*%
X11139940Y-10206220D03*
%TO.P,J1,7,GCLK0/GPIO4_7*%
%TO.N,unconnected-(J1-GCLK0{slash}GPIO4-Pad7)*%
X10885940Y-10460220D03*
%TO.P,J1,8,GPIO14/TXD_8*%
%TO.N,unconnected-(J1-GPIO14{slash}TXD-Pad8)*%
X10885940Y-10206220D03*
%TO.P,J1,9,GND_9*%
%TO.N,GND*%
X10631940Y-10460220D03*
%TO.P,J1,10,GPIO15/RXD_10*%
%TO.N,unconnected-(J1-GPIO15{slash}RXD-Pad10)*%
X10631940Y-10206220D03*
%TO.P,J1,11,GPIO17_11*%
%TO.N,unconnected-(J1-GPIO17-Pad11)*%
X10377940Y-10460220D03*
%TO.P,J1,12,GPIO18/PWM0_12*%
%TO.N,unconnected-(J1-GPIO18{slash}PWM0-Pad12)*%
X10377940Y-10206220D03*
%TO.P,J1,13,GPIO27_13*%
%TO.N,unconnected-(J1-GPIO27-Pad13)*%
X10123940Y-10460220D03*
%TO.P,J1,14,GND_14*%
%TO.N,GND*%
X10123940Y-10206220D03*
%TO.P,J1,15,GPIO22_15*%
%TO.N,unconnected-(J1-GPIO22-Pad15)*%
X9869940Y-10460220D03*
%TO.P,J1,16,GPIO23_16*%
%TO.N,unconnected-(J1-GPIO23-Pad16)*%
X9869940Y-10206220D03*
%TO.P,J1,17,3V3_17*%
%TO.N,Net-(J1-3V3-Pad1)*%
X9615940Y-10460220D03*
%TO.P,J1,18,GPIO24_18*%
%TO.N,/PI_FIVE_RST_EN*%
X9615940Y-10206220D03*
%TO.P,J1,19,PICO0/GPIO10_19*%
%TO.N,unconnected-(J1-PICO0{slash}GPIO10-Pad19)*%
X9361940Y-10460220D03*
%TO.P,J1,20,GND_20*%
%TO.N,GND*%
X9361940Y-10206220D03*
%TO.P,J1,21,POCI0/GPIO9_21*%
%TO.N,unconnected-(J1-POCI0{slash}GPIO9-Pad21)*%
X9107940Y-10460220D03*
%TO.P,J1,22,GPIO25_22*%
%TO.N,unconnected-(J1-GPIO25-Pad22)*%
X9107940Y-10206220D03*
%TO.P,J1,23,SCLK0/GPIO11_23*%
%TO.N,unconnected-(J1-SCLK0{slash}GPIO11-Pad23)*%
X8853940Y-10460220D03*
%TO.P,J1,24,~{CE0}/GPIO8_24*%
%TO.N,unconnected-(J1-~{CE0}{slash}GPIO8-Pad24)*%
X8853940Y-10206220D03*
%TO.P,J1,25,GND_25*%
%TO.N,GND*%
X8599940Y-10460220D03*
%TO.P,J1,26,~{CE1}/GPIO7_26*%
%TO.N,unconnected-(J1-~{CE1}{slash}GPIO7-Pad26)*%
X8599940Y-10206220D03*
%TO.P,J1,27,ID_SD/GPIO0_27*%
%TO.N,unconnected-(J1-ID_SD{slash}GPIO0-Pad27)*%
X8345940Y-10460220D03*
%TO.P,J1,28,ID_SC/GPIO1_28*%
%TO.N,unconnected-(J1-ID_SC{slash}GPIO1-Pad28)*%
X8345940Y-10206220D03*
%TO.P,J1,29,GCLK1/GPIO5_29*%
%TO.N,unconnected-(J1-GCLK1{slash}GPIO5-Pad29)*%
X8091940Y-10460220D03*
%TO.P,J1,30,GND_30*%
%TO.N,GND*%
X8091940Y-10206220D03*
%TO.P,J1,31,GCLK2/GPIO6_31*%
%TO.N,unconnected-(J1-GCLK2{slash}GPIO6-Pad31)*%
X7837940Y-10460220D03*
%TO.P,J1,32,PWM0/GPIO12_32*%
%TO.N,unconnected-(J1-PWM0{slash}GPIO12-Pad32)*%
X7837940Y-10206220D03*
%TO.P,J1,33,PWM1/GPIO13_33*%
%TO.N,unconnected-(J1-PWM1{slash}GPIO13-Pad33)*%
X7583940Y-10460220D03*
%TO.P,J1,34,GND_34*%
%TO.N,GND*%
X7583940Y-10206220D03*
%TO.P,J1,35,GPIO19/POCI1_35*%
%TO.N,unconnected-(J1-GPIO19{slash}POCI1-Pad35)*%
X7329940Y-10460220D03*
%TO.P,J1,36,GPIO16_36*%
%TO.N,unconnected-(J1-GPIO16-Pad36)*%
X7329940Y-10206220D03*
%TO.P,J1,37,GPIO26_37*%
%TO.N,unconnected-(J1-GPIO26-Pad37)*%
X7075940Y-10460220D03*
%TO.P,J1,38,GPIO20/PICO1_38*%
%TO.N,unconnected-(J1-GPIO20{slash}PICO1-Pad38)*%
X7075940Y-10206220D03*
%TO.P,J1,39,GND_39*%
%TO.N,GND*%
X6821940Y-10460220D03*
%TO.P,J1,40,GPIO21/SCLK1_40*%
%TO.N,unconnected-(J1-GPIO21{slash}SCLK1-Pad40)*%
X6821940Y-10206220D03*
%TD*%
D15*
%TO.P,J2,1,Pin_1_1*%
%TO.N,GND*%
X13085600Y-10952280D03*
D16*
%TO.P,J2,2,Pin_2_2*%
%TO.N,+5V*%
X13385600Y-10952280D03*
%TO.P,J2,3,Pin_3_3*%
%TO.N,GND*%
X13685600Y-10952280D03*
%TO.P,J2,4,Pin_4_4*%
%TO.N,+5V*%
X13985600Y-10952280D03*
%TO.P,J2,5,Pin_5_5*%
%TO.N,GND*%
X14285600Y-10952280D03*
%TO.P,J2,6,Pin_6_6*%
%TO.N,/PI_FIVE_RST_EN*%
X13085600Y-10652280D03*
%TO.P,J2,7,Pin_7_7*%
%TO.N,GND*%
X13385600Y-10652280D03*
%TO.P,J2,8,Pin_8_8*%
%TO.N,/PI_ZERO_RST*%
X13685600Y-10652280D03*
%TO.P,J2,9,Pin_9_9*%
%TO.N,GND*%
X13985600Y-10652280D03*
%TO.P,J2,10,Pin_10_10*%
X14285600Y-10652280D03*
%TD*%
%TO.N,Net-(J1-3V3-Pad1)*%
D17*
X9615940Y-10743700D02*
X9616440Y-10744200D01*
X9615940Y-10460220D02*
X9748520Y-10327640D01*
X9615940Y-10460220D02*
X9615940Y-10743700D01*
X9748520Y-10327640D02*
X11515360Y-10327640D01*
X11515360Y-10327640D02*
X11647940Y-10460220D01*
%TO.N,+5V*%
D18*
X13240600Y-10807280D02*
X13385600Y-10952280D01*
X13840600Y-10602219D02*
X13840600Y-10807280D01*
X13840600Y-10807280D02*
X13985600Y-10952280D01*
X12862560Y-10358120D02*
X13006501Y-10358120D01*
X12557760Y-10662920D02*
X12862560Y-10358120D01*
X13240600Y-10366160D02*
X13240600Y-10807280D01*
X11802940Y-10264700D02*
X11802940Y-10492300D01*
X13596501Y-10358120D02*
X13840600Y-10602219D01*
X13006501Y-10358120D02*
X13248640Y-10358120D01*
X13248640Y-10358120D02*
X13240600Y-10366160D01*
X13006501Y-10358120D02*
X13596501Y-10358120D01*
X11802940Y-10492300D02*
X11973560Y-10662920D01*
X11973560Y-10662920D02*
X12557760Y-10662920D01*
X11744460Y-10206220D02*
X11802940Y-10264700D01*
X11393940Y-10206220D02*
X11744460Y-10206220D01*
%TD*%
%TA.AperFunction,Conductor*%
%TO.N,GND*%
G36*
X12019403Y-10028627D02*
G01*
X12023978Y-10033907D01*
X12024973Y-10040823D01*
X12022070Y-10047179D01*
X12018079Y-10050230D01*
X12003099Y-10057444D01*
X11975990Y-10074478D01*
X11950959Y-10094440D01*
X11928320Y-10117079D01*
X11908358Y-10142110D01*
X11891324Y-10169219D01*
X11885134Y-10182074D01*
X11880451Y-10187260D01*
X11873709Y-10189091D01*
X11867046Y-10186986D01*
X11865194Y-10185462D01*
X11822608Y-10142876D01*
X11822606Y-10142874D01*
X11808238Y-10128506D01*
X11808238Y-10128506D01*
X11791852Y-10117557D01*
X11791851Y-10117557D01*
X11784207Y-10114391D01*
X11778976Y-10112224D01*
X11773644Y-10110015D01*
X11760246Y-10107350D01*
X11755975Y-10106500D01*
X11754314Y-10106170D01*
X11754314Y-10106170D01*
X11743960Y-10106170D01*
X11737256Y-10104202D01*
X11736003Y-10103271D01*
X11718722Y-10090715D01*
X11699781Y-10081064D01*
X11699781Y-10081064D01*
X11699781Y-10081064D01*
X11679564Y-10074495D01*
X11679564Y-10074495D01*
X11679564Y-10074495D01*
X11663436Y-10071941D01*
X11658569Y-10071170D01*
X11637311Y-10071170D01*
X11632444Y-10071941D01*
X11616316Y-10074495D01*
X11596098Y-10081064D01*
X11577158Y-10090715D01*
X11559567Y-10103496D01*
X11559503Y-10103409D01*
X11553598Y-10106056D01*
X11551920Y-10106170D01*
X11489960Y-10106170D01*
X11483256Y-10104202D01*
X11482003Y-10103271D01*
X11464722Y-10090715D01*
X11445781Y-10081064D01*
X11445781Y-10081064D01*
X11445781Y-10081064D01*
X11425564Y-10074495D01*
X11425564Y-10074495D01*
X11425564Y-10074495D01*
X11409436Y-10071941D01*
X11404569Y-10071170D01*
X11383311Y-10071170D01*
X11378444Y-10071941D01*
X11362316Y-10074495D01*
X11342098Y-10081064D01*
X11323158Y-10090715D01*
X11305961Y-10103209D01*
X11290929Y-10118241D01*
X11278435Y-10135438D01*
X11268784Y-10154378D01*
X11265175Y-10165487D01*
X11261231Y-10171254D01*
X11254795Y-10173974D01*
X11250487Y-10173712D01*
X11244577Y-10172293D01*
X11184063Y-10232807D01*
X11181525Y-10234193D01*
X11186532Y-10225519D01*
X11189940Y-10212803D01*
X11189940Y-10199637D01*
X11186532Y-10186921D01*
X11179950Y-10175519D01*
X11170641Y-10166210D01*
X11159239Y-10159628D01*
X11146523Y-10156220D01*
X11133357Y-10156220D01*
X11120641Y-10159628D01*
X11109239Y-10166210D01*
X11099930Y-10175519D01*
X11093348Y-10186921D01*
X11089940Y-10199637D01*
X11089940Y-10212803D01*
X11093348Y-10225519D01*
X11098581Y-10234584D01*
X11095817Y-10232807D01*
X11035303Y-10172293D01*
X11029393Y-10173712D01*
X11022414Y-10173363D01*
X11016733Y-10169297D01*
X11014705Y-10165487D01*
X11011096Y-10154379D01*
X11001445Y-10135438D01*
X11001445Y-10135438D01*
X11001445Y-10135438D01*
X10988951Y-10118241D01*
X10973919Y-10103209D01*
X10971680Y-10101583D01*
X11106013Y-10101583D01*
X11106013Y-10101583D01*
X11139940Y-10135509D01*
X11139940Y-10135509D01*
X11173867Y-10101583D01*
X11173867Y-10101583D01*
X11165699Y-10098929D01*
X11148597Y-10096220D01*
X11131283Y-10096220D01*
X11114181Y-10098929D01*
X11106013Y-10101583D01*
X10971680Y-10101583D01*
X10956722Y-10090715D01*
X10937781Y-10081064D01*
X10937781Y-10081064D01*
X10937781Y-10081064D01*
X10917564Y-10074495D01*
X10917564Y-10074495D01*
X10917564Y-10074495D01*
X10901436Y-10071941D01*
X10896569Y-10071170D01*
X10875311Y-10071170D01*
X10870444Y-10071941D01*
X10854316Y-10074495D01*
X10834099Y-10081064D01*
X10815158Y-10090715D01*
X10797961Y-10103209D01*
X10782929Y-10118241D01*
X10770435Y-10135438D01*
X10769988Y-10136315D01*
X10765191Y-10141394D01*
X10758409Y-10143074D01*
X10751795Y-10140820D01*
X10747892Y-10136315D01*
X10747445Y-10135438D01*
X10734951Y-10118241D01*
X10719919Y-10103209D01*
X10702722Y-10090715D01*
X10683781Y-10081064D01*
X10683781Y-10081064D01*
X10683781Y-10081064D01*
X10663564Y-10074495D01*
X10663564Y-10074495D01*
X10663564Y-10074495D01*
X10647436Y-10071941D01*
X10642569Y-10071170D01*
X10621311Y-10071170D01*
X10616444Y-10071941D01*
X10600316Y-10074495D01*
X10580099Y-10081064D01*
X10561158Y-10090715D01*
X10543961Y-10103209D01*
X10528929Y-10118241D01*
X10516435Y-10135438D01*
X10515988Y-10136315D01*
X10511191Y-10141394D01*
X10504409Y-10143074D01*
X10497795Y-10140820D01*
X10493892Y-10136315D01*
X10493445Y-10135438D01*
X10480951Y-10118241D01*
X10465919Y-10103209D01*
X10448722Y-10090715D01*
X10429781Y-10081064D01*
X10429781Y-10081064D01*
X10429781Y-10081064D01*
X10409564Y-10074495D01*
X10409564Y-10074495D01*
X10409564Y-10074495D01*
X10393436Y-10071941D01*
X10388569Y-10071170D01*
X10367311Y-10071170D01*
X10362444Y-10071941D01*
X10346316Y-10074495D01*
X10326099Y-10081064D01*
X10307158Y-10090715D01*
X10289961Y-10103209D01*
X10274929Y-10118241D01*
X10262435Y-10135438D01*
X10252784Y-10154378D01*
X10249175Y-10165487D01*
X10245231Y-10171254D01*
X10238795Y-10173974D01*
X10234487Y-10173712D01*
X10228577Y-10172293D01*
X10168063Y-10232807D01*
X10165525Y-10234193D01*
X10170533Y-10225519D01*
X10173940Y-10212803D01*
X10173940Y-10199637D01*
X10170533Y-10186921D01*
X10163950Y-10175519D01*
X10154641Y-10166210D01*
X10143239Y-10159628D01*
X10130523Y-10156220D01*
X10117357Y-10156220D01*
X10104641Y-10159628D01*
X10093239Y-10166210D01*
X10083930Y-10175519D01*
X10077348Y-10186921D01*
X10073940Y-10199637D01*
X10073940Y-10212803D01*
X10077348Y-10225519D01*
X10082581Y-10234584D01*
X10079817Y-10232807D01*
X10019303Y-10172293D01*
X10013393Y-10173712D01*
X10006414Y-10173363D01*
X10000733Y-10169297D01*
X9998705Y-10165487D01*
X9995096Y-10154379D01*
X9985445Y-10135438D01*
X9985445Y-10135438D01*
X9985445Y-10135438D01*
X9972951Y-10118241D01*
X9957919Y-10103209D01*
X9955680Y-10101583D01*
X10090013Y-10101583D01*
X10090013Y-10101583D01*
X10123940Y-10135509D01*
X10123940Y-10135509D01*
X10157867Y-10101583D01*
X10157867Y-10101583D01*
X10149699Y-10098929D01*
X10132597Y-10096220D01*
X10115283Y-10096220D01*
X10098181Y-10098929D01*
X10090013Y-10101583D01*
X9955680Y-10101583D01*
X9940722Y-10090715D01*
X9921781Y-10081064D01*
X9921781Y-10081064D01*
X9921781Y-10081064D01*
X9901564Y-10074495D01*
X9901564Y-10074495D01*
X9901564Y-10074495D01*
X9885436Y-10071941D01*
X9880569Y-10071170D01*
X9859311Y-10071170D01*
X9854444Y-10071941D01*
X9838316Y-10074495D01*
X9818099Y-10081064D01*
X9799158Y-10090715D01*
X9781961Y-10103209D01*
X9766929Y-10118241D01*
X9754435Y-10135438D01*
X9753988Y-10136315D01*
X9749191Y-10141394D01*
X9742409Y-10143074D01*
X9735795Y-10140820D01*
X9731892Y-10136315D01*
X9731445Y-10135438D01*
X9718951Y-10118241D01*
X9703919Y-10103209D01*
X9686722Y-10090715D01*
X9667781Y-10081064D01*
X9667781Y-10081064D01*
X9667781Y-10081064D01*
X9647564Y-10074495D01*
X9647564Y-10074495D01*
X9647564Y-10074495D01*
X9631436Y-10071941D01*
X9626569Y-10071170D01*
X9605311Y-10071170D01*
X9600444Y-10071941D01*
X9584316Y-10074495D01*
X9564099Y-10081064D01*
X9545158Y-10090715D01*
X9527961Y-10103209D01*
X9512929Y-10118241D01*
X9500435Y-10135438D01*
X9490784Y-10154378D01*
X9487175Y-10165487D01*
X9483231Y-10171254D01*
X9476795Y-10173974D01*
X9472487Y-10173712D01*
X9466577Y-10172293D01*
X9432651Y-10206220D01*
X9432651Y-10206220D01*
X9466577Y-10240147D01*
X9472487Y-10238728D01*
X9479466Y-10239077D01*
X9485147Y-10243143D01*
X9487175Y-10246953D01*
X9490784Y-10258062D01*
X9500435Y-10277002D01*
X9512929Y-10294199D01*
X9527961Y-10309231D01*
X9545158Y-10321725D01*
X9546035Y-10322172D01*
X9551114Y-10326969D01*
X9552794Y-10333751D01*
X9550540Y-10340365D01*
X9546035Y-10344268D01*
X9545158Y-10344715D01*
X9527961Y-10357209D01*
X9512929Y-10372241D01*
X9500435Y-10389438D01*
X9499988Y-10390315D01*
X9495191Y-10395394D01*
X9488409Y-10397074D01*
X9481795Y-10394820D01*
X9477892Y-10390315D01*
X9477445Y-10389438D01*
X9464951Y-10372241D01*
X9449919Y-10357209D01*
X9432722Y-10344715D01*
X9413782Y-10335064D01*
X9406471Y-10332689D01*
X9402673Y-10331455D01*
X9396906Y-10327511D01*
X9394186Y-10321075D01*
X9394448Y-10316767D01*
X9395867Y-10310857D01*
X9361940Y-10276931D01*
X9361940Y-10276931D01*
X9328013Y-10310857D01*
X9329432Y-10316767D01*
X9329083Y-10323746D01*
X9325017Y-10329427D01*
X9321207Y-10331455D01*
X9310098Y-10335064D01*
X9291158Y-10344715D01*
X9273961Y-10357209D01*
X9258929Y-10372241D01*
X9246435Y-10389438D01*
X9245988Y-10390315D01*
X9241191Y-10395394D01*
X9234409Y-10397074D01*
X9227795Y-10394820D01*
X9223892Y-10390315D01*
X9223445Y-10389438D01*
X9210951Y-10372241D01*
X9195919Y-10357209D01*
X9178722Y-10344715D01*
X9178652Y-10344679D01*
X9177845Y-10344269D01*
X9172766Y-10339471D01*
X9171086Y-10332689D01*
X9173340Y-10326076D01*
X9177845Y-10322172D01*
X9178722Y-10321725D01*
X9180919Y-10320129D01*
X9195919Y-10309231D01*
X9195919Y-10309231D01*
X9195919Y-10309230D01*
X9210950Y-10294199D01*
X9210951Y-10294199D01*
X9210951Y-10294199D01*
X9223445Y-10277002D01*
X9223445Y-10277002D01*
X9223445Y-10277002D01*
X9233096Y-10258061D01*
X9236705Y-10246953D01*
X9240649Y-10241186D01*
X9247084Y-10238466D01*
X9251393Y-10238728D01*
X9257303Y-10240147D01*
X9291229Y-10206220D01*
X9284647Y-10199637D01*
X9311940Y-10199637D01*
X9311940Y-10212803D01*
X9315348Y-10225519D01*
X9321930Y-10236921D01*
X9331239Y-10246230D01*
X9342641Y-10252813D01*
X9355357Y-10256220D01*
X9368523Y-10256220D01*
X9381239Y-10252813D01*
X9392641Y-10246230D01*
X9401950Y-10236921D01*
X9408533Y-10225519D01*
X9411940Y-10212803D01*
X9411940Y-10199637D01*
X9408533Y-10186921D01*
X9401950Y-10175519D01*
X9392641Y-10166210D01*
X9381239Y-10159628D01*
X9368523Y-10156220D01*
X9355357Y-10156220D01*
X9342641Y-10159628D01*
X9331239Y-10166210D01*
X9321930Y-10175519D01*
X9315348Y-10186921D01*
X9311940Y-10199637D01*
X9284647Y-10199637D01*
X9257303Y-10172293D01*
X9251393Y-10173712D01*
X9244414Y-10173363D01*
X9238733Y-10169297D01*
X9236705Y-10165487D01*
X9233096Y-10154379D01*
X9223445Y-10135438D01*
X9223445Y-10135438D01*
X9223445Y-10135438D01*
X9210951Y-10118241D01*
X9195919Y-10103209D01*
X9193680Y-10101583D01*
X9328013Y-10101583D01*
X9328013Y-10101583D01*
X9361940Y-10135509D01*
X9361940Y-10135509D01*
X9395867Y-10101583D01*
X9395867Y-10101583D01*
X9387699Y-10098929D01*
X9370597Y-10096220D01*
X9353283Y-10096220D01*
X9336181Y-10098929D01*
X9328013Y-10101583D01*
X9193680Y-10101583D01*
X9178722Y-10090715D01*
X9159781Y-10081064D01*
X9159781Y-10081064D01*
X9159781Y-10081064D01*
X9139564Y-10074495D01*
X9139564Y-10074495D01*
X9139564Y-10074495D01*
X9123436Y-10071941D01*
X9118569Y-10071170D01*
X9097311Y-10071170D01*
X9092444Y-10071941D01*
X9076316Y-10074495D01*
X9056099Y-10081064D01*
X9037158Y-10090715D01*
X9019961Y-10103209D01*
X9004929Y-10118241D01*
X8992435Y-10135438D01*
X8991988Y-10136315D01*
X8987191Y-10141394D01*
X8980409Y-10143074D01*
X8973795Y-10140820D01*
X8969892Y-10136315D01*
X8969445Y-10135438D01*
X8956951Y-10118241D01*
X8941919Y-10103209D01*
X8924722Y-10090715D01*
X8905781Y-10081064D01*
X8905781Y-10081064D01*
X8905781Y-10081064D01*
X8885564Y-10074495D01*
X8885564Y-10074495D01*
X8885564Y-10074495D01*
X8869436Y-10071941D01*
X8864569Y-10071170D01*
X8843311Y-10071170D01*
X8838444Y-10071941D01*
X8822316Y-10074495D01*
X8802099Y-10081064D01*
X8783158Y-10090715D01*
X8765961Y-10103209D01*
X8750929Y-10118241D01*
X8738435Y-10135438D01*
X8737988Y-10136315D01*
X8733191Y-10141394D01*
X8726409Y-10143074D01*
X8719795Y-10140820D01*
X8715892Y-10136315D01*
X8715445Y-10135438D01*
X8702951Y-10118241D01*
X8687919Y-10103209D01*
X8670722Y-10090715D01*
X8651781Y-10081064D01*
X8651781Y-10081064D01*
X8651781Y-10081064D01*
X8631564Y-10074495D01*
X8631564Y-10074495D01*
X8631564Y-10074495D01*
X8615436Y-10071941D01*
X8610569Y-10071170D01*
X8589311Y-10071170D01*
X8584444Y-10071941D01*
X8568316Y-10074495D01*
X8548099Y-10081064D01*
X8529158Y-10090715D01*
X8511961Y-10103209D01*
X8496929Y-10118241D01*
X8484435Y-10135438D01*
X8483988Y-10136315D01*
X8479191Y-10141394D01*
X8472409Y-10143074D01*
X8465795Y-10140820D01*
X8461892Y-10136315D01*
X8461445Y-10135438D01*
X8448951Y-10118241D01*
X8433919Y-10103209D01*
X8416722Y-10090715D01*
X8397781Y-10081064D01*
X8397781Y-10081064D01*
X8397781Y-10081064D01*
X8377564Y-10074495D01*
X8377564Y-10074495D01*
X8377564Y-10074495D01*
X8361436Y-10071941D01*
X8356569Y-10071170D01*
X8335311Y-10071170D01*
X8330444Y-10071941D01*
X8314316Y-10074495D01*
X8294098Y-10081064D01*
X8275158Y-10090715D01*
X8257961Y-10103209D01*
X8242929Y-10118241D01*
X8230435Y-10135438D01*
X8220784Y-10154378D01*
X8217175Y-10165487D01*
X8213231Y-10171254D01*
X8206795Y-10173974D01*
X8202487Y-10173712D01*
X8196577Y-10172293D01*
X8162651Y-10206220D01*
X8162651Y-10206220D01*
X8196577Y-10240147D01*
X8202487Y-10238728D01*
X8209465Y-10239077D01*
X8215147Y-10243143D01*
X8217175Y-10246953D01*
X8220784Y-10258062D01*
X8230435Y-10277002D01*
X8242929Y-10294199D01*
X8257961Y-10309231D01*
X8275158Y-10321725D01*
X8276035Y-10322172D01*
X8281114Y-10326969D01*
X8282794Y-10333751D01*
X8280540Y-10340365D01*
X8276035Y-10344268D01*
X8275158Y-10344715D01*
X8257961Y-10357209D01*
X8242929Y-10372241D01*
X8230435Y-10389438D01*
X8229988Y-10390315D01*
X8225191Y-10395394D01*
X8218409Y-10397074D01*
X8211795Y-10394820D01*
X8207892Y-10390315D01*
X8207445Y-10389438D01*
X8194951Y-10372241D01*
X8179919Y-10357209D01*
X8162722Y-10344715D01*
X8143782Y-10335064D01*
X8136471Y-10332689D01*
X8132673Y-10331455D01*
X8126906Y-10327511D01*
X8124186Y-10321075D01*
X8124448Y-10316767D01*
X8125866Y-10310857D01*
X8091940Y-10276931D01*
X8091940Y-10276931D01*
X8058013Y-10310857D01*
X8059432Y-10316767D01*
X8059083Y-10323746D01*
X8055017Y-10329427D01*
X8051207Y-10331455D01*
X8040098Y-10335064D01*
X8021158Y-10344715D01*
X8003961Y-10357209D01*
X7988929Y-10372241D01*
X7976435Y-10389438D01*
X7975988Y-10390315D01*
X7971191Y-10395394D01*
X7964409Y-10397074D01*
X7957795Y-10394820D01*
X7953892Y-10390315D01*
X7953445Y-10389438D01*
X7940951Y-10372241D01*
X7925919Y-10357209D01*
X7908722Y-10344715D01*
X7908651Y-10344679D01*
X7907845Y-10344269D01*
X7902766Y-10339471D01*
X7901086Y-10332689D01*
X7903340Y-10326076D01*
X7907845Y-10322172D01*
X7908722Y-10321725D01*
X7910919Y-10320129D01*
X7925919Y-10309231D01*
X7925919Y-10309231D01*
X7925919Y-10309230D01*
X7940950Y-10294199D01*
X7940951Y-10294199D01*
X7940951Y-10294199D01*
X7953445Y-10277002D01*
X7953445Y-10277002D01*
X7953445Y-10277002D01*
X7963096Y-10258061D01*
X7966705Y-10246953D01*
X7970648Y-10241186D01*
X7977084Y-10238466D01*
X7981393Y-10238728D01*
X7987303Y-10240147D01*
X8021229Y-10206220D01*
X8014647Y-10199637D01*
X8041940Y-10199637D01*
X8041940Y-10212803D01*
X8045347Y-10225519D01*
X8051930Y-10236921D01*
X8061239Y-10246230D01*
X8072641Y-10252813D01*
X8085357Y-10256220D01*
X8098523Y-10256220D01*
X8111239Y-10252813D01*
X8122641Y-10246230D01*
X8131950Y-10236921D01*
X8138532Y-10225519D01*
X8141940Y-10212803D01*
X8141940Y-10199637D01*
X8138532Y-10186921D01*
X8131950Y-10175519D01*
X8122641Y-10166210D01*
X8111239Y-10159628D01*
X8098523Y-10156220D01*
X8085357Y-10156220D01*
X8072641Y-10159628D01*
X8061239Y-10166210D01*
X8051930Y-10175519D01*
X8045347Y-10186921D01*
X8041940Y-10199637D01*
X8014647Y-10199637D01*
X7987303Y-10172293D01*
X7981393Y-10173712D01*
X7974414Y-10173363D01*
X7968733Y-10169297D01*
X7966705Y-10165487D01*
X7963096Y-10154379D01*
X7953445Y-10135438D01*
X7953445Y-10135438D01*
X7953445Y-10135438D01*
X7940951Y-10118241D01*
X7925919Y-10103209D01*
X7923680Y-10101583D01*
X8058013Y-10101583D01*
X8058013Y-10101583D01*
X8091940Y-10135509D01*
X8091940Y-10135509D01*
X8125867Y-10101583D01*
X8125867Y-10101583D01*
X8117699Y-10098929D01*
X8100597Y-10096220D01*
X8083283Y-10096220D01*
X8066181Y-10098929D01*
X8058013Y-10101583D01*
X7923680Y-10101583D01*
X7908722Y-10090715D01*
X7889781Y-10081064D01*
X7889781Y-10081064D01*
X7889781Y-10081064D01*
X7869564Y-10074495D01*
X7869564Y-10074495D01*
X7869564Y-10074495D01*
X7853436Y-10071941D01*
X7848569Y-10071170D01*
X7827311Y-10071170D01*
X7822444Y-10071941D01*
X7806316Y-10074495D01*
X7786098Y-10081064D01*
X7767158Y-10090715D01*
X7749961Y-10103209D01*
X7734929Y-10118241D01*
X7722435Y-10135438D01*
X7712784Y-10154378D01*
X7709175Y-10165487D01*
X7705231Y-10171254D01*
X7698795Y-10173974D01*
X7694487Y-10173712D01*
X7688577Y-10172293D01*
X7654651Y-10206220D01*
X7654651Y-10206220D01*
X7688577Y-10240147D01*
X7694487Y-10238728D01*
X7701465Y-10239077D01*
X7707147Y-10243143D01*
X7709175Y-10246953D01*
X7712784Y-10258062D01*
X7722435Y-10277002D01*
X7734929Y-10294199D01*
X7749961Y-10309231D01*
X7767158Y-10321725D01*
X7768035Y-10322172D01*
X7773114Y-10326969D01*
X7774794Y-10333751D01*
X7772540Y-10340365D01*
X7768035Y-10344268D01*
X7767158Y-10344715D01*
X7749961Y-10357209D01*
X7734929Y-10372241D01*
X7722435Y-10389438D01*
X7721988Y-10390315D01*
X7717191Y-10395394D01*
X7710409Y-10397074D01*
X7703795Y-10394820D01*
X7699892Y-10390315D01*
X7699445Y-10389438D01*
X7686951Y-10372241D01*
X7671919Y-10357209D01*
X7654722Y-10344715D01*
X7635782Y-10335064D01*
X7628471Y-10332689D01*
X7624673Y-10331455D01*
X7618906Y-10327511D01*
X7616186Y-10321075D01*
X7616448Y-10316767D01*
X7617866Y-10310857D01*
X7583940Y-10276931D01*
X7583940Y-10276931D01*
X7550013Y-10310857D01*
X7551432Y-10316767D01*
X7551083Y-10323746D01*
X7547017Y-10329427D01*
X7543207Y-10331455D01*
X7532098Y-10335064D01*
X7513158Y-10344715D01*
X7495961Y-10357209D01*
X7480929Y-10372241D01*
X7468435Y-10389438D01*
X7467988Y-10390315D01*
X7463191Y-10395394D01*
X7456409Y-10397074D01*
X7449795Y-10394820D01*
X7445892Y-10390315D01*
X7445445Y-10389438D01*
X7432951Y-10372241D01*
X7417919Y-10357209D01*
X7400722Y-10344715D01*
X7400651Y-10344679D01*
X7399845Y-10344269D01*
X7394766Y-10339471D01*
X7393086Y-10332689D01*
X7395340Y-10326076D01*
X7399845Y-10322172D01*
X7400722Y-10321725D01*
X7402919Y-10320129D01*
X7417919Y-10309231D01*
X7417919Y-10309231D01*
X7417919Y-10309230D01*
X7432950Y-10294199D01*
X7432951Y-10294199D01*
X7432951Y-10294199D01*
X7445445Y-10277002D01*
X7445445Y-10277002D01*
X7445445Y-10277002D01*
X7455096Y-10258061D01*
X7458705Y-10246953D01*
X7462648Y-10241186D01*
X7469084Y-10238466D01*
X7473393Y-10238728D01*
X7479303Y-10240147D01*
X7513229Y-10206220D01*
X7506647Y-10199637D01*
X7533940Y-10199637D01*
X7533940Y-10212803D01*
X7537347Y-10225519D01*
X7543930Y-10236921D01*
X7553239Y-10246230D01*
X7564641Y-10252813D01*
X7577357Y-10256220D01*
X7590523Y-10256220D01*
X7603239Y-10252813D01*
X7614641Y-10246230D01*
X7623950Y-10236921D01*
X7630532Y-10225519D01*
X7633940Y-10212803D01*
X7633940Y-10199637D01*
X7630532Y-10186921D01*
X7623950Y-10175519D01*
X7614641Y-10166210D01*
X7603239Y-10159628D01*
X7590523Y-10156220D01*
X7577357Y-10156220D01*
X7564641Y-10159628D01*
X7553239Y-10166210D01*
X7543930Y-10175519D01*
X7537347Y-10186921D01*
X7533940Y-10199637D01*
X7506647Y-10199637D01*
X7479303Y-10172293D01*
X7473393Y-10173712D01*
X7466414Y-10173363D01*
X7460733Y-10169297D01*
X7458705Y-10165487D01*
X7455096Y-10154379D01*
X7445445Y-10135438D01*
X7445445Y-10135438D01*
X7445445Y-10135438D01*
X7432951Y-10118241D01*
X7417919Y-10103209D01*
X7415680Y-10101583D01*
X7550013Y-10101583D01*
X7550013Y-10101583D01*
X7583940Y-10135509D01*
X7583940Y-10135509D01*
X7617867Y-10101583D01*
X7617867Y-10101583D01*
X7609699Y-10098929D01*
X7592597Y-10096220D01*
X7575283Y-10096220D01*
X7558181Y-10098929D01*
X7550013Y-10101583D01*
X7415680Y-10101583D01*
X7400722Y-10090715D01*
X7381781Y-10081064D01*
X7381781Y-10081064D01*
X7381781Y-10081064D01*
X7361564Y-10074495D01*
X7361564Y-10074495D01*
X7361564Y-10074495D01*
X7345436Y-10071941D01*
X7340569Y-10071170D01*
X7319311Y-10071170D01*
X7314444Y-10071941D01*
X7298316Y-10074495D01*
X7278098Y-10081064D01*
X7259158Y-10090715D01*
X7241961Y-10103209D01*
X7226929Y-10118241D01*
X7214435Y-10135438D01*
X7213988Y-10136315D01*
X7209191Y-10141394D01*
X7202409Y-10143074D01*
X7195795Y-10140820D01*
X7191892Y-10136315D01*
X7191445Y-10135438D01*
X7178951Y-10118241D01*
X7163919Y-10103209D01*
X7146722Y-10090715D01*
X7127781Y-10081064D01*
X7127781Y-10081064D01*
X7127781Y-10081064D01*
X7107564Y-10074495D01*
X7107564Y-10074495D01*
X7107564Y-10074495D01*
X7091436Y-10071941D01*
X7086569Y-10071170D01*
X7065311Y-10071170D01*
X7060444Y-10071941D01*
X7044316Y-10074495D01*
X7024098Y-10081064D01*
X7005158Y-10090715D01*
X6987961Y-10103209D01*
X6972929Y-10118241D01*
X6960435Y-10135438D01*
X6959988Y-10136315D01*
X6955191Y-10141394D01*
X6948409Y-10143074D01*
X6941795Y-10140820D01*
X6937892Y-10136315D01*
X6937445Y-10135438D01*
X6924951Y-10118241D01*
X6909919Y-10103209D01*
X6892722Y-10090715D01*
X6873781Y-10081064D01*
X6873781Y-10081064D01*
X6873781Y-10081064D01*
X6853564Y-10074495D01*
X6853564Y-10074495D01*
X6853564Y-10074495D01*
X6837436Y-10071941D01*
X6832569Y-10071170D01*
X6811311Y-10071170D01*
X6806444Y-10071941D01*
X6790316Y-10074495D01*
X6770098Y-10081064D01*
X6751158Y-10090715D01*
X6733961Y-10103209D01*
X6718929Y-10118241D01*
X6706435Y-10135438D01*
X6696784Y-10154379D01*
X6690215Y-10174596D01*
X6686890Y-10195591D01*
X6686890Y-10216849D01*
X6689948Y-10236156D01*
X6690215Y-10237844D01*
X6694809Y-10251981D01*
X6696784Y-10258061D01*
X6706435Y-10277002D01*
X6718929Y-10294199D01*
X6733961Y-10309231D01*
X6751158Y-10321725D01*
X6751158Y-10321725D01*
X6751158Y-10321725D01*
X6770099Y-10331376D01*
X6781207Y-10334985D01*
X6786974Y-10338929D01*
X6789694Y-10345364D01*
X6789432Y-10349673D01*
X6788013Y-10355583D01*
X6821940Y-10389509D01*
X6821940Y-10389509D01*
X6855866Y-10355583D01*
X6854448Y-10349673D01*
X6854797Y-10342694D01*
X6858863Y-10337013D01*
X6862673Y-10334985D01*
X6873781Y-10331376D01*
X6892722Y-10321725D01*
X6894919Y-10320129D01*
X6909919Y-10309231D01*
X6909919Y-10309231D01*
X6909919Y-10309230D01*
X6924950Y-10294199D01*
X6924951Y-10294199D01*
X6924951Y-10294199D01*
X6937445Y-10277002D01*
X6937445Y-10277002D01*
X6937445Y-10277002D01*
X6937891Y-10276125D01*
X6942689Y-10271046D01*
X6949471Y-10269366D01*
X6956084Y-10271620D01*
X6959989Y-10276126D01*
X6960435Y-10277002D01*
X6972929Y-10294199D01*
X6987961Y-10309231D01*
X7005158Y-10321725D01*
X7006035Y-10322172D01*
X7011114Y-10326969D01*
X7012794Y-10333751D01*
X7010540Y-10340365D01*
X7006035Y-10344268D01*
X7005158Y-10344715D01*
X6987961Y-10357209D01*
X6972929Y-10372241D01*
X6960435Y-10389438D01*
X6950784Y-10408378D01*
X6947175Y-10419487D01*
X6943231Y-10425254D01*
X6936795Y-10427974D01*
X6932487Y-10427712D01*
X6926577Y-10426293D01*
X6892651Y-10460220D01*
X6892651Y-10460220D01*
X6926577Y-10494147D01*
X6932487Y-10492728D01*
X6939465Y-10493077D01*
X6945147Y-10497143D01*
X6947175Y-10500953D01*
X6948817Y-10506007D01*
X6950784Y-10512062D01*
X6960435Y-10531002D01*
X6972929Y-10548199D01*
X6987961Y-10563231D01*
X7005158Y-10575725D01*
X7005158Y-10575725D01*
X7005158Y-10575725D01*
X7024099Y-10585376D01*
X7044316Y-10591945D01*
X7065311Y-10595270D01*
X7065311Y-10595270D01*
X7086569Y-10595270D01*
X7086569Y-10595270D01*
X7107564Y-10591945D01*
X7127781Y-10585376D01*
X7146722Y-10575725D01*
X7153479Y-10570815D01*
X7163919Y-10563231D01*
X7163919Y-10563231D01*
X7163919Y-10563230D01*
X7178950Y-10548199D01*
X7178951Y-10548199D01*
X7178951Y-10548199D01*
X7191445Y-10531002D01*
X7191445Y-10531002D01*
X7191445Y-10531002D01*
X7191891Y-10530125D01*
X7196689Y-10525046D01*
X7203471Y-10523366D01*
X7210084Y-10525620D01*
X7213989Y-10530126D01*
X7214435Y-10531002D01*
X7226929Y-10548199D01*
X7241961Y-10563231D01*
X7259158Y-10575725D01*
X7259158Y-10575725D01*
X7259158Y-10575725D01*
X7278099Y-10585376D01*
X7298316Y-10591945D01*
X7319311Y-10595270D01*
X7319311Y-10595270D01*
X7340569Y-10595270D01*
X7340569Y-10595270D01*
X7361564Y-10591945D01*
X7381781Y-10585376D01*
X7400722Y-10575725D01*
X7407479Y-10570815D01*
X7417919Y-10563231D01*
X7417919Y-10563231D01*
X7417919Y-10563230D01*
X7432950Y-10548199D01*
X7432951Y-10548199D01*
X7432951Y-10548199D01*
X7445445Y-10531002D01*
X7445445Y-10531002D01*
X7445445Y-10531002D01*
X7445891Y-10530125D01*
X7450689Y-10525046D01*
X7457471Y-10523366D01*
X7464084Y-10525620D01*
X7467989Y-10530126D01*
X7468435Y-10531002D01*
X7480929Y-10548199D01*
X7495961Y-10563231D01*
X7513158Y-10575725D01*
X7513158Y-10575725D01*
X7513158Y-10575725D01*
X7532099Y-10585376D01*
X7552316Y-10591945D01*
X7573311Y-10595270D01*
X7573311Y-10595270D01*
X7594569Y-10595270D01*
X7594569Y-10595270D01*
X7615564Y-10591945D01*
X7635781Y-10585376D01*
X7654722Y-10575725D01*
X7661479Y-10570815D01*
X7671919Y-10563231D01*
X7671919Y-10563231D01*
X7671919Y-10563230D01*
X7686950Y-10548199D01*
X7686951Y-10548199D01*
X7686951Y-10548199D01*
X7699445Y-10531002D01*
X7699445Y-10531002D01*
X7699445Y-10531002D01*
X7699891Y-10530125D01*
X7704689Y-10525046D01*
X7711471Y-10523366D01*
X7718084Y-10525620D01*
X7721989Y-10530126D01*
X7722435Y-10531002D01*
X7734929Y-10548199D01*
X7749961Y-10563231D01*
X7767158Y-10575725D01*
X7767158Y-10575725D01*
X7767158Y-10575725D01*
X7786099Y-10585376D01*
X7806316Y-10591945D01*
X7827311Y-10595270D01*
X7827311Y-10595270D01*
X7848569Y-10595270D01*
X7848569Y-10595270D01*
X7869564Y-10591945D01*
X7889781Y-10585376D01*
X7908722Y-10575725D01*
X7915479Y-10570815D01*
X7925919Y-10563231D01*
X7925919Y-10563231D01*
X7925919Y-10563230D01*
X7940950Y-10548199D01*
X7940951Y-10548199D01*
X7940951Y-10548199D01*
X7953445Y-10531002D01*
X7953445Y-10531002D01*
X7953445Y-10531002D01*
X7953891Y-10530125D01*
X7958689Y-10525046D01*
X7965471Y-10523366D01*
X7972084Y-10525620D01*
X7975989Y-10530126D01*
X7976435Y-10531002D01*
X7988929Y-10548199D01*
X8003961Y-10563231D01*
X8021158Y-10575725D01*
X8021158Y-10575725D01*
X8021158Y-10575725D01*
X8040099Y-10585376D01*
X8060316Y-10591945D01*
X8081311Y-10595270D01*
X8081311Y-10595270D01*
X8102569Y-10595270D01*
X8102569Y-10595270D01*
X8123564Y-10591945D01*
X8143781Y-10585376D01*
X8162722Y-10575725D01*
X8169479Y-10570815D01*
X8179919Y-10563231D01*
X8179919Y-10563231D01*
X8179919Y-10563230D01*
X8194950Y-10548199D01*
X8194951Y-10548199D01*
X8194951Y-10548199D01*
X8207445Y-10531002D01*
X8207445Y-10531002D01*
X8207445Y-10531002D01*
X8207891Y-10530125D01*
X8212689Y-10525046D01*
X8219471Y-10523366D01*
X8226084Y-10525620D01*
X8229989Y-10530126D01*
X8230435Y-10531002D01*
X8242929Y-10548199D01*
X8257961Y-10563231D01*
X8275158Y-10575725D01*
X8275158Y-10575725D01*
X8275158Y-10575725D01*
X8294099Y-10585376D01*
X8314316Y-10591945D01*
X8335311Y-10595270D01*
X8335311Y-10595270D01*
X8356569Y-10595270D01*
X8356569Y-10595270D01*
X8377564Y-10591945D01*
X8397781Y-10585376D01*
X8416722Y-10575725D01*
X8423479Y-10570815D01*
X8431680Y-10564857D01*
X8566013Y-10564857D01*
X8574182Y-10567511D01*
X8591283Y-10570220D01*
X8608597Y-10570220D01*
X8625698Y-10567511D01*
X8625698Y-10567511D01*
X8633867Y-10564857D01*
X8633867Y-10564857D01*
X8599940Y-10530931D01*
X8599940Y-10530931D01*
X8566013Y-10564857D01*
X8431680Y-10564857D01*
X8433919Y-10563231D01*
X8433919Y-10563231D01*
X8433919Y-10563230D01*
X8448950Y-10548199D01*
X8448951Y-10548199D01*
X8448951Y-10548199D01*
X8461445Y-10531002D01*
X8461445Y-10531002D01*
X8461445Y-10531002D01*
X8471096Y-10512061D01*
X8474705Y-10500953D01*
X8478649Y-10495186D01*
X8485084Y-10492466D01*
X8489393Y-10492728D01*
X8495303Y-10494147D01*
X8529229Y-10460220D01*
X8522647Y-10453637D01*
X8549940Y-10453637D01*
X8549940Y-10466803D01*
X8553348Y-10479519D01*
X8559930Y-10490921D01*
X8569239Y-10500230D01*
X8580641Y-10506813D01*
X8593357Y-10510220D01*
X8606523Y-10510220D01*
X8619239Y-10506813D01*
X8630641Y-10500230D01*
X8639950Y-10490921D01*
X8646533Y-10479519D01*
X8649940Y-10466803D01*
X8649940Y-10453637D01*
X8646533Y-10440921D01*
X8639950Y-10429519D01*
X8630641Y-10420210D01*
X8619239Y-10413628D01*
X8606523Y-10410220D01*
X8593357Y-10410220D01*
X8580641Y-10413628D01*
X8569239Y-10420210D01*
X8559930Y-10429519D01*
X8553348Y-10440921D01*
X8549940Y-10453637D01*
X8522647Y-10453637D01*
X8495303Y-10426293D01*
X8489393Y-10427712D01*
X8482414Y-10427363D01*
X8476733Y-10423297D01*
X8474705Y-10419487D01*
X8471096Y-10408379D01*
X8461445Y-10389438D01*
X8461445Y-10389438D01*
X8461445Y-10389438D01*
X8448951Y-10372241D01*
X8433919Y-10357209D01*
X8416722Y-10344715D01*
X8416652Y-10344679D01*
X8415845Y-10344269D01*
X8410766Y-10339471D01*
X8409086Y-10332689D01*
X8411340Y-10326076D01*
X8415845Y-10322172D01*
X8416722Y-10321725D01*
X8418919Y-10320129D01*
X8433919Y-10309231D01*
X8433919Y-10309231D01*
X8433919Y-10309230D01*
X8448950Y-10294199D01*
X8448951Y-10294199D01*
X8448951Y-10294199D01*
X8461445Y-10277002D01*
X8461445Y-10277002D01*
X8461445Y-10277002D01*
X8461891Y-10276125D01*
X8466689Y-10271046D01*
X8473471Y-10269366D01*
X8480084Y-10271620D01*
X8483989Y-10276126D01*
X8484435Y-10277002D01*
X8496929Y-10294199D01*
X8511961Y-10309231D01*
X8529158Y-10321725D01*
X8529158Y-10321725D01*
X8529158Y-10321725D01*
X8548099Y-10331376D01*
X8559207Y-10334985D01*
X8564974Y-10338929D01*
X8567694Y-10345364D01*
X8567432Y-10349673D01*
X8566013Y-10355583D01*
X8599940Y-10389509D01*
X8599940Y-10389509D01*
X8633867Y-10355583D01*
X8632448Y-10349673D01*
X8632797Y-10342694D01*
X8636863Y-10337013D01*
X8640673Y-10334985D01*
X8651781Y-10331376D01*
X8670722Y-10321725D01*
X8672919Y-10320129D01*
X8687919Y-10309231D01*
X8687919Y-10309231D01*
X8687919Y-10309230D01*
X8702950Y-10294199D01*
X8702951Y-10294199D01*
X8702951Y-10294199D01*
X8715445Y-10277002D01*
X8715445Y-10277002D01*
X8715445Y-10277002D01*
X8715891Y-10276125D01*
X8720689Y-10271046D01*
X8727471Y-10269366D01*
X8734084Y-10271620D01*
X8737989Y-10276126D01*
X8738435Y-10277002D01*
X8750929Y-10294199D01*
X8765961Y-10309231D01*
X8783158Y-10321725D01*
X8784035Y-10322172D01*
X8789114Y-10326969D01*
X8790794Y-10333751D01*
X8788540Y-10340365D01*
X8784035Y-10344268D01*
X8783158Y-10344715D01*
X8765961Y-10357209D01*
X8750929Y-10372241D01*
X8738435Y-10389438D01*
X8728784Y-10408378D01*
X8725175Y-10419487D01*
X8721231Y-10425254D01*
X8714795Y-10427974D01*
X8710487Y-10427712D01*
X8704577Y-10426293D01*
X8670651Y-10460220D01*
X8670651Y-10460220D01*
X8704577Y-10494147D01*
X8710487Y-10492728D01*
X8717466Y-10493077D01*
X8723147Y-10497143D01*
X8725175Y-10500953D01*
X8726817Y-10506007D01*
X8728784Y-10512062D01*
X8738435Y-10531002D01*
X8750929Y-10548199D01*
X8765961Y-10563231D01*
X8783158Y-10575725D01*
X8783158Y-10575725D01*
X8783158Y-10575725D01*
X8802099Y-10585376D01*
X8822316Y-10591945D01*
X8843311Y-10595270D01*
X8843311Y-10595270D01*
X8864569Y-10595270D01*
X8864569Y-10595270D01*
X8885564Y-10591945D01*
X8905781Y-10585376D01*
X8924722Y-10575725D01*
X8931479Y-10570815D01*
X8941919Y-10563231D01*
X8941919Y-10563231D01*
X8941919Y-10563230D01*
X8956950Y-10548199D01*
X8956951Y-10548199D01*
X8956951Y-10548199D01*
X8969445Y-10531002D01*
X8969445Y-10531002D01*
X8969445Y-10531002D01*
X8969891Y-10530125D01*
X8974689Y-10525046D01*
X8981471Y-10523366D01*
X8988084Y-10525620D01*
X8991989Y-10530126D01*
X8992435Y-10531002D01*
X9004929Y-10548199D01*
X9019961Y-10563231D01*
X9037158Y-10575725D01*
X9037158Y-10575725D01*
X9037158Y-10575725D01*
X9056099Y-10585376D01*
X9076316Y-10591945D01*
X9097311Y-10595270D01*
X9097311Y-10595270D01*
X9118569Y-10595270D01*
X9118569Y-10595270D01*
X9139564Y-10591945D01*
X9159781Y-10585376D01*
X9178722Y-10575725D01*
X9185479Y-10570815D01*
X9195919Y-10563231D01*
X9195919Y-10563231D01*
X9195919Y-10563230D01*
X9210950Y-10548199D01*
X9210951Y-10548199D01*
X9210951Y-10548199D01*
X9223445Y-10531002D01*
X9223445Y-10531002D01*
X9223445Y-10531002D01*
X9223891Y-10530125D01*
X9228689Y-10525046D01*
X9235471Y-10523366D01*
X9242084Y-10525620D01*
X9245989Y-10530126D01*
X9246435Y-10531002D01*
X9258929Y-10548199D01*
X9273961Y-10563231D01*
X9291158Y-10575725D01*
X9291158Y-10575725D01*
X9291158Y-10575725D01*
X9310099Y-10585376D01*
X9330316Y-10591945D01*
X9351311Y-10595270D01*
X9351311Y-10595270D01*
X9372569Y-10595270D01*
X9372569Y-10595270D01*
X9393564Y-10591945D01*
X9413781Y-10585376D01*
X9432722Y-10575725D01*
X9439479Y-10570815D01*
X9449919Y-10563231D01*
X9449919Y-10563231D01*
X9449919Y-10563230D01*
X9464950Y-10548199D01*
X9464951Y-10548199D01*
X9464951Y-10548199D01*
X9477445Y-10531002D01*
X9477445Y-10531002D01*
X9477445Y-10531002D01*
X9477891Y-10530125D01*
X9482689Y-10525046D01*
X9489471Y-10523366D01*
X9496084Y-10525620D01*
X9499989Y-10530126D01*
X9500435Y-10531002D01*
X9512929Y-10548199D01*
X9512930Y-10548199D01*
X9527961Y-10563230D01*
X9545158Y-10575725D01*
X9545159Y-10575725D01*
X9545160Y-10575726D01*
X9546419Y-10576367D01*
X9551499Y-10581165D01*
X9553190Y-10587416D01*
X9553190Y-10660822D01*
X9551222Y-10667526D01*
X9549558Y-10669590D01*
X9538726Y-10680421D01*
X9538726Y-10680422D01*
X9527777Y-10696808D01*
X9527776Y-10696809D01*
X9520235Y-10715016D01*
X9520235Y-10715017D01*
X9516390Y-10734346D01*
X9516390Y-10734346D01*
X9516390Y-10754054D01*
X9516390Y-10754054D01*
X9516390Y-10754054D01*
X9520235Y-10773383D01*
X9520235Y-10773384D01*
X9527776Y-10791591D01*
X9527777Y-10791592D01*
X9538726Y-10807978D01*
X9538726Y-10807979D01*
X9552661Y-10821914D01*
X9552662Y-10821914D01*
X9569048Y-10832863D01*
X9569049Y-10832864D01*
X9587256Y-10840405D01*
X9587257Y-10840405D01*
X9587257Y-10840405D01*
X9587257Y-10840405D01*
X9606586Y-10844250D01*
X9606586Y-10844250D01*
X9626294Y-10844250D01*
X9639298Y-10841663D01*
X9645624Y-10840405D01*
X9663831Y-10832863D01*
X9680218Y-10821914D01*
X9694154Y-10807978D01*
X9705103Y-10791591D01*
X9712645Y-10773384D01*
X9715302Y-10760026D01*
X9716490Y-10754054D01*
X9716490Y-10734346D01*
X9712645Y-10715017D01*
X9712645Y-10715017D01*
X9712645Y-10715017D01*
X9708042Y-10703904D01*
X9705104Y-10696809D01*
X9705103Y-10696808D01*
X9694154Y-10680422D01*
X9694154Y-10680421D01*
X9682322Y-10668590D01*
X9678973Y-10662457D01*
X9678690Y-10659822D01*
X9678690Y-10587416D01*
X9680659Y-10580712D01*
X9685461Y-10576367D01*
X9686720Y-10575726D01*
X9686722Y-10575725D01*
X9703919Y-10563230D01*
X9718950Y-10548199D01*
X9718951Y-10548199D01*
X9718951Y-10548199D01*
X9731445Y-10531002D01*
X9731445Y-10531002D01*
X9731445Y-10531002D01*
X9731891Y-10530125D01*
X9736689Y-10525046D01*
X9743471Y-10523366D01*
X9750084Y-10525620D01*
X9753989Y-10530126D01*
X9754435Y-10531002D01*
X9766929Y-10548199D01*
X9781961Y-10563231D01*
X9799158Y-10575725D01*
X9799158Y-10575725D01*
X9799158Y-10575725D01*
X9818099Y-10585376D01*
X9838316Y-10591945D01*
X9859311Y-10595270D01*
X9859311Y-10595270D01*
X9880569Y-10595270D01*
X9880569Y-10595270D01*
X9901564Y-10591945D01*
X9921781Y-10585376D01*
X9940722Y-10575725D01*
X9947479Y-10570815D01*
X9957919Y-10563231D01*
X9957919Y-10563231D01*
X9957919Y-10563230D01*
X9972950Y-10548199D01*
X9972951Y-10548199D01*
X9972951Y-10548199D01*
X9985445Y-10531002D01*
X9985445Y-10531002D01*
X9985445Y-10531002D01*
X9985891Y-10530125D01*
X9990689Y-10525046D01*
X9997471Y-10523366D01*
X10004084Y-10525620D01*
X10007989Y-10530126D01*
X10008435Y-10531002D01*
X10020929Y-10548199D01*
X10035961Y-10563231D01*
X10053158Y-10575725D01*
X10053158Y-10575725D01*
X10053158Y-10575725D01*
X10072099Y-10585376D01*
X10092316Y-10591945D01*
X10113311Y-10595270D01*
X10113311Y-10595270D01*
X10134569Y-10595270D01*
X10134569Y-10595270D01*
X10155564Y-10591945D01*
X10175781Y-10585376D01*
X10194722Y-10575725D01*
X10201479Y-10570815D01*
X10211919Y-10563231D01*
X10211919Y-10563231D01*
X10211919Y-10563230D01*
X10226950Y-10548199D01*
X10226951Y-10548199D01*
X10226951Y-10548199D01*
X10239445Y-10531002D01*
X10239445Y-10531002D01*
X10239445Y-10531002D01*
X10239891Y-10530125D01*
X10244689Y-10525046D01*
X10251471Y-10523366D01*
X10258084Y-10525620D01*
X10261989Y-10530126D01*
X10262435Y-10531002D01*
X10274929Y-10548199D01*
X10289961Y-10563231D01*
X10307158Y-10575725D01*
X10307158Y-10575725D01*
X10307158Y-10575725D01*
X10326099Y-10585376D01*
X10346316Y-10591945D01*
X10367311Y-10595270D01*
X10367311Y-10595270D01*
X10388569Y-10595270D01*
X10388569Y-10595270D01*
X10409564Y-10591945D01*
X10429781Y-10585376D01*
X10448722Y-10575725D01*
X10455479Y-10570815D01*
X10463680Y-10564857D01*
X10598013Y-10564857D01*
X10606182Y-10567511D01*
X10623283Y-10570220D01*
X10640597Y-10570220D01*
X10657698Y-10567511D01*
X10657698Y-10567511D01*
X10665867Y-10564857D01*
X10665867Y-10564857D01*
X10631940Y-10530931D01*
X10631940Y-10530931D01*
X10598013Y-10564857D01*
X10463680Y-10564857D01*
X10465919Y-10563231D01*
X10465919Y-10563231D01*
X10465919Y-10563230D01*
X10480950Y-10548199D01*
X10480951Y-10548199D01*
X10480951Y-10548199D01*
X10493445Y-10531002D01*
X10493445Y-10531002D01*
X10493445Y-10531002D01*
X10503096Y-10512061D01*
X10506705Y-10500953D01*
X10510649Y-10495186D01*
X10517084Y-10492466D01*
X10521393Y-10492728D01*
X10527303Y-10494147D01*
X10587817Y-10433633D01*
X10590356Y-10432246D01*
X10585348Y-10440921D01*
X10581940Y-10453637D01*
X10581940Y-10466803D01*
X10585348Y-10479519D01*
X10591930Y-10490921D01*
X10601239Y-10500230D01*
X10612641Y-10506813D01*
X10625357Y-10510220D01*
X10638523Y-10510220D01*
X10651239Y-10506813D01*
X10662641Y-10500230D01*
X10671950Y-10490921D01*
X10678533Y-10479519D01*
X10681940Y-10466803D01*
X10681940Y-10453637D01*
X10678533Y-10440921D01*
X10673299Y-10431856D01*
X10676063Y-10433633D01*
X10736577Y-10494147D01*
X10742487Y-10492728D01*
X10749466Y-10493077D01*
X10755147Y-10497143D01*
X10757175Y-10500953D01*
X10758817Y-10506007D01*
X10760784Y-10512062D01*
X10770435Y-10531002D01*
X10782929Y-10548199D01*
X10797961Y-10563231D01*
X10815158Y-10575725D01*
X10815158Y-10575725D01*
X10815158Y-10575725D01*
X10834099Y-10585376D01*
X10854316Y-10591945D01*
X10875311Y-10595270D01*
X10875311Y-10595270D01*
X10896569Y-10595270D01*
X10896569Y-10595270D01*
X10917564Y-10591945D01*
X10937781Y-10585376D01*
X10956722Y-10575725D01*
X10963479Y-10570815D01*
X10973919Y-10563231D01*
X10973919Y-10563231D01*
X10973919Y-10563230D01*
X10988950Y-10548199D01*
X10988951Y-10548199D01*
X10988951Y-10548199D01*
X11001445Y-10531002D01*
X11001445Y-10531002D01*
X11001445Y-10531002D01*
X11001891Y-10530125D01*
X11006689Y-10525046D01*
X11013471Y-10523366D01*
X11020084Y-10525620D01*
X11023989Y-10530126D01*
X11024435Y-10531002D01*
X11036929Y-10548199D01*
X11051961Y-10563231D01*
X11069158Y-10575725D01*
X11069158Y-10575725D01*
X11069158Y-10575725D01*
X11088099Y-10585376D01*
X11108316Y-10591945D01*
X11129311Y-10595270D01*
X11129311Y-10595270D01*
X11150569Y-10595270D01*
X11150569Y-10595270D01*
X11171564Y-10591945D01*
X11191781Y-10585376D01*
X11210722Y-10575725D01*
X11217479Y-10570815D01*
X11227919Y-10563231D01*
X11227919Y-10563231D01*
X11227919Y-10563230D01*
X11242950Y-10548199D01*
X11242951Y-10548199D01*
X11242951Y-10548199D01*
X11255445Y-10531002D01*
X11255445Y-10531002D01*
X11255445Y-10531002D01*
X11255891Y-10530125D01*
X11260689Y-10525046D01*
X11267471Y-10523366D01*
X11274084Y-10525620D01*
X11277989Y-10530126D01*
X11278435Y-10531002D01*
X11290929Y-10548199D01*
X11305961Y-10563231D01*
X11323158Y-10575725D01*
X11323158Y-10575725D01*
X11323158Y-10575725D01*
X11342099Y-10585376D01*
X11362316Y-10591945D01*
X11383311Y-10595270D01*
X11383311Y-10595270D01*
X11404569Y-10595270D01*
X11404569Y-10595270D01*
X11425564Y-10591945D01*
X11445781Y-10585376D01*
X11464722Y-10575725D01*
X11481919Y-10563230D01*
X11493273Y-10551877D01*
X11499405Y-10548528D01*
X11506374Y-10549027D01*
X11511967Y-10553214D01*
X11513659Y-10556312D01*
X11518560Y-10569453D01*
X11518561Y-10569454D01*
X11527185Y-10580974D01*
X11527185Y-10580975D01*
X11538706Y-10589599D01*
X11538707Y-10589600D01*
X11552192Y-10594629D01*
X11552192Y-10594629D01*
X11552884Y-10594704D01*
X11558153Y-10595270D01*
X11737727Y-10595270D01*
X11743688Y-10594629D01*
X11750853Y-10591957D01*
X11757822Y-10591458D01*
X11763955Y-10594807D01*
X11895533Y-10726386D01*
X11895536Y-10726389D01*
X11909781Y-10740634D01*
X11909782Y-10740634D01*
X11926168Y-10751583D01*
X11926169Y-10751584D01*
X11939043Y-10756916D01*
X11944376Y-10759125D01*
X11944376Y-10759125D01*
X11948215Y-10759889D01*
X11952087Y-10760659D01*
X11963706Y-10762970D01*
X11963706Y-10762970D01*
X12567614Y-10762970D01*
X12575880Y-10761326D01*
X12583105Y-10759889D01*
X12586944Y-10759125D01*
X12592276Y-10756916D01*
X12605151Y-10751583D01*
X12621538Y-10740634D01*
X12635474Y-10726698D01*
X12635474Y-10726698D01*
X12636181Y-10725991D01*
X12636181Y-10725991D01*
X12900370Y-10461802D01*
X12906502Y-10458453D01*
X12909138Y-10458170D01*
X12996647Y-10458170D01*
X13128150Y-10458170D01*
X13134854Y-10460139D01*
X13139429Y-10465419D01*
X13140550Y-10470570D01*
X13140550Y-10521582D01*
X13138581Y-10528286D01*
X13133301Y-10532861D01*
X13126385Y-10533856D01*
X13124318Y-10533375D01*
X13114883Y-10530309D01*
X13095442Y-10527230D01*
X13095442Y-10527230D01*
X13075758Y-10527230D01*
X13075758Y-10527230D01*
X13056317Y-10530309D01*
X13037597Y-10536392D01*
X13020059Y-10545328D01*
X13014968Y-10549027D01*
X13004135Y-10556897D01*
X13004135Y-10556897D01*
X13004135Y-10556897D01*
X12990217Y-10570815D01*
X12990217Y-10570815D01*
X12990217Y-10570815D01*
X12986329Y-10576167D01*
X12978648Y-10586739D01*
X12969712Y-10604277D01*
X12963629Y-10622997D01*
X12960550Y-10642438D01*
X12960550Y-10662122D01*
X12963629Y-10681563D01*
X12969712Y-10700283D01*
X12978648Y-10717821D01*
X12990217Y-10733745D01*
X13004135Y-10747663D01*
X13020059Y-10759232D01*
X13022943Y-10760702D01*
X13037597Y-10768168D01*
X13037597Y-10768168D01*
X13037597Y-10768168D01*
X13041603Y-10769470D01*
X13056317Y-10774251D01*
X13075758Y-10777330D01*
X13075758Y-10777330D01*
X13095442Y-10777330D01*
X13104867Y-10775837D01*
X13114883Y-10774251D01*
X13114883Y-10774251D01*
X13114883Y-10774251D01*
X13119052Y-10772896D01*
X13124318Y-10771185D01*
X13131302Y-10770985D01*
X13137285Y-10774593D01*
X13140368Y-10780864D01*
X13140550Y-10782978D01*
X13140550Y-10817134D01*
X13144514Y-10837061D01*
X13144346Y-10837094D01*
X13144402Y-10843267D01*
X13140677Y-10849178D01*
X13136967Y-10850913D01*
X13135600Y-10852280D01*
X13135600Y-10902280D01*
X13188972Y-10902280D01*
X13195676Y-10904249D01*
X13197740Y-10905912D01*
X13258943Y-10967115D01*
X13262292Y-10973247D01*
X13262422Y-10973943D01*
X13263629Y-10981563D01*
X13269712Y-11000283D01*
X13278648Y-11017821D01*
X13290217Y-11033745D01*
X13304135Y-11047663D01*
X13320059Y-11059232D01*
X13328345Y-11063454D01*
X13337597Y-11068168D01*
X13337597Y-11068168D01*
X13337597Y-11068168D01*
X13347632Y-11071429D01*
X13356317Y-11074251D01*
X13375758Y-11077330D01*
X13375758Y-11077330D01*
X13395442Y-11077330D01*
X13414883Y-11074251D01*
X13433602Y-11068168D01*
X13451140Y-11059232D01*
X13465149Y-11049055D01*
X13659536Y-11049055D01*
X13659536Y-11049055D01*
X13675750Y-11052280D01*
X13675751Y-11052280D01*
X13695449Y-11052280D01*
X13711664Y-11049055D01*
X13711664Y-11049055D01*
X13685600Y-11022991D01*
X13685600Y-11022991D01*
X13659536Y-11049055D01*
X13465149Y-11049055D01*
X13467065Y-11047663D01*
X13480983Y-11033745D01*
X13492552Y-11017821D01*
X13501488Y-11000283D01*
X13507571Y-10981563D01*
X13508081Y-10978344D01*
X13510650Y-10962122D01*
X13510650Y-10942439D01*
X13510650Y-10942437D01*
X13510649Y-10942430D01*
X13585600Y-10942430D01*
X13585600Y-10962130D01*
X13588825Y-10978344D01*
X13588825Y-10978344D01*
X13614889Y-10952280D01*
X13614889Y-10952280D01*
X13588825Y-10926216D01*
X13588825Y-10926216D01*
X13585600Y-10942430D01*
X13510649Y-10942430D01*
X13507571Y-10922997D01*
X13503825Y-10911470D01*
X13501488Y-10904278D01*
X13501488Y-10904277D01*
X13501488Y-10904277D01*
X13492552Y-10886739D01*
X13491284Y-10884994D01*
X13480983Y-10870815D01*
X13467065Y-10856897D01*
X13451140Y-10845328D01*
X13449026Y-10844250D01*
X13433603Y-10836392D01*
X13414883Y-10830309D01*
X13407263Y-10829102D01*
X13400950Y-10826109D01*
X13400435Y-10825623D01*
X13344282Y-10769470D01*
X13340933Y-10763338D01*
X13340650Y-10760702D01*
X13340650Y-10760369D01*
X13342618Y-10753666D01*
X13347899Y-10749090D01*
X13354815Y-10748096D01*
X13355833Y-10748322D01*
X13355834Y-10748318D01*
X13375750Y-10752280D01*
X13375751Y-10752280D01*
X13395449Y-10752280D01*
X13411664Y-10749055D01*
X13411664Y-10749055D01*
X13359013Y-10696403D01*
X13358547Y-10695551D01*
X13365915Y-10699805D01*
X13378886Y-10703280D01*
X13392314Y-10703280D01*
X13405285Y-10699805D01*
X13416915Y-10693090D01*
X13426410Y-10683595D01*
X13433124Y-10671965D01*
X13436600Y-10658994D01*
X13436600Y-10652280D01*
X13456311Y-10652280D01*
X13456311Y-10652280D01*
X13482374Y-10678344D01*
X13482375Y-10678344D01*
X13485600Y-10662129D01*
X13485600Y-10642431D01*
X13485600Y-10642430D01*
X13482375Y-10626216D01*
X13482374Y-10626216D01*
X13456311Y-10652280D01*
X13436600Y-10652280D01*
X13436600Y-10645566D01*
X13433124Y-10632595D01*
X13426410Y-10620965D01*
X13416915Y-10611470D01*
X13405285Y-10604756D01*
X13392314Y-10601280D01*
X13378886Y-10601280D01*
X13365915Y-10604756D01*
X13358416Y-10609085D01*
X13359013Y-10608157D01*
X13411664Y-10555505D01*
X13411664Y-10555505D01*
X13395449Y-10552280D01*
X13375750Y-10552280D01*
X13355834Y-10556242D01*
X13355798Y-10556065D01*
X13349661Y-10556118D01*
X13343750Y-10552393D01*
X13340792Y-10546063D01*
X13340650Y-10544191D01*
X13340650Y-10470570D01*
X13342618Y-10463866D01*
X13347899Y-10459291D01*
X13353050Y-10458170D01*
X13549923Y-10458170D01*
X13556627Y-10460139D01*
X13558691Y-10461802D01*
X13622675Y-10525786D01*
X13626024Y-10531919D01*
X13625525Y-10538888D01*
X13621338Y-10544481D01*
X13620387Y-10545127D01*
X13620060Y-10545327D01*
X13614968Y-10549027D01*
X13604135Y-10556897D01*
X13604135Y-10556897D01*
X13604135Y-10556897D01*
X13590217Y-10570815D01*
X13590217Y-10570815D01*
X13590217Y-10570815D01*
X13586329Y-10576167D01*
X13578648Y-10586739D01*
X13569712Y-10604277D01*
X13563629Y-10622997D01*
X13560550Y-10642438D01*
X13560550Y-10662122D01*
X13563629Y-10681563D01*
X13569712Y-10700283D01*
X13578648Y-10717821D01*
X13590217Y-10733745D01*
X13604135Y-10747663D01*
X13620059Y-10759232D01*
X13622943Y-10760702D01*
X13637597Y-10768168D01*
X13637597Y-10768168D01*
X13637597Y-10768168D01*
X13641603Y-10769470D01*
X13656317Y-10774251D01*
X13675758Y-10777330D01*
X13675758Y-10777330D01*
X13695442Y-10777330D01*
X13704867Y-10775837D01*
X13714883Y-10774251D01*
X13714883Y-10774251D01*
X13714883Y-10774251D01*
X13719052Y-10772896D01*
X13724318Y-10771185D01*
X13731302Y-10770985D01*
X13737285Y-10774593D01*
X13740368Y-10780864D01*
X13740550Y-10782978D01*
X13740550Y-10817134D01*
X13744395Y-10836463D01*
X13744395Y-10836464D01*
X13746604Y-10841797D01*
X13748904Y-10847350D01*
X13749651Y-10854297D01*
X13746523Y-10860545D01*
X13740515Y-10864110D01*
X13733532Y-10863861D01*
X13732703Y-10863551D01*
X13714769Y-10856123D01*
X13714768Y-10856123D01*
X13695449Y-10852280D01*
X13675750Y-10852280D01*
X13659536Y-10855505D01*
X13659536Y-10855505D01*
X13713568Y-10909538D01*
X13705285Y-10904756D01*
X13692314Y-10901280D01*
X13678886Y-10901280D01*
X13665915Y-10904756D01*
X13654285Y-10911470D01*
X13644790Y-10920965D01*
X13638075Y-10932595D01*
X13634600Y-10945566D01*
X13634600Y-10958994D01*
X13638075Y-10971965D01*
X13644790Y-10983595D01*
X13654285Y-10993090D01*
X13665915Y-10999805D01*
X13678886Y-11003280D01*
X13692314Y-11003280D01*
X13705285Y-10999805D01*
X13716915Y-10993090D01*
X13726410Y-10983595D01*
X13733124Y-10971965D01*
X13736600Y-10958994D01*
X13736600Y-10945566D01*
X13733124Y-10932595D01*
X13728342Y-10924312D01*
X13782374Y-10978344D01*
X13782375Y-10978344D01*
X13785600Y-10962129D01*
X13785600Y-10942431D01*
X13785600Y-10942430D01*
X13781757Y-10923112D01*
X13781679Y-10922853D01*
X13781677Y-10922711D01*
X13781638Y-10922514D01*
X13781676Y-10922506D01*
X13781616Y-10915867D01*
X13785340Y-10909955D01*
X13791669Y-10906995D01*
X13798594Y-10907927D01*
X13802313Y-10910485D01*
X13858943Y-10967115D01*
X13862292Y-10973247D01*
X13862422Y-10973943D01*
X13863629Y-10981563D01*
X13869712Y-11000283D01*
X13878648Y-11017821D01*
X13890217Y-11033745D01*
X13904135Y-11047663D01*
X13920059Y-11059232D01*
X13928345Y-11063454D01*
X13937597Y-11068168D01*
X13937597Y-11068168D01*
X13937597Y-11068168D01*
X13947632Y-11071429D01*
X13956317Y-11074251D01*
X13975758Y-11077330D01*
X13975758Y-11077330D01*
X13995442Y-11077330D01*
X14014883Y-11074251D01*
X14033602Y-11068168D01*
X14051140Y-11059232D01*
X14065149Y-11049055D01*
X14259536Y-11049055D01*
X14259536Y-11049055D01*
X14275750Y-11052280D01*
X14275751Y-11052280D01*
X14295449Y-11052280D01*
X14311664Y-11049055D01*
X14311664Y-11049055D01*
X14285600Y-11022991D01*
X14285600Y-11022991D01*
X14259536Y-11049055D01*
X14065149Y-11049055D01*
X14067065Y-11047663D01*
X14080983Y-11033745D01*
X14092552Y-11017821D01*
X14101488Y-11000283D01*
X14107571Y-10981563D01*
X14108081Y-10978344D01*
X14110650Y-10962122D01*
X14110650Y-10942439D01*
X14110650Y-10942437D01*
X14110649Y-10942430D01*
X14185600Y-10942430D01*
X14185600Y-10962130D01*
X14188825Y-10978344D01*
X14188825Y-10978344D01*
X14214889Y-10952280D01*
X14214889Y-10952280D01*
X14208175Y-10945566D01*
X14234600Y-10945566D01*
X14234600Y-10958994D01*
X14238075Y-10971965D01*
X14244790Y-10983595D01*
X14254285Y-10993090D01*
X14265915Y-10999805D01*
X14278886Y-11003280D01*
X14292314Y-11003280D01*
X14305285Y-10999805D01*
X14316915Y-10993090D01*
X14326410Y-10983595D01*
X14333124Y-10971965D01*
X14336600Y-10958994D01*
X14336600Y-10952280D01*
X14356311Y-10952280D01*
X14356311Y-10952280D01*
X14382374Y-10978344D01*
X14382375Y-10978344D01*
X14385600Y-10962129D01*
X14385600Y-10942431D01*
X14385600Y-10942430D01*
X14382375Y-10926216D01*
X14382374Y-10926216D01*
X14356311Y-10952280D01*
X14336600Y-10952280D01*
X14336600Y-10945566D01*
X14333124Y-10932595D01*
X14326410Y-10920965D01*
X14316915Y-10911470D01*
X14305285Y-10904756D01*
X14292314Y-10901280D01*
X14278886Y-10901280D01*
X14265915Y-10904756D01*
X14254285Y-10911470D01*
X14244790Y-10920965D01*
X14238075Y-10932595D01*
X14234600Y-10945566D01*
X14208175Y-10945566D01*
X14188825Y-10926216D01*
X14188825Y-10926216D01*
X14185600Y-10942430D01*
X14110649Y-10942430D01*
X14107571Y-10922997D01*
X14103825Y-10911470D01*
X14101488Y-10904278D01*
X14101488Y-10904277D01*
X14101488Y-10904277D01*
X14092552Y-10886739D01*
X14091284Y-10884994D01*
X14080983Y-10870815D01*
X14067065Y-10856897D01*
X14065149Y-10855505D01*
X14259536Y-10855505D01*
X14259536Y-10855505D01*
X14285600Y-10881569D01*
X14285600Y-10881569D01*
X14311664Y-10855505D01*
X14311664Y-10855505D01*
X14295449Y-10852280D01*
X14275750Y-10852280D01*
X14259536Y-10855505D01*
X14065149Y-10855505D01*
X14051140Y-10845328D01*
X14049026Y-10844250D01*
X14033603Y-10836392D01*
X14014883Y-10830309D01*
X14007263Y-10829102D01*
X14000950Y-10826109D01*
X14000435Y-10825623D01*
X13944282Y-10769470D01*
X13940933Y-10763338D01*
X13940650Y-10760702D01*
X13940650Y-10760369D01*
X13942618Y-10753666D01*
X13947899Y-10749090D01*
X13954815Y-10748096D01*
X13955833Y-10748322D01*
X13955834Y-10748318D01*
X13975750Y-10752280D01*
X13975751Y-10752280D01*
X13995449Y-10752280D01*
X14011664Y-10749055D01*
X14011664Y-10749055D01*
X14259536Y-10749055D01*
X14259536Y-10749055D01*
X14275750Y-10752280D01*
X14275751Y-10752280D01*
X14295449Y-10752280D01*
X14311664Y-10749055D01*
X14311664Y-10749055D01*
X14285600Y-10722991D01*
X14285600Y-10722991D01*
X14259536Y-10749055D01*
X14011664Y-10749055D01*
X13959013Y-10696403D01*
X13958547Y-10695551D01*
X13965915Y-10699805D01*
X13978886Y-10703280D01*
X13992314Y-10703280D01*
X14005285Y-10699805D01*
X14016915Y-10693090D01*
X14026410Y-10683595D01*
X14033124Y-10671965D01*
X14036600Y-10658994D01*
X14036600Y-10652280D01*
X14056311Y-10652280D01*
X14056311Y-10652280D01*
X14082374Y-10678344D01*
X14082375Y-10678344D01*
X14085600Y-10662129D01*
X14085600Y-10642431D01*
X14085600Y-10642430D01*
X14185600Y-10642430D01*
X14185600Y-10662130D01*
X14188825Y-10678344D01*
X14188825Y-10678344D01*
X14214889Y-10652280D01*
X14214889Y-10652280D01*
X14208175Y-10645566D01*
X14234600Y-10645566D01*
X14234600Y-10658994D01*
X14238075Y-10671965D01*
X14244790Y-10683595D01*
X14254285Y-10693090D01*
X14265915Y-10699805D01*
X14278886Y-10703280D01*
X14292314Y-10703280D01*
X14305285Y-10699805D01*
X14316915Y-10693090D01*
X14326410Y-10683595D01*
X14333124Y-10671965D01*
X14336600Y-10658994D01*
X14336600Y-10652280D01*
X14356311Y-10652280D01*
X14356311Y-10652280D01*
X14382374Y-10678344D01*
X14382375Y-10678344D01*
X14385600Y-10662129D01*
X14385600Y-10642431D01*
X14385600Y-10642430D01*
X14382375Y-10626216D01*
X14382374Y-10626216D01*
X14356311Y-10652280D01*
X14336600Y-10652280D01*
X14336600Y-10645566D01*
X14333124Y-10632595D01*
X14326410Y-10620965D01*
X14316915Y-10611470D01*
X14305285Y-10604756D01*
X14292314Y-10601280D01*
X14278886Y-10601280D01*
X14265915Y-10604756D01*
X14254285Y-10611470D01*
X14244790Y-10620965D01*
X14238075Y-10632595D01*
X14234600Y-10645566D01*
X14208175Y-10645566D01*
X14188825Y-10626216D01*
X14188825Y-10626216D01*
X14185600Y-10642430D01*
X14085600Y-10642430D01*
X14082375Y-10626216D01*
X14082374Y-10626216D01*
X14056311Y-10652280D01*
X14036600Y-10652280D01*
X14036600Y-10645566D01*
X14033124Y-10632595D01*
X14026410Y-10620965D01*
X14016915Y-10611470D01*
X14005285Y-10604756D01*
X13992314Y-10601280D01*
X13978886Y-10601280D01*
X13965915Y-10604756D01*
X13958416Y-10609085D01*
X13959013Y-10608157D01*
X14011664Y-10555505D01*
X14011664Y-10555505D01*
X14259536Y-10555505D01*
X14259536Y-10555505D01*
X14285600Y-10581569D01*
X14285600Y-10581569D01*
X14311664Y-10555505D01*
X14311664Y-10555505D01*
X14295449Y-10552280D01*
X14275750Y-10552280D01*
X14259536Y-10555505D01*
X14011664Y-10555505D01*
X13995449Y-10552280D01*
X13975750Y-10552280D01*
X13956432Y-10556123D01*
X13956431Y-10556123D01*
X13945138Y-10560801D01*
X13938191Y-10561548D01*
X13931943Y-10558420D01*
X13929456Y-10555189D01*
X13929263Y-10554827D01*
X13918314Y-10538441D01*
X13918314Y-10538440D01*
X13904069Y-10524195D01*
X13904065Y-10524193D01*
X13674649Y-10294776D01*
X13674647Y-10294774D01*
X13660279Y-10280406D01*
X13660279Y-10280406D01*
X13643893Y-10269457D01*
X13643892Y-10269457D01*
X13631762Y-10264432D01*
X13631762Y-10264432D01*
X13631017Y-10264124D01*
X13625685Y-10261915D01*
X13613529Y-10259497D01*
X13613125Y-10259417D01*
X13613124Y-10259416D01*
X13606355Y-10258070D01*
X13606355Y-10258070D01*
X13016355Y-10258070D01*
X12852706Y-10258070D01*
X12852706Y-10258070D01*
X12845531Y-10259497D01*
X12845531Y-10259497D01*
X12833377Y-10261915D01*
X12833376Y-10261915D01*
X12828043Y-10264124D01*
X12828043Y-10264124D01*
X12826949Y-10264577D01*
X12815169Y-10269457D01*
X12815168Y-10269457D01*
X12798782Y-10280406D01*
X12791814Y-10287374D01*
X12784846Y-10294342D01*
X12784846Y-10294342D01*
X12650592Y-10428596D01*
X12519950Y-10559238D01*
X12513818Y-10562587D01*
X12511182Y-10562870D01*
X12313311Y-10562870D01*
X12306607Y-10560902D01*
X12302031Y-10555621D01*
X12301037Y-10548705D01*
X12303939Y-10542350D01*
X12306135Y-10540357D01*
X12306410Y-10540162D01*
X12306410Y-10540162D01*
X12331441Y-10520200D01*
X12354080Y-10497561D01*
X12374042Y-10472530D01*
X12391075Y-10445421D01*
X12404967Y-10416576D01*
X12415541Y-10386356D01*
X12422665Y-10355143D01*
X12426250Y-10323328D01*
X12426250Y-10291312D01*
X12422665Y-10259497D01*
X12415541Y-10228284D01*
X12404967Y-10198064D01*
X12391075Y-10169219D01*
X12374042Y-10142110D01*
X12354080Y-10117079D01*
X12331441Y-10094440D01*
X12306410Y-10074478D01*
X12287386Y-10062525D01*
X12279301Y-10057444D01*
X12264321Y-10050230D01*
X12259135Y-10045548D01*
X12257304Y-10038805D01*
X12259409Y-10032143D01*
X12264781Y-10027676D01*
X12269701Y-10026658D01*
X14406497Y-10026658D01*
X14406498Y-10026659D01*
X14412713Y-10026658D01*
X14413461Y-10026681D01*
X14439454Y-10028252D01*
X14440939Y-10028433D01*
X14466185Y-10033058D01*
X14467636Y-10033416D01*
X14492140Y-10041051D01*
X14493539Y-10041582D01*
X14516942Y-10052114D01*
X14518268Y-10052810D01*
X14540232Y-10066088D01*
X14541465Y-10066938D01*
X14561667Y-10082766D01*
X14562788Y-10083759D01*
X14580935Y-10101906D01*
X14581928Y-10103026D01*
X14597755Y-10123229D01*
X14598606Y-10124461D01*
X14611883Y-10146425D01*
X14612579Y-10147751D01*
X14623111Y-10171153D01*
X14623642Y-10172554D01*
X14631277Y-10197056D01*
X14631635Y-10198510D01*
X14636261Y-10223754D01*
X14636441Y-10225240D01*
X14638013Y-10251233D01*
X14638035Y-10251981D01*
X14638035Y-10253974D01*
X14638035Y-10258196D01*
X14638035Y-10258197D01*
X14638035Y-10259061D01*
X14638035Y-11614158D01*
X14636067Y-11620862D01*
X14630787Y-11625438D01*
X14625635Y-11626558D01*
X8303897Y-11626558D01*
X8303894Y-11626558D01*
X8303032Y-11626558D01*
X8302291Y-11626558D01*
X8296767Y-11626558D01*
X8296119Y-11626541D01*
X8273614Y-11625364D01*
X8272325Y-11625229D01*
X8250388Y-11621760D01*
X8249120Y-11621491D01*
X8241297Y-11619398D01*
X8227663Y-11615751D01*
X8226430Y-11615351D01*
X8205388Y-11607287D01*
X8204790Y-11607040D01*
X8199064Y-11604494D01*
X8198314Y-11604161D01*
X8198308Y-11604159D01*
X7677764Y-11372806D01*
X13126550Y-11372806D01*
X13126550Y-11395754D01*
X13129045Y-11414701D01*
X13129545Y-11418504D01*
X13129545Y-11418504D01*
X13135484Y-11440669D01*
X13144265Y-11461868D01*
X13144266Y-11461869D01*
X13155739Y-11481742D01*
X13169708Y-11499946D01*
X13169709Y-11499947D01*
X13185933Y-11516171D01*
X13185934Y-11516172D01*
X13204138Y-11530141D01*
X13204138Y-11530141D01*
X13204139Y-11530141D01*
X13224011Y-11541614D01*
X13224012Y-11541615D01*
X13224012Y-11541615D01*
X13233148Y-11545399D01*
X13245211Y-11550396D01*
X13267376Y-11556335D01*
X13290127Y-11559330D01*
X13290127Y-11559330D01*
X13313073Y-11559330D01*
X13313073Y-11559330D01*
X13335824Y-11556335D01*
X13357989Y-11550396D01*
X13379189Y-11541614D01*
X13399061Y-11530141D01*
X13417266Y-11516172D01*
X13417266Y-11516171D01*
X13417267Y-11516171D01*
X13433491Y-11499947D01*
X13433491Y-11499946D01*
X13433492Y-11499946D01*
X13447461Y-11481741D01*
X13458934Y-11461869D01*
X13467716Y-11440669D01*
X13473655Y-11418504D01*
X13476650Y-11395753D01*
X13476650Y-11372807D01*
X13476650Y-11372806D01*
X13896550Y-11372806D01*
X13896550Y-11395754D01*
X13899045Y-11414701D01*
X13899545Y-11418504D01*
X13899545Y-11418504D01*
X13905484Y-11440669D01*
X13914265Y-11461868D01*
X13914266Y-11461869D01*
X13925739Y-11481742D01*
X13939708Y-11499946D01*
X13939709Y-11499947D01*
X13955933Y-11516171D01*
X13955934Y-11516172D01*
X13974138Y-11530141D01*
X13974138Y-11530141D01*
X13974139Y-11530141D01*
X13994011Y-11541614D01*
X13994012Y-11541615D01*
X13994012Y-11541615D01*
X14003148Y-11545399D01*
X14015211Y-11550396D01*
X14037376Y-11556335D01*
X14060127Y-11559330D01*
X14060127Y-11559330D01*
X14083073Y-11559330D01*
X14083073Y-11559330D01*
X14105824Y-11556335D01*
X14127989Y-11550396D01*
X14149189Y-11541614D01*
X14169061Y-11530141D01*
X14187266Y-11516172D01*
X14187266Y-11516171D01*
X14187267Y-11516171D01*
X14203491Y-11499947D01*
X14203491Y-11499946D01*
X14203492Y-11499946D01*
X14217461Y-11481741D01*
X14228934Y-11461869D01*
X14237716Y-11440669D01*
X14243655Y-11418504D01*
X14246650Y-11395753D01*
X14246650Y-11372807D01*
X14243655Y-11350056D01*
X14237716Y-11327891D01*
X14228934Y-11306691D01*
X14217461Y-11286819D01*
X14217461Y-11286818D01*
X14217461Y-11286818D01*
X14203492Y-11268614D01*
X14203491Y-11268613D01*
X14187267Y-11252389D01*
X14187266Y-11252388D01*
X14169062Y-11238419D01*
X14149189Y-11226946D01*
X14149188Y-11226945D01*
X14127989Y-11218164D01*
X14105824Y-11212225D01*
X14102021Y-11211725D01*
X14083074Y-11209230D01*
X14083073Y-11209230D01*
X14060127Y-11209230D01*
X14060126Y-11209230D01*
X14038471Y-11212081D01*
X14037376Y-11212225D01*
X14028008Y-11214735D01*
X14015211Y-11218164D01*
X13994012Y-11226945D01*
X13994011Y-11226946D01*
X13974138Y-11238419D01*
X13955934Y-11252388D01*
X13939708Y-11268614D01*
X13925739Y-11286818D01*
X13914266Y-11306691D01*
X13914265Y-11306692D01*
X13905484Y-11327891D01*
X13899545Y-11350056D01*
X13899545Y-11350057D01*
X13896550Y-11372806D01*
X13476650Y-11372806D01*
X13473655Y-11350056D01*
X13467716Y-11327891D01*
X13458934Y-11306691D01*
X13447461Y-11286819D01*
X13447461Y-11286818D01*
X13447461Y-11286818D01*
X13433492Y-11268614D01*
X13433491Y-11268613D01*
X13417267Y-11252389D01*
X13417266Y-11252388D01*
X13399062Y-11238419D01*
X13379189Y-11226946D01*
X13379188Y-11226945D01*
X13357989Y-11218164D01*
X13335824Y-11212225D01*
X13332021Y-11211725D01*
X13313074Y-11209230D01*
X13313073Y-11209230D01*
X13290127Y-11209230D01*
X13290126Y-11209230D01*
X13268471Y-11212081D01*
X13267376Y-11212225D01*
X13258008Y-11214735D01*
X13245211Y-11218164D01*
X13224012Y-11226945D01*
X13224011Y-11226946D01*
X13204138Y-11238419D01*
X13185934Y-11252388D01*
X13169708Y-11268614D01*
X13155739Y-11286818D01*
X13144266Y-11306691D01*
X13144265Y-11306692D01*
X13135484Y-11327891D01*
X13129545Y-11350056D01*
X13129545Y-11350057D01*
X13126550Y-11372806D01*
X7677764Y-11372806D01*
X6854842Y-11007063D01*
X12985600Y-11007063D01*
X12986240Y-11013018D01*
X12991265Y-11026489D01*
X12999881Y-11037999D01*
X13011391Y-11046615D01*
X13024863Y-11051640D01*
X13024863Y-11051640D01*
X13030816Y-11052280D01*
X13035600Y-11052280D01*
X13135600Y-11052280D01*
X13140382Y-11052280D01*
X13140383Y-11052280D01*
X13146338Y-11051640D01*
X13159809Y-11046615D01*
X13171319Y-11037999D01*
X13179935Y-11026489D01*
X13184960Y-11013017D01*
X13185600Y-11007064D01*
X13185600Y-11007063D01*
X13185600Y-11002280D01*
X13135600Y-11002280D01*
X13135600Y-11052280D01*
X13035600Y-11052280D01*
X13035600Y-11052280D01*
X13035600Y-11002280D01*
X12985600Y-11002280D01*
X12985600Y-11007063D01*
X6854842Y-11007063D01*
X6716473Y-10945566D01*
X13034600Y-10945566D01*
X13034600Y-10958994D01*
X13038075Y-10971965D01*
X13044790Y-10983595D01*
X13054285Y-10993090D01*
X13065915Y-10999805D01*
X13078886Y-11003280D01*
X13092314Y-11003280D01*
X13105285Y-10999805D01*
X13116915Y-10993090D01*
X13126410Y-10983595D01*
X13133124Y-10971965D01*
X13136600Y-10958994D01*
X13136600Y-10945566D01*
X13133124Y-10932595D01*
X13126410Y-10920965D01*
X13116915Y-10911470D01*
X13105285Y-10904756D01*
X13092314Y-10901280D01*
X13078886Y-10901280D01*
X13065915Y-10904756D01*
X13054285Y-10911470D01*
X13044790Y-10920965D01*
X13038075Y-10932595D01*
X13034600Y-10945566D01*
X6716473Y-10945566D01*
X6608316Y-10897496D01*
X12985600Y-10897496D01*
X12985600Y-10902280D01*
X13035600Y-10902280D01*
X13035600Y-10852280D01*
X13030818Y-10852280D01*
X13030817Y-10852280D01*
X13024862Y-10852920D01*
X13011391Y-10857945D01*
X12999881Y-10866561D01*
X12991265Y-10878071D01*
X12986240Y-10891543D01*
X12985600Y-10897496D01*
X6608316Y-10897496D01*
X6172735Y-10703904D01*
X6172735Y-10703904D01*
X6172735Y-10703904D01*
X6172051Y-10703600D01*
X6171407Y-10703292D01*
X6149328Y-10691913D01*
X6148098Y-10691186D01*
X6127769Y-10677542D01*
X6126631Y-10676679D01*
X6109579Y-10662130D01*
X6108006Y-10660788D01*
X6106976Y-10659800D01*
X6093901Y-10645743D01*
X6090302Y-10641873D01*
X6089392Y-10640773D01*
X6076324Y-10622997D01*
X6074891Y-10621047D01*
X6074113Y-10619850D01*
X6065497Y-10604756D01*
X6061976Y-10598586D01*
X6061342Y-10597310D01*
X6051730Y-10574791D01*
X6051247Y-10573448D01*
X6050466Y-10570815D01*
X6044289Y-10549974D01*
X6043963Y-10548584D01*
X6043953Y-10548528D01*
X6039751Y-10524467D01*
X6039587Y-10523049D01*
X6038156Y-10498250D01*
X6038135Y-10497536D01*
X6038135Y-10381602D01*
X6040104Y-10374898D01*
X6045384Y-10370323D01*
X6052300Y-10369328D01*
X6058656Y-10372231D01*
X6062433Y-10378109D01*
X6062625Y-10378843D01*
X6065499Y-10391436D01*
X6065499Y-10391436D01*
X6076073Y-10421656D01*
X6089964Y-10450501D01*
X6089964Y-10450501D01*
X6106998Y-10477610D01*
X6126960Y-10502641D01*
X6149599Y-10525280D01*
X6174630Y-10545242D01*
X6201739Y-10562276D01*
X6230584Y-10576167D01*
X6260804Y-10586741D01*
X6292017Y-10593865D01*
X6323831Y-10597450D01*
X6323832Y-10597450D01*
X6323832Y-10597450D01*
X6355848Y-10597450D01*
X6355848Y-10597450D01*
X6387663Y-10593865D01*
X6418876Y-10586741D01*
X6449096Y-10576167D01*
X6472580Y-10564857D01*
X6788013Y-10564857D01*
X6796182Y-10567511D01*
X6813283Y-10570220D01*
X6830597Y-10570220D01*
X6847698Y-10567511D01*
X6847698Y-10567511D01*
X6855866Y-10564857D01*
X6855867Y-10564857D01*
X6821940Y-10530931D01*
X6821940Y-10530931D01*
X6788013Y-10564857D01*
X6472580Y-10564857D01*
X6477941Y-10562276D01*
X6505050Y-10545242D01*
X6530081Y-10525280D01*
X6552720Y-10502641D01*
X6572682Y-10477610D01*
X6589048Y-10451563D01*
X6711940Y-10451563D01*
X6711940Y-10468877D01*
X6714649Y-10485979D01*
X6714649Y-10485979D01*
X6717302Y-10494147D01*
X6717303Y-10494147D01*
X6751229Y-10460220D01*
X6744647Y-10453637D01*
X6771940Y-10453637D01*
X6771940Y-10466803D01*
X6775347Y-10479519D01*
X6781930Y-10490921D01*
X6791239Y-10500230D01*
X6802641Y-10506813D01*
X6815357Y-10510220D01*
X6828523Y-10510220D01*
X6841239Y-10506813D01*
X6852641Y-10500230D01*
X6861950Y-10490921D01*
X6868532Y-10479519D01*
X6871940Y-10466803D01*
X6871940Y-10453637D01*
X6868532Y-10440921D01*
X6861950Y-10429519D01*
X6852641Y-10420210D01*
X6841239Y-10413628D01*
X6828523Y-10410220D01*
X6815357Y-10410220D01*
X6802641Y-10413628D01*
X6791239Y-10420210D01*
X6781930Y-10429519D01*
X6775347Y-10440921D01*
X6771940Y-10453637D01*
X6744647Y-10453637D01*
X6717303Y-10426293D01*
X6717302Y-10426293D01*
X6714649Y-10434461D01*
X6711940Y-10451563D01*
X6589048Y-10451563D01*
X6589715Y-10450501D01*
X6589716Y-10450501D01*
X6592030Y-10445696D01*
X6592030Y-10445695D01*
X6592162Y-10445421D01*
X6603607Y-10421656D01*
X6614181Y-10391436D01*
X6621305Y-10360223D01*
X6624890Y-10328408D01*
X6624890Y-10296392D01*
X6621305Y-10264577D01*
X6614181Y-10233364D01*
X6603607Y-10203144D01*
X6589715Y-10174299D01*
X6572682Y-10147190D01*
X6552720Y-10122159D01*
X6530081Y-10099520D01*
X6505050Y-10079558D01*
X6477941Y-10062525D01*
X6477941Y-10062524D01*
X6452412Y-10050230D01*
X6447226Y-10045548D01*
X6445395Y-10038805D01*
X6447500Y-10032143D01*
X6452872Y-10027676D01*
X6457792Y-10026658D01*
X12012699Y-10026658D01*
X12019403Y-10028627D01*
G37*
%TD.AperFunction*%
%TD*%
M02*
