%TF.GenerationSoftware,KiCad,Pcbnew,10.0.0*%
%TF.CreationDate,2026-04-24T12:00:35-06:00*%
%TF.ProjectId,pi-zero-interconnect,70692d7a-6572-46f2-9d69-6e746572636f,rev?*%
%TF.SameCoordinates,Original*%
%TF.FileFunction,AssemblyDrawing,Bot*%
%FSLAX45Y45*%
G04 Gerber Fmt 4.5, Leading zero omitted, Abs format (unit mm)*
G04 Created by KiCad (PCBNEW 10.0.0) date 2026-04-24 12:00:35*
%MOMM*%
%LPD*%
G01*
G04 APERTURE LIST*
%ADD10C,0.150000*%
%ADD11C,0.100000*%
G04 APERTURE END LIST*
D10*
X9268273Y-10278702D02*
X9268273Y-10350130D01*
X9268273Y-10350130D02*
X9273035Y-10364416D01*
X9273035Y-10364416D02*
X9282559Y-10373940D01*
X9282559Y-10373940D02*
X9296845Y-10378702D01*
X9296845Y-10378702D02*
X9306369Y-10378702D01*
X9168273Y-10378702D02*
X9225416Y-10378702D01*
X9196845Y-10378702D02*
X9196845Y-10278702D01*
X9196845Y-10278702D02*
X9206369Y-10292988D01*
X9206369Y-10292988D02*
X9215892Y-10302511D01*
X9215892Y-10302511D02*
X9225416Y-10307273D01*
X13968933Y-10427762D02*
X13968933Y-10327762D01*
X13968933Y-10327762D02*
X13930838Y-10327762D01*
X13930838Y-10327762D02*
X13921314Y-10332524D01*
X13921314Y-10332524D02*
X13916552Y-10337286D01*
X13916552Y-10337286D02*
X13911790Y-10346810D01*
X13911790Y-10346810D02*
X13911790Y-10361095D01*
X13911790Y-10361095D02*
X13916552Y-10370619D01*
X13916552Y-10370619D02*
X13921314Y-10375381D01*
X13921314Y-10375381D02*
X13930838Y-10380143D01*
X13930838Y-10380143D02*
X13968933Y-10380143D01*
X13868933Y-10427762D02*
X13868933Y-10327762D01*
X13754647Y-10327762D02*
X13687981Y-10327762D01*
X13687981Y-10327762D02*
X13754647Y-10427762D01*
X13754647Y-10427762D02*
X13687981Y-10427762D01*
X13649886Y-10375381D02*
X13616552Y-10375381D01*
X13602267Y-10427762D02*
X13649886Y-10427762D01*
X13649886Y-10427762D02*
X13649886Y-10327762D01*
X13649886Y-10327762D02*
X13602267Y-10327762D01*
X13502267Y-10427762D02*
X13535600Y-10380143D01*
X13559409Y-10427762D02*
X13559409Y-10327762D01*
X13559409Y-10327762D02*
X13521314Y-10327762D01*
X13521314Y-10327762D02*
X13511790Y-10332524D01*
X13511790Y-10332524D02*
X13507028Y-10337286D01*
X13507028Y-10337286D02*
X13502267Y-10346810D01*
X13502267Y-10346810D02*
X13502267Y-10361095D01*
X13502267Y-10361095D02*
X13507028Y-10370619D01*
X13507028Y-10370619D02*
X13511790Y-10375381D01*
X13511790Y-10375381D02*
X13521314Y-10380143D01*
X13521314Y-10380143D02*
X13559409Y-10380143D01*
X13440362Y-10327762D02*
X13421314Y-10327762D01*
X13421314Y-10327762D02*
X13411790Y-10332524D01*
X13411790Y-10332524D02*
X13402267Y-10342048D01*
X13402267Y-10342048D02*
X13397505Y-10361095D01*
X13397505Y-10361095D02*
X13397505Y-10394429D01*
X13397505Y-10394429D02*
X13402267Y-10413476D01*
X13402267Y-10413476D02*
X13411790Y-10423000D01*
X13411790Y-10423000D02*
X13421314Y-10427762D01*
X13421314Y-10427762D02*
X13440362Y-10427762D01*
X13440362Y-10427762D02*
X13449886Y-10423000D01*
X13449886Y-10423000D02*
X13459409Y-10413476D01*
X13459409Y-10413476D02*
X13464171Y-10394429D01*
X13464171Y-10394429D02*
X13464171Y-10361095D01*
X13464171Y-10361095D02*
X13459409Y-10342048D01*
X13459409Y-10342048D02*
X13449886Y-10332524D01*
X13449886Y-10332524D02*
X13440362Y-10327762D01*
X13718933Y-11719762D02*
X13718933Y-11791190D01*
X13718933Y-11791190D02*
X13723695Y-11805476D01*
X13723695Y-11805476D02*
X13733219Y-11815000D01*
X13733219Y-11815000D02*
X13747505Y-11819762D01*
X13747505Y-11819762D02*
X13757028Y-11819762D01*
X13676076Y-11729286D02*
X13671314Y-11724524D01*
X13671314Y-11724524D02*
X13661790Y-11719762D01*
X13661790Y-11719762D02*
X13637981Y-11719762D01*
X13637981Y-11719762D02*
X13628457Y-11724524D01*
X13628457Y-11724524D02*
X13623695Y-11729286D01*
X13623695Y-11729286D02*
X13618933Y-11738809D01*
X13618933Y-11738809D02*
X13618933Y-11748333D01*
X13618933Y-11748333D02*
X13623695Y-11762619D01*
X13623695Y-11762619D02*
X13680838Y-11819762D01*
X13680838Y-11819762D02*
X13618933Y-11819762D01*
%TO.C,J1*%
D11*
X6694940Y-10079220D02*
X6694940Y-10587220D01*
X6694940Y-10587220D02*
X11647940Y-10587220D01*
X11647940Y-10587220D02*
X11774940Y-10460220D01*
X11774940Y-10079220D02*
X6694940Y-10079220D01*
X11774940Y-10460220D02*
X11774940Y-10079220D01*
%TO.C,J2*%
X12728100Y-10853280D02*
X12728100Y-11744280D01*
X12728100Y-11744280D02*
X12828100Y-11844280D01*
X12828100Y-11844280D02*
X14543100Y-11844280D01*
X13010600Y-10853280D02*
X13085600Y-10952280D01*
X13085600Y-10952280D02*
X13160600Y-10853280D01*
X14543100Y-11844280D02*
X14643100Y-11744280D01*
X14643100Y-10853280D02*
X12728100Y-10853280D01*
X14643100Y-11744280D02*
X14643100Y-10853280D01*
%TD*%
M02*
