%TF.GenerationSoftware,KiCad,Pcbnew,10.0.0*%
%TF.CreationDate,2026-04-24T12:00:35-06:00*%
%TF.ProjectId,pi-zero-interconnect,70692d7a-6572-46f2-9d69-6e746572636f,rev?*%
%TF.SameCoordinates,Original*%
%TF.FileFunction,Legend,Bot*%
%TF.FilePolarity,Positive*%
%FSLAX45Y45*%
G04 Gerber Fmt 4.5, Leading zero omitted, Abs format (unit mm)*
G04 Created by KiCad (PCBNEW 10.0.0) date 2026-04-24 12:00:35*
%MOMM*%
%LPD*%
G01*
G04 APERTURE LIST*
%ADD10C,0.150000*%
%ADD11C,0.120000*%
G04 APERTURE END LIST*
D10*
X11831422Y-10299887D02*
X11902850Y-10299887D01*
X11902850Y-10299887D02*
X11917136Y-10295125D01*
X11917136Y-10295125D02*
X11926660Y-10285601D01*
X11926660Y-10285601D02*
X11931422Y-10271315D01*
X11931422Y-10271315D02*
X11931422Y-10261791D01*
X11931422Y-10399887D02*
X11931422Y-10342744D01*
X11931422Y-10371315D02*
X11831422Y-10371315D01*
X11831422Y-10371315D02*
X11845708Y-10361791D01*
X11845708Y-10361791D02*
X11855231Y-10352268D01*
X11855231Y-10352268D02*
X11859993Y-10342744D01*
X12641893Y-10867482D02*
X12641893Y-10938910D01*
X12641893Y-10938910D02*
X12646655Y-10953196D01*
X12646655Y-10953196D02*
X12656179Y-10962720D01*
X12656179Y-10962720D02*
X12670465Y-10967482D01*
X12670465Y-10967482D02*
X12679988Y-10967482D01*
X12599036Y-10877006D02*
X12594274Y-10872244D01*
X12594274Y-10872244D02*
X12584750Y-10867482D01*
X12584750Y-10867482D02*
X12560941Y-10867482D01*
X12560941Y-10867482D02*
X12551417Y-10872244D01*
X12551417Y-10872244D02*
X12546655Y-10877006D01*
X12546655Y-10877006D02*
X12541893Y-10886530D01*
X12541893Y-10886530D02*
X12541893Y-10896053D01*
X12541893Y-10896053D02*
X12546655Y-10910339D01*
X12546655Y-10910339D02*
X12603798Y-10967482D01*
X12603798Y-10967482D02*
X12541893Y-10967482D01*
%TO.C,J1*%
D11*
X6683940Y-10598220D02*
X6683940Y-10068220D01*
X11520940Y-10333220D02*
X11785940Y-10333220D01*
X11520940Y-10598220D02*
X6683940Y-10598220D01*
X11520940Y-10598220D02*
X11520940Y-10333220D01*
X11647940Y-10598220D02*
X11785940Y-10598220D01*
X11785940Y-10068220D02*
X6683940Y-10068220D01*
X11785940Y-10333220D02*
X11785940Y-10068220D01*
X11785940Y-10598220D02*
X11785940Y-10460220D01*
%TO.C,J2*%
X12717100Y-10842280D02*
X12717100Y-11755280D01*
X12717100Y-11755280D02*
X12817100Y-11855280D01*
X12817100Y-11855280D02*
X14554100Y-11855280D01*
X14554100Y-11855280D02*
X14654100Y-11755280D01*
X14654100Y-10842280D02*
X12717100Y-10842280D01*
X14654100Y-11755280D02*
X14654100Y-10842280D01*
%TD*%
M02*
