M48
; DRILL file KiCad 10.0.0 date 2026-04-24T12:00:35
; FORMAT={-:-/ absolute / metric / decimal}
; #@! TF.CreationDate,2026-04-24T12:00:35-06:00
; #@! TF.GenerationSoftware,Kicad,Pcbnew,10.0.0
; #@! TF.FileFunction,MixedPlating,1,2
FMAT,2
METRIC
; #@! TA.AperFunction,Plated,PTH,ComponentDrill
T1C1.000
; #@! TA.AperFunction,Plated,PTH,ComponentDrill
T2C1.020
; #@! TA.AperFunction,Plated,PTH,ComponentDrill
T3C2.700
; #@! TA.AperFunction,NonPlated,NPTH,ComponentDrill
T4C3.000
%
G90
G05
T1
X68.219Y-102.062
X68.219Y-104.602
X70.759Y-102.062
X70.759Y-104.602
X73.299Y-102.062
X73.299Y-104.602
X75.839Y-102.062
X75.839Y-104.602
X78.379Y-102.062
X78.379Y-104.602
X80.919Y-102.062
X80.919Y-104.602
X83.459Y-102.062
X83.459Y-104.602
X85.999Y-102.062
X85.999Y-104.602
X88.539Y-102.062
X88.539Y-104.602
X91.079Y-102.062
X91.079Y-104.602
X93.619Y-102.062
X93.619Y-104.602
X96.159Y-102.062
X96.159Y-104.602
X98.699Y-102.062
X98.699Y-104.602
X101.239Y-102.062
X101.239Y-104.602
X103.779Y-102.062
X103.779Y-104.602
X106.319Y-102.062
X106.319Y-104.602
X108.859Y-102.062
X108.859Y-104.602
X111.399Y-102.062
X111.399Y-104.602
X113.939Y-102.062
X113.939Y-104.602
X116.479Y-102.062
X116.479Y-104.602
T2
X130.856Y-106.523
X130.856Y-109.523
X133.856Y-106.523
X133.856Y-109.523
X136.856Y-106.523
X136.856Y-109.523
X139.856Y-106.523
X139.856Y-109.523
X142.856Y-106.523
X142.856Y-109.523
T3
X63.398Y-103.124
X121.412Y-103.073
T4
X133.016Y-113.843
X140.716Y-113.843
M30
