%TF.GenerationSoftware,KiCad,Pcbnew,10.0.0*%
%TF.CreationDate,2026-04-24T12:00:35-06:00*%
%TF.ProjectId,pi-zero-interconnect,70692d7a-6572-46f2-9d69-6e746572636f,rev?*%
%TF.SameCoordinates,Original*%
%TF.FileFunction,Drillmap*%
%TF.FilePolarity,Positive*%
%FSLAX45Y45*%
G04 Gerber Fmt 4.5, Leading zero omitted, Abs format (unit mm)*
G04 Created by KiCad (PCBNEW 10.0.0) date 2026-04-24 12:00:35*
%MOMM*%
%LPD*%
G01*
G04 APERTURE LIST*
%ADD10C,0.500000*%
%ADD11C,0.200000*%
%ADD12C,0.100000*%
%ADD13C,0.102000*%
%ADD14C,0.270000*%
%ADD15C,0.300000*%
G04 APERTURE END LIST*
D10*
X5988085Y-10251608D02*
X5988085Y-10497893D01*
X5988085Y-10251608D02*
G75*
G02*
X6263085Y-9976606I275005J-2D01*
G01*
X6151397Y-10749191D02*
G75*
G02*
X5988085Y-10497893I111693J251301D01*
G01*
X6263085Y-9976608D02*
X14413085Y-9976608D01*
X6473085Y-10326608D02*
G75*
G02*
X6203085Y-10326608I-135000J0D01*
G01*
X6203085Y-10326608D02*
G75*
G02*
X6473085Y-10326608I135000J0D01*
G01*
X8184756Y-11652906D02*
X6151397Y-10749191D01*
X8296444Y-11676608D02*
G75*
G02*
X8184757Y-11652905I-5J274958D01*
G01*
X8296444Y-11676608D02*
X14688085Y-11676608D01*
X12273085Y-10326608D02*
G75*
G02*
X12003085Y-10326608I-135000J0D01*
G01*
X12003085Y-10326608D02*
G75*
G02*
X12273085Y-10326608I135000J0D01*
G01*
X14413085Y-9976608D02*
G75*
G02*
X14688082Y-10251608I5J-274992D01*
G01*
X14688085Y-11676608D02*
X14688085Y-10251608D01*
D11*
D12*
X6771940Y-10156220D02*
X6871940Y-10256220D01*
X6871940Y-10156220D02*
X6771940Y-10256220D01*
X6771940Y-10410220D02*
X6871940Y-10510220D01*
X6871940Y-10410220D02*
X6771940Y-10510220D01*
X7025940Y-10156220D02*
X7125940Y-10256220D01*
X7125940Y-10156220D02*
X7025940Y-10256220D01*
X7025940Y-10410220D02*
X7125940Y-10510220D01*
X7125940Y-10410220D02*
X7025940Y-10510220D01*
X7279940Y-10156220D02*
X7379940Y-10256220D01*
X7379940Y-10156220D02*
X7279940Y-10256220D01*
X7279940Y-10410220D02*
X7379940Y-10510220D01*
X7379940Y-10410220D02*
X7279940Y-10510220D01*
X7533940Y-10156220D02*
X7633940Y-10256220D01*
X7633940Y-10156220D02*
X7533940Y-10256220D01*
X7533940Y-10410220D02*
X7633940Y-10510220D01*
X7633940Y-10410220D02*
X7533940Y-10510220D01*
X7787940Y-10156220D02*
X7887940Y-10256220D01*
X7887940Y-10156220D02*
X7787940Y-10256220D01*
X7787940Y-10410220D02*
X7887940Y-10510220D01*
X7887940Y-10410220D02*
X7787940Y-10510220D01*
X8041940Y-10156220D02*
X8141940Y-10256220D01*
X8141940Y-10156220D02*
X8041940Y-10256220D01*
X8041940Y-10410220D02*
X8141940Y-10510220D01*
X8141940Y-10410220D02*
X8041940Y-10510220D01*
X8295940Y-10156220D02*
X8395940Y-10256220D01*
X8395940Y-10156220D02*
X8295940Y-10256220D01*
X8295940Y-10410220D02*
X8395940Y-10510220D01*
X8395940Y-10410220D02*
X8295940Y-10510220D01*
X8549940Y-10156220D02*
X8649940Y-10256220D01*
X8649940Y-10156220D02*
X8549940Y-10256220D01*
X8549940Y-10410220D02*
X8649940Y-10510220D01*
X8649940Y-10410220D02*
X8549940Y-10510220D01*
X8803940Y-10156220D02*
X8903940Y-10256220D01*
X8903940Y-10156220D02*
X8803940Y-10256220D01*
X8803940Y-10410220D02*
X8903940Y-10510220D01*
X8903940Y-10410220D02*
X8803940Y-10510220D01*
X9057940Y-10156220D02*
X9157940Y-10256220D01*
X9157940Y-10156220D02*
X9057940Y-10256220D01*
X9057940Y-10410220D02*
X9157940Y-10510220D01*
X9157940Y-10410220D02*
X9057940Y-10510220D01*
X9311940Y-10156220D02*
X9411940Y-10256220D01*
X9411940Y-10156220D02*
X9311940Y-10256220D01*
X9311940Y-10410220D02*
X9411940Y-10510220D01*
X9411940Y-10410220D02*
X9311940Y-10510220D01*
X9565940Y-10156220D02*
X9665940Y-10256220D01*
X9665940Y-10156220D02*
X9565940Y-10256220D01*
X9565940Y-10410220D02*
X9665940Y-10510220D01*
X9665940Y-10410220D02*
X9565940Y-10510220D01*
X9819940Y-10156220D02*
X9919940Y-10256220D01*
X9919940Y-10156220D02*
X9819940Y-10256220D01*
X9819940Y-10410220D02*
X9919940Y-10510220D01*
X9919940Y-10410220D02*
X9819940Y-10510220D01*
X10073940Y-10156220D02*
X10173940Y-10256220D01*
X10173940Y-10156220D02*
X10073940Y-10256220D01*
X10073940Y-10410220D02*
X10173940Y-10510220D01*
X10173940Y-10410220D02*
X10073940Y-10510220D01*
X10327940Y-10156220D02*
X10427940Y-10256220D01*
X10427940Y-10156220D02*
X10327940Y-10256220D01*
X10327940Y-10410220D02*
X10427940Y-10510220D01*
X10427940Y-10410220D02*
X10327940Y-10510220D01*
X10581940Y-10156220D02*
X10681940Y-10256220D01*
X10681940Y-10156220D02*
X10581940Y-10256220D01*
X10581940Y-10410220D02*
X10681940Y-10510220D01*
X10681940Y-10410220D02*
X10581940Y-10510220D01*
X10835940Y-10156220D02*
X10935940Y-10256220D01*
X10935940Y-10156220D02*
X10835940Y-10256220D01*
X10835940Y-10410220D02*
X10935940Y-10510220D01*
X10935940Y-10410220D02*
X10835940Y-10510220D01*
X11089940Y-10156220D02*
X11189940Y-10256220D01*
X11189940Y-10156220D02*
X11089940Y-10256220D01*
X11089940Y-10410220D02*
X11189940Y-10510220D01*
X11189940Y-10410220D02*
X11089940Y-10510220D01*
X11343940Y-10156220D02*
X11443940Y-10256220D01*
X11443940Y-10156220D02*
X11343940Y-10256220D01*
X11343940Y-10410220D02*
X11443940Y-10510220D01*
X11443940Y-10410220D02*
X11343940Y-10510220D01*
X11597940Y-10156220D02*
X11697940Y-10256220D01*
X11697940Y-10156220D02*
X11597940Y-10256220D01*
X11597940Y-10410220D02*
X11697940Y-10510220D01*
X11697940Y-10410220D02*
X11597940Y-10510220D01*
D13*
X13136600Y-10652280D02*
G75*
G02*
X13034600Y-10652280I-51000J0D01*
G01*
X13034600Y-10652280D02*
G75*
G02*
X13136600Y-10652280I51000J0D01*
G01*
X13136600Y-10952280D02*
G75*
G02*
X13034600Y-10952280I-51000J0D01*
G01*
X13034600Y-10952280D02*
G75*
G02*
X13136600Y-10952280I51000J0D01*
G01*
X13436600Y-10652280D02*
G75*
G02*
X13334600Y-10652280I-51000J0D01*
G01*
X13334600Y-10652280D02*
G75*
G02*
X13436600Y-10652280I51000J0D01*
G01*
X13436600Y-10952280D02*
G75*
G02*
X13334600Y-10952280I-51000J0D01*
G01*
X13334600Y-10952280D02*
G75*
G02*
X13436600Y-10952280I51000J0D01*
G01*
X13736600Y-10652280D02*
G75*
G02*
X13634600Y-10652280I-51000J0D01*
G01*
X13634600Y-10652280D02*
G75*
G02*
X13736600Y-10652280I51000J0D01*
G01*
X13736600Y-10952280D02*
G75*
G02*
X13634600Y-10952280I-51000J0D01*
G01*
X13634600Y-10952280D02*
G75*
G02*
X13736600Y-10952280I51000J0D01*
G01*
X14036600Y-10652280D02*
G75*
G02*
X13934600Y-10652280I-51000J0D01*
G01*
X13934600Y-10652280D02*
G75*
G02*
X14036600Y-10652280I51000J0D01*
G01*
X14036600Y-10952280D02*
G75*
G02*
X13934600Y-10952280I-51000J0D01*
G01*
X13934600Y-10952280D02*
G75*
G02*
X14036600Y-10952280I51000J0D01*
G01*
X14336600Y-10652280D02*
G75*
G02*
X14234600Y-10652280I-51000J0D01*
G01*
X14234600Y-10652280D02*
G75*
G02*
X14336600Y-10652280I51000J0D01*
G01*
X14336600Y-10952280D02*
G75*
G02*
X14234600Y-10952280I-51000J0D01*
G01*
X14234600Y-10952280D02*
G75*
G02*
X14336600Y-10952280I51000J0D01*
G01*
D14*
X6339840Y-10177400D02*
X6339840Y-10447400D01*
X6204840Y-10312400D02*
X6474840Y-10312400D01*
X12141200Y-10172320D02*
X12141200Y-10442320D01*
X12006200Y-10307320D02*
X12276200Y-10307320D01*
D15*
X13407667Y-11490347D02*
X13407667Y-11278213D01*
X13195533Y-11278213D01*
X13195533Y-11490347D01*
X13407667Y-11490347D01*
X14177667Y-11490347D02*
X14177667Y-11278213D01*
X13965533Y-11278213D01*
X13965533Y-11490347D01*
X14177667Y-11490347D01*
D11*
X6223862Y-12013092D02*
X6223862Y-11813092D01*
X6223862Y-11813092D02*
X6271481Y-11813092D01*
X6271481Y-11813092D02*
X6300053Y-11822616D01*
X6300053Y-11822616D02*
X6319100Y-11841663D01*
X6319100Y-11841663D02*
X6328624Y-11860711D01*
X6328624Y-11860711D02*
X6338148Y-11898806D01*
X6338148Y-11898806D02*
X6338148Y-11927378D01*
X6338148Y-11927378D02*
X6328624Y-11965473D01*
X6328624Y-11965473D02*
X6319100Y-11984521D01*
X6319100Y-11984521D02*
X6300053Y-12003568D01*
X6300053Y-12003568D02*
X6271481Y-12013092D01*
X6271481Y-12013092D02*
X6223862Y-12013092D01*
X6423862Y-12013092D02*
X6423862Y-11879759D01*
X6423862Y-11917854D02*
X6433386Y-11898806D01*
X6433386Y-11898806D02*
X6442910Y-11889282D01*
X6442910Y-11889282D02*
X6461957Y-11879759D01*
X6461957Y-11879759D02*
X6481005Y-11879759D01*
X6547672Y-12013092D02*
X6547672Y-11879759D01*
X6547672Y-11813092D02*
X6538148Y-11822616D01*
X6538148Y-11822616D02*
X6547672Y-11832140D01*
X6547672Y-11832140D02*
X6557196Y-11822616D01*
X6557196Y-11822616D02*
X6547672Y-11813092D01*
X6547672Y-11813092D02*
X6547672Y-11832140D01*
X6671481Y-12013092D02*
X6652434Y-12003568D01*
X6652434Y-12003568D02*
X6642910Y-11984521D01*
X6642910Y-11984521D02*
X6642910Y-11813092D01*
X6776243Y-12013092D02*
X6757196Y-12003568D01*
X6757196Y-12003568D02*
X6747672Y-11984521D01*
X6747672Y-11984521D02*
X6747672Y-11813092D01*
X7004815Y-12013092D02*
X7004815Y-11813092D01*
X7004815Y-11813092D02*
X7071481Y-11955949D01*
X7071481Y-11955949D02*
X7138148Y-11813092D01*
X7138148Y-11813092D02*
X7138148Y-12013092D01*
X7319100Y-12013092D02*
X7319100Y-11908330D01*
X7319100Y-11908330D02*
X7309577Y-11889282D01*
X7309577Y-11889282D02*
X7290529Y-11879759D01*
X7290529Y-11879759D02*
X7252434Y-11879759D01*
X7252434Y-11879759D02*
X7233386Y-11889282D01*
X7319100Y-12003568D02*
X7300053Y-12013092D01*
X7300053Y-12013092D02*
X7252434Y-12013092D01*
X7252434Y-12013092D02*
X7233386Y-12003568D01*
X7233386Y-12003568D02*
X7223862Y-11984521D01*
X7223862Y-11984521D02*
X7223862Y-11965473D01*
X7223862Y-11965473D02*
X7233386Y-11946425D01*
X7233386Y-11946425D02*
X7252434Y-11936902D01*
X7252434Y-11936902D02*
X7300053Y-11936902D01*
X7300053Y-11936902D02*
X7319100Y-11927378D01*
X7414338Y-11879759D02*
X7414338Y-12079759D01*
X7414338Y-11889282D02*
X7433386Y-11879759D01*
X7433386Y-11879759D02*
X7471481Y-11879759D01*
X7471481Y-11879759D02*
X7490529Y-11889282D01*
X7490529Y-11889282D02*
X7500053Y-11898806D01*
X7500053Y-11898806D02*
X7509577Y-11917854D01*
X7509577Y-11917854D02*
X7509577Y-11974997D01*
X7509577Y-11974997D02*
X7500053Y-11994044D01*
X7500053Y-11994044D02*
X7490529Y-12003568D01*
X7490529Y-12003568D02*
X7471481Y-12013092D01*
X7471481Y-12013092D02*
X7433386Y-12013092D01*
X7433386Y-12013092D02*
X7414338Y-12003568D01*
X7595291Y-11994044D02*
X7604815Y-12003568D01*
X7604815Y-12003568D02*
X7595291Y-12013092D01*
X7595291Y-12013092D02*
X7585767Y-12003568D01*
X7585767Y-12003568D02*
X7595291Y-11994044D01*
X7595291Y-11994044D02*
X7595291Y-12013092D01*
X7595291Y-11889282D02*
X7604815Y-11898806D01*
X7604815Y-11898806D02*
X7595291Y-11908330D01*
X7595291Y-11908330D02*
X7585767Y-11898806D01*
X7585767Y-11898806D02*
X7595291Y-11889282D01*
X7595291Y-11889282D02*
X7595291Y-11908330D01*
D12*
X5863085Y-12291608D02*
X5963085Y-12391608D01*
X5963085Y-12291608D02*
X5863085Y-12391608D01*
D11*
X6328624Y-12433092D02*
X6214338Y-12433092D01*
X6271481Y-12433092D02*
X6271481Y-12233092D01*
X6271481Y-12233092D02*
X6252434Y-12261663D01*
X6252434Y-12261663D02*
X6233386Y-12280711D01*
X6233386Y-12280711D02*
X6214338Y-12290235D01*
X6414338Y-12414044D02*
X6423862Y-12423568D01*
X6423862Y-12423568D02*
X6414338Y-12433092D01*
X6414338Y-12433092D02*
X6404815Y-12423568D01*
X6404815Y-12423568D02*
X6414338Y-12414044D01*
X6414338Y-12414044D02*
X6414338Y-12433092D01*
X6547672Y-12233092D02*
X6566719Y-12233092D01*
X6566719Y-12233092D02*
X6585767Y-12242616D01*
X6585767Y-12242616D02*
X6595291Y-12252140D01*
X6595291Y-12252140D02*
X6604815Y-12271187D01*
X6604815Y-12271187D02*
X6614338Y-12309282D01*
X6614338Y-12309282D02*
X6614338Y-12356902D01*
X6614338Y-12356902D02*
X6604815Y-12394997D01*
X6604815Y-12394997D02*
X6595291Y-12414044D01*
X6595291Y-12414044D02*
X6585767Y-12423568D01*
X6585767Y-12423568D02*
X6566719Y-12433092D01*
X6566719Y-12433092D02*
X6547672Y-12433092D01*
X6547672Y-12433092D02*
X6528624Y-12423568D01*
X6528624Y-12423568D02*
X6519100Y-12414044D01*
X6519100Y-12414044D02*
X6509577Y-12394997D01*
X6509577Y-12394997D02*
X6500053Y-12356902D01*
X6500053Y-12356902D02*
X6500053Y-12309282D01*
X6500053Y-12309282D02*
X6509577Y-12271187D01*
X6509577Y-12271187D02*
X6519100Y-12252140D01*
X6519100Y-12252140D02*
X6528624Y-12242616D01*
X6528624Y-12242616D02*
X6547672Y-12233092D01*
X6738148Y-12233092D02*
X6757196Y-12233092D01*
X6757196Y-12233092D02*
X6776243Y-12242616D01*
X6776243Y-12242616D02*
X6785767Y-12252140D01*
X6785767Y-12252140D02*
X6795291Y-12271187D01*
X6795291Y-12271187D02*
X6804815Y-12309282D01*
X6804815Y-12309282D02*
X6804815Y-12356902D01*
X6804815Y-12356902D02*
X6795291Y-12394997D01*
X6795291Y-12394997D02*
X6785767Y-12414044D01*
X6785767Y-12414044D02*
X6776243Y-12423568D01*
X6776243Y-12423568D02*
X6757196Y-12433092D01*
X6757196Y-12433092D02*
X6738148Y-12433092D01*
X6738148Y-12433092D02*
X6719100Y-12423568D01*
X6719100Y-12423568D02*
X6709577Y-12414044D01*
X6709577Y-12414044D02*
X6700053Y-12394997D01*
X6700053Y-12394997D02*
X6690529Y-12356902D01*
X6690529Y-12356902D02*
X6690529Y-12309282D01*
X6690529Y-12309282D02*
X6700053Y-12271187D01*
X6700053Y-12271187D02*
X6709577Y-12252140D01*
X6709577Y-12252140D02*
X6719100Y-12242616D01*
X6719100Y-12242616D02*
X6738148Y-12233092D01*
X6928624Y-12233092D02*
X6947672Y-12233092D01*
X6947672Y-12233092D02*
X6966719Y-12242616D01*
X6966719Y-12242616D02*
X6976243Y-12252140D01*
X6976243Y-12252140D02*
X6985767Y-12271187D01*
X6985767Y-12271187D02*
X6995291Y-12309282D01*
X6995291Y-12309282D02*
X6995291Y-12356902D01*
X6995291Y-12356902D02*
X6985767Y-12394997D01*
X6985767Y-12394997D02*
X6976243Y-12414044D01*
X6976243Y-12414044D02*
X6966719Y-12423568D01*
X6966719Y-12423568D02*
X6947672Y-12433092D01*
X6947672Y-12433092D02*
X6928624Y-12433092D01*
X6928624Y-12433092D02*
X6909577Y-12423568D01*
X6909577Y-12423568D02*
X6900053Y-12414044D01*
X6900053Y-12414044D02*
X6890529Y-12394997D01*
X6890529Y-12394997D02*
X6881005Y-12356902D01*
X6881005Y-12356902D02*
X6881005Y-12309282D01*
X6881005Y-12309282D02*
X6890529Y-12271187D01*
X6890529Y-12271187D02*
X6900053Y-12252140D01*
X6900053Y-12252140D02*
X6909577Y-12242616D01*
X6909577Y-12242616D02*
X6928624Y-12233092D01*
X7081005Y-12433092D02*
X7081005Y-12299759D01*
X7081005Y-12318806D02*
X7090529Y-12309282D01*
X7090529Y-12309282D02*
X7109577Y-12299759D01*
X7109577Y-12299759D02*
X7138148Y-12299759D01*
X7138148Y-12299759D02*
X7157196Y-12309282D01*
X7157196Y-12309282D02*
X7166719Y-12328330D01*
X7166719Y-12328330D02*
X7166719Y-12433092D01*
X7166719Y-12328330D02*
X7176243Y-12309282D01*
X7176243Y-12309282D02*
X7195291Y-12299759D01*
X7195291Y-12299759D02*
X7223862Y-12299759D01*
X7223862Y-12299759D02*
X7242910Y-12309282D01*
X7242910Y-12309282D02*
X7252434Y-12328330D01*
X7252434Y-12328330D02*
X7252434Y-12433092D01*
X7347672Y-12433092D02*
X7347672Y-12299759D01*
X7347672Y-12318806D02*
X7357196Y-12309282D01*
X7357196Y-12309282D02*
X7376243Y-12299759D01*
X7376243Y-12299759D02*
X7404815Y-12299759D01*
X7404815Y-12299759D02*
X7423862Y-12309282D01*
X7423862Y-12309282D02*
X7433386Y-12328330D01*
X7433386Y-12328330D02*
X7433386Y-12433092D01*
X7433386Y-12328330D02*
X7442910Y-12309282D01*
X7442910Y-12309282D02*
X7461958Y-12299759D01*
X7461958Y-12299759D02*
X7490529Y-12299759D01*
X7490529Y-12299759D02*
X7509577Y-12309282D01*
X7509577Y-12309282D02*
X7519100Y-12328330D01*
X7519100Y-12328330D02*
X7519100Y-12433092D01*
X7909577Y-12223568D02*
X7738148Y-12480711D01*
X8166720Y-12233092D02*
X8185767Y-12233092D01*
X8185767Y-12233092D02*
X8204815Y-12242616D01*
X8204815Y-12242616D02*
X8214339Y-12252140D01*
X8214339Y-12252140D02*
X8223862Y-12271187D01*
X8223862Y-12271187D02*
X8233386Y-12309282D01*
X8233386Y-12309282D02*
X8233386Y-12356902D01*
X8233386Y-12356902D02*
X8223862Y-12394997D01*
X8223862Y-12394997D02*
X8214339Y-12414044D01*
X8214339Y-12414044D02*
X8204815Y-12423568D01*
X8204815Y-12423568D02*
X8185767Y-12433092D01*
X8185767Y-12433092D02*
X8166720Y-12433092D01*
X8166720Y-12433092D02*
X8147672Y-12423568D01*
X8147672Y-12423568D02*
X8138148Y-12414044D01*
X8138148Y-12414044D02*
X8128624Y-12394997D01*
X8128624Y-12394997D02*
X8119101Y-12356902D01*
X8119101Y-12356902D02*
X8119101Y-12309282D01*
X8119101Y-12309282D02*
X8128624Y-12271187D01*
X8128624Y-12271187D02*
X8138148Y-12252140D01*
X8138148Y-12252140D02*
X8147672Y-12242616D01*
X8147672Y-12242616D02*
X8166720Y-12233092D01*
X8319101Y-12414044D02*
X8328624Y-12423568D01*
X8328624Y-12423568D02*
X8319101Y-12433092D01*
X8319101Y-12433092D02*
X8309577Y-12423568D01*
X8309577Y-12423568D02*
X8319101Y-12414044D01*
X8319101Y-12414044D02*
X8319101Y-12433092D01*
X8452434Y-12233092D02*
X8471482Y-12233092D01*
X8471482Y-12233092D02*
X8490529Y-12242616D01*
X8490529Y-12242616D02*
X8500053Y-12252140D01*
X8500053Y-12252140D02*
X8509577Y-12271187D01*
X8509577Y-12271187D02*
X8519101Y-12309282D01*
X8519101Y-12309282D02*
X8519101Y-12356902D01*
X8519101Y-12356902D02*
X8509577Y-12394997D01*
X8509577Y-12394997D02*
X8500053Y-12414044D01*
X8500053Y-12414044D02*
X8490529Y-12423568D01*
X8490529Y-12423568D02*
X8471482Y-12433092D01*
X8471482Y-12433092D02*
X8452434Y-12433092D01*
X8452434Y-12433092D02*
X8433386Y-12423568D01*
X8433386Y-12423568D02*
X8423863Y-12414044D01*
X8423863Y-12414044D02*
X8414339Y-12394997D01*
X8414339Y-12394997D02*
X8404815Y-12356902D01*
X8404815Y-12356902D02*
X8404815Y-12309282D01*
X8404815Y-12309282D02*
X8414339Y-12271187D01*
X8414339Y-12271187D02*
X8423863Y-12252140D01*
X8423863Y-12252140D02*
X8433386Y-12242616D01*
X8433386Y-12242616D02*
X8452434Y-12233092D01*
X8585767Y-12233092D02*
X8709577Y-12233092D01*
X8709577Y-12233092D02*
X8642910Y-12309282D01*
X8642910Y-12309282D02*
X8671482Y-12309282D01*
X8671482Y-12309282D02*
X8690529Y-12318806D01*
X8690529Y-12318806D02*
X8700053Y-12328330D01*
X8700053Y-12328330D02*
X8709577Y-12347378D01*
X8709577Y-12347378D02*
X8709577Y-12394997D01*
X8709577Y-12394997D02*
X8700053Y-12414044D01*
X8700053Y-12414044D02*
X8690529Y-12423568D01*
X8690529Y-12423568D02*
X8671482Y-12433092D01*
X8671482Y-12433092D02*
X8614339Y-12433092D01*
X8614339Y-12433092D02*
X8595291Y-12423568D01*
X8595291Y-12423568D02*
X8585767Y-12414044D01*
X8804815Y-12433092D02*
X8842910Y-12433092D01*
X8842910Y-12433092D02*
X8861958Y-12423568D01*
X8861958Y-12423568D02*
X8871482Y-12414044D01*
X8871482Y-12414044D02*
X8890529Y-12385473D01*
X8890529Y-12385473D02*
X8900053Y-12347378D01*
X8900053Y-12347378D02*
X8900053Y-12271187D01*
X8900053Y-12271187D02*
X8890529Y-12252140D01*
X8890529Y-12252140D02*
X8881005Y-12242616D01*
X8881005Y-12242616D02*
X8861958Y-12233092D01*
X8861958Y-12233092D02*
X8823863Y-12233092D01*
X8823863Y-12233092D02*
X8804815Y-12242616D01*
X8804815Y-12242616D02*
X8795291Y-12252140D01*
X8795291Y-12252140D02*
X8785767Y-12271187D01*
X8785767Y-12271187D02*
X8785767Y-12318806D01*
X8785767Y-12318806D02*
X8795291Y-12337854D01*
X8795291Y-12337854D02*
X8804815Y-12347378D01*
X8804815Y-12347378D02*
X8823863Y-12356902D01*
X8823863Y-12356902D02*
X8861958Y-12356902D01*
X8861958Y-12356902D02*
X8881005Y-12347378D01*
X8881005Y-12347378D02*
X8890529Y-12337854D01*
X8890529Y-12337854D02*
X8900053Y-12318806D01*
X9071482Y-12299759D02*
X9071482Y-12433092D01*
X9023863Y-12223568D02*
X8976244Y-12366425D01*
X8976244Y-12366425D02*
X9100053Y-12366425D01*
X9166720Y-12233092D02*
X9166720Y-12271187D01*
X9242910Y-12233092D02*
X9242910Y-12271187D01*
X9538148Y-12509282D02*
X9528625Y-12499759D01*
X9528625Y-12499759D02*
X9509577Y-12471187D01*
X9509577Y-12471187D02*
X9500053Y-12452140D01*
X9500053Y-12452140D02*
X9490529Y-12423568D01*
X9490529Y-12423568D02*
X9481006Y-12375949D01*
X9481006Y-12375949D02*
X9481006Y-12337854D01*
X9481006Y-12337854D02*
X9490529Y-12290235D01*
X9490529Y-12290235D02*
X9500053Y-12261663D01*
X9500053Y-12261663D02*
X9509577Y-12242616D01*
X9509577Y-12242616D02*
X9528625Y-12214044D01*
X9528625Y-12214044D02*
X9538148Y-12204521D01*
X9700053Y-12299759D02*
X9700053Y-12433092D01*
X9652434Y-12223568D02*
X9604815Y-12366425D01*
X9604815Y-12366425D02*
X9728625Y-12366425D01*
X9842910Y-12233092D02*
X9861958Y-12233092D01*
X9861958Y-12233092D02*
X9881006Y-12242616D01*
X9881006Y-12242616D02*
X9890529Y-12252140D01*
X9890529Y-12252140D02*
X9900053Y-12271187D01*
X9900053Y-12271187D02*
X9909577Y-12309282D01*
X9909577Y-12309282D02*
X9909577Y-12356902D01*
X9909577Y-12356902D02*
X9900053Y-12394997D01*
X9900053Y-12394997D02*
X9890529Y-12414044D01*
X9890529Y-12414044D02*
X9881006Y-12423568D01*
X9881006Y-12423568D02*
X9861958Y-12433092D01*
X9861958Y-12433092D02*
X9842910Y-12433092D01*
X9842910Y-12433092D02*
X9823863Y-12423568D01*
X9823863Y-12423568D02*
X9814339Y-12414044D01*
X9814339Y-12414044D02*
X9804815Y-12394997D01*
X9804815Y-12394997D02*
X9795291Y-12356902D01*
X9795291Y-12356902D02*
X9795291Y-12309282D01*
X9795291Y-12309282D02*
X9804815Y-12271187D01*
X9804815Y-12271187D02*
X9814339Y-12252140D01*
X9814339Y-12252140D02*
X9823863Y-12242616D01*
X9823863Y-12242616D02*
X9842910Y-12233092D01*
X10147672Y-12433092D02*
X10147672Y-12233092D01*
X10233387Y-12433092D02*
X10233387Y-12328330D01*
X10233387Y-12328330D02*
X10223863Y-12309282D01*
X10223863Y-12309282D02*
X10204815Y-12299759D01*
X10204815Y-12299759D02*
X10176244Y-12299759D01*
X10176244Y-12299759D02*
X10157196Y-12309282D01*
X10157196Y-12309282D02*
X10147672Y-12318806D01*
X10357196Y-12433092D02*
X10338148Y-12423568D01*
X10338148Y-12423568D02*
X10328625Y-12414044D01*
X10328625Y-12414044D02*
X10319101Y-12394997D01*
X10319101Y-12394997D02*
X10319101Y-12337854D01*
X10319101Y-12337854D02*
X10328625Y-12318806D01*
X10328625Y-12318806D02*
X10338148Y-12309282D01*
X10338148Y-12309282D02*
X10357196Y-12299759D01*
X10357196Y-12299759D02*
X10385768Y-12299759D01*
X10385768Y-12299759D02*
X10404815Y-12309282D01*
X10404815Y-12309282D02*
X10414339Y-12318806D01*
X10414339Y-12318806D02*
X10423863Y-12337854D01*
X10423863Y-12337854D02*
X10423863Y-12394997D01*
X10423863Y-12394997D02*
X10414339Y-12414044D01*
X10414339Y-12414044D02*
X10404815Y-12423568D01*
X10404815Y-12423568D02*
X10385768Y-12433092D01*
X10385768Y-12433092D02*
X10357196Y-12433092D01*
X10538148Y-12433092D02*
X10519101Y-12423568D01*
X10519101Y-12423568D02*
X10509577Y-12404521D01*
X10509577Y-12404521D02*
X10509577Y-12233092D01*
X10690529Y-12423568D02*
X10671482Y-12433092D01*
X10671482Y-12433092D02*
X10633387Y-12433092D01*
X10633387Y-12433092D02*
X10614339Y-12423568D01*
X10614339Y-12423568D02*
X10604815Y-12404521D01*
X10604815Y-12404521D02*
X10604815Y-12328330D01*
X10604815Y-12328330D02*
X10614339Y-12309282D01*
X10614339Y-12309282D02*
X10633387Y-12299759D01*
X10633387Y-12299759D02*
X10671482Y-12299759D01*
X10671482Y-12299759D02*
X10690529Y-12309282D01*
X10690529Y-12309282D02*
X10700053Y-12328330D01*
X10700053Y-12328330D02*
X10700053Y-12347378D01*
X10700053Y-12347378D02*
X10604815Y-12366425D01*
X10776244Y-12423568D02*
X10795291Y-12433092D01*
X10795291Y-12433092D02*
X10833387Y-12433092D01*
X10833387Y-12433092D02*
X10852434Y-12423568D01*
X10852434Y-12423568D02*
X10861958Y-12404521D01*
X10861958Y-12404521D02*
X10861958Y-12394997D01*
X10861958Y-12394997D02*
X10852434Y-12375949D01*
X10852434Y-12375949D02*
X10833387Y-12366425D01*
X10833387Y-12366425D02*
X10804815Y-12366425D01*
X10804815Y-12366425D02*
X10785768Y-12356902D01*
X10785768Y-12356902D02*
X10776244Y-12337854D01*
X10776244Y-12337854D02*
X10776244Y-12328330D01*
X10776244Y-12328330D02*
X10785768Y-12309282D01*
X10785768Y-12309282D02*
X10804815Y-12299759D01*
X10804815Y-12299759D02*
X10833387Y-12299759D01*
X10833387Y-12299759D02*
X10852434Y-12309282D01*
X10928625Y-12509282D02*
X10938149Y-12499759D01*
X10938149Y-12499759D02*
X10957196Y-12471187D01*
X10957196Y-12471187D02*
X10966720Y-12452140D01*
X10966720Y-12452140D02*
X10976244Y-12423568D01*
X10976244Y-12423568D02*
X10985768Y-12375949D01*
X10985768Y-12375949D02*
X10985768Y-12337854D01*
X10985768Y-12337854D02*
X10976244Y-12290235D01*
X10976244Y-12290235D02*
X10966720Y-12261663D01*
X10966720Y-12261663D02*
X10957196Y-12242616D01*
X10957196Y-12242616D02*
X10938149Y-12214044D01*
X10938149Y-12214044D02*
X10928625Y-12204521D01*
D13*
X5963085Y-12605608D02*
G75*
G02*
X5861085Y-12605608I-51000J0D01*
G01*
X5861085Y-12605608D02*
G75*
G02*
X5963085Y-12605608I51000J0D01*
G01*
D11*
X6328624Y-12697092D02*
X6214338Y-12697092D01*
X6271481Y-12697092D02*
X6271481Y-12497092D01*
X6271481Y-12497092D02*
X6252434Y-12525663D01*
X6252434Y-12525663D02*
X6233386Y-12544711D01*
X6233386Y-12544711D02*
X6214338Y-12554235D01*
X6414338Y-12678044D02*
X6423862Y-12687568D01*
X6423862Y-12687568D02*
X6414338Y-12697092D01*
X6414338Y-12697092D02*
X6404815Y-12687568D01*
X6404815Y-12687568D02*
X6414338Y-12678044D01*
X6414338Y-12678044D02*
X6414338Y-12697092D01*
X6547672Y-12497092D02*
X6566719Y-12497092D01*
X6566719Y-12497092D02*
X6585767Y-12506616D01*
X6585767Y-12506616D02*
X6595291Y-12516140D01*
X6595291Y-12516140D02*
X6604815Y-12535187D01*
X6604815Y-12535187D02*
X6614338Y-12573282D01*
X6614338Y-12573282D02*
X6614338Y-12620902D01*
X6614338Y-12620902D02*
X6604815Y-12658997D01*
X6604815Y-12658997D02*
X6595291Y-12678044D01*
X6595291Y-12678044D02*
X6585767Y-12687568D01*
X6585767Y-12687568D02*
X6566719Y-12697092D01*
X6566719Y-12697092D02*
X6547672Y-12697092D01*
X6547672Y-12697092D02*
X6528624Y-12687568D01*
X6528624Y-12687568D02*
X6519100Y-12678044D01*
X6519100Y-12678044D02*
X6509577Y-12658997D01*
X6509577Y-12658997D02*
X6500053Y-12620902D01*
X6500053Y-12620902D02*
X6500053Y-12573282D01*
X6500053Y-12573282D02*
X6509577Y-12535187D01*
X6509577Y-12535187D02*
X6519100Y-12516140D01*
X6519100Y-12516140D02*
X6528624Y-12506616D01*
X6528624Y-12506616D02*
X6547672Y-12497092D01*
X6690529Y-12516140D02*
X6700053Y-12506616D01*
X6700053Y-12506616D02*
X6719100Y-12497092D01*
X6719100Y-12497092D02*
X6766719Y-12497092D01*
X6766719Y-12497092D02*
X6785767Y-12506616D01*
X6785767Y-12506616D02*
X6795291Y-12516140D01*
X6795291Y-12516140D02*
X6804815Y-12535187D01*
X6804815Y-12535187D02*
X6804815Y-12554235D01*
X6804815Y-12554235D02*
X6795291Y-12582806D01*
X6795291Y-12582806D02*
X6681005Y-12697092D01*
X6681005Y-12697092D02*
X6804815Y-12697092D01*
X6928624Y-12497092D02*
X6947672Y-12497092D01*
X6947672Y-12497092D02*
X6966719Y-12506616D01*
X6966719Y-12506616D02*
X6976243Y-12516140D01*
X6976243Y-12516140D02*
X6985767Y-12535187D01*
X6985767Y-12535187D02*
X6995291Y-12573282D01*
X6995291Y-12573282D02*
X6995291Y-12620902D01*
X6995291Y-12620902D02*
X6985767Y-12658997D01*
X6985767Y-12658997D02*
X6976243Y-12678044D01*
X6976243Y-12678044D02*
X6966719Y-12687568D01*
X6966719Y-12687568D02*
X6947672Y-12697092D01*
X6947672Y-12697092D02*
X6928624Y-12697092D01*
X6928624Y-12697092D02*
X6909577Y-12687568D01*
X6909577Y-12687568D02*
X6900053Y-12678044D01*
X6900053Y-12678044D02*
X6890529Y-12658997D01*
X6890529Y-12658997D02*
X6881005Y-12620902D01*
X6881005Y-12620902D02*
X6881005Y-12573282D01*
X6881005Y-12573282D02*
X6890529Y-12535187D01*
X6890529Y-12535187D02*
X6900053Y-12516140D01*
X6900053Y-12516140D02*
X6909577Y-12506616D01*
X6909577Y-12506616D02*
X6928624Y-12497092D01*
X7081005Y-12697092D02*
X7081005Y-12563759D01*
X7081005Y-12582806D02*
X7090529Y-12573282D01*
X7090529Y-12573282D02*
X7109577Y-12563759D01*
X7109577Y-12563759D02*
X7138148Y-12563759D01*
X7138148Y-12563759D02*
X7157196Y-12573282D01*
X7157196Y-12573282D02*
X7166719Y-12592330D01*
X7166719Y-12592330D02*
X7166719Y-12697092D01*
X7166719Y-12592330D02*
X7176243Y-12573282D01*
X7176243Y-12573282D02*
X7195291Y-12563759D01*
X7195291Y-12563759D02*
X7223862Y-12563759D01*
X7223862Y-12563759D02*
X7242910Y-12573282D01*
X7242910Y-12573282D02*
X7252434Y-12592330D01*
X7252434Y-12592330D02*
X7252434Y-12697092D01*
X7347672Y-12697092D02*
X7347672Y-12563759D01*
X7347672Y-12582806D02*
X7357196Y-12573282D01*
X7357196Y-12573282D02*
X7376243Y-12563759D01*
X7376243Y-12563759D02*
X7404815Y-12563759D01*
X7404815Y-12563759D02*
X7423862Y-12573282D01*
X7423862Y-12573282D02*
X7433386Y-12592330D01*
X7433386Y-12592330D02*
X7433386Y-12697092D01*
X7433386Y-12592330D02*
X7442910Y-12573282D01*
X7442910Y-12573282D02*
X7461958Y-12563759D01*
X7461958Y-12563759D02*
X7490529Y-12563759D01*
X7490529Y-12563759D02*
X7509577Y-12573282D01*
X7509577Y-12573282D02*
X7519100Y-12592330D01*
X7519100Y-12592330D02*
X7519100Y-12697092D01*
X7909577Y-12487568D02*
X7738148Y-12744711D01*
X8166720Y-12497092D02*
X8185767Y-12497092D01*
X8185767Y-12497092D02*
X8204815Y-12506616D01*
X8204815Y-12506616D02*
X8214339Y-12516140D01*
X8214339Y-12516140D02*
X8223862Y-12535187D01*
X8223862Y-12535187D02*
X8233386Y-12573282D01*
X8233386Y-12573282D02*
X8233386Y-12620902D01*
X8233386Y-12620902D02*
X8223862Y-12658997D01*
X8223862Y-12658997D02*
X8214339Y-12678044D01*
X8214339Y-12678044D02*
X8204815Y-12687568D01*
X8204815Y-12687568D02*
X8185767Y-12697092D01*
X8185767Y-12697092D02*
X8166720Y-12697092D01*
X8166720Y-12697092D02*
X8147672Y-12687568D01*
X8147672Y-12687568D02*
X8138148Y-12678044D01*
X8138148Y-12678044D02*
X8128624Y-12658997D01*
X8128624Y-12658997D02*
X8119101Y-12620902D01*
X8119101Y-12620902D02*
X8119101Y-12573282D01*
X8119101Y-12573282D02*
X8128624Y-12535187D01*
X8128624Y-12535187D02*
X8138148Y-12516140D01*
X8138148Y-12516140D02*
X8147672Y-12506616D01*
X8147672Y-12506616D02*
X8166720Y-12497092D01*
X8319101Y-12678044D02*
X8328624Y-12687568D01*
X8328624Y-12687568D02*
X8319101Y-12697092D01*
X8319101Y-12697092D02*
X8309577Y-12687568D01*
X8309577Y-12687568D02*
X8319101Y-12678044D01*
X8319101Y-12678044D02*
X8319101Y-12697092D01*
X8452434Y-12497092D02*
X8471482Y-12497092D01*
X8471482Y-12497092D02*
X8490529Y-12506616D01*
X8490529Y-12506616D02*
X8500053Y-12516140D01*
X8500053Y-12516140D02*
X8509577Y-12535187D01*
X8509577Y-12535187D02*
X8519101Y-12573282D01*
X8519101Y-12573282D02*
X8519101Y-12620902D01*
X8519101Y-12620902D02*
X8509577Y-12658997D01*
X8509577Y-12658997D02*
X8500053Y-12678044D01*
X8500053Y-12678044D02*
X8490529Y-12687568D01*
X8490529Y-12687568D02*
X8471482Y-12697092D01*
X8471482Y-12697092D02*
X8452434Y-12697092D01*
X8452434Y-12697092D02*
X8433386Y-12687568D01*
X8433386Y-12687568D02*
X8423863Y-12678044D01*
X8423863Y-12678044D02*
X8414339Y-12658997D01*
X8414339Y-12658997D02*
X8404815Y-12620902D01*
X8404815Y-12620902D02*
X8404815Y-12573282D01*
X8404815Y-12573282D02*
X8414339Y-12535187D01*
X8414339Y-12535187D02*
X8423863Y-12516140D01*
X8423863Y-12516140D02*
X8433386Y-12506616D01*
X8433386Y-12506616D02*
X8452434Y-12497092D01*
X8690529Y-12563759D02*
X8690529Y-12697092D01*
X8642910Y-12487568D02*
X8595291Y-12630425D01*
X8595291Y-12630425D02*
X8719101Y-12630425D01*
X8833386Y-12497092D02*
X8852434Y-12497092D01*
X8852434Y-12497092D02*
X8871482Y-12506616D01*
X8871482Y-12506616D02*
X8881005Y-12516140D01*
X8881005Y-12516140D02*
X8890529Y-12535187D01*
X8890529Y-12535187D02*
X8900053Y-12573282D01*
X8900053Y-12573282D02*
X8900053Y-12620902D01*
X8900053Y-12620902D02*
X8890529Y-12658997D01*
X8890529Y-12658997D02*
X8881005Y-12678044D01*
X8881005Y-12678044D02*
X8871482Y-12687568D01*
X8871482Y-12687568D02*
X8852434Y-12697092D01*
X8852434Y-12697092D02*
X8833386Y-12697092D01*
X8833386Y-12697092D02*
X8814339Y-12687568D01*
X8814339Y-12687568D02*
X8804815Y-12678044D01*
X8804815Y-12678044D02*
X8795291Y-12658997D01*
X8795291Y-12658997D02*
X8785767Y-12620902D01*
X8785767Y-12620902D02*
X8785767Y-12573282D01*
X8785767Y-12573282D02*
X8795291Y-12535187D01*
X8795291Y-12535187D02*
X8804815Y-12516140D01*
X8804815Y-12516140D02*
X8814339Y-12506616D01*
X8814339Y-12506616D02*
X8833386Y-12497092D01*
X8976244Y-12516140D02*
X8985767Y-12506616D01*
X8985767Y-12506616D02*
X9004815Y-12497092D01*
X9004815Y-12497092D02*
X9052434Y-12497092D01*
X9052434Y-12497092D02*
X9071482Y-12506616D01*
X9071482Y-12506616D02*
X9081005Y-12516140D01*
X9081005Y-12516140D02*
X9090529Y-12535187D01*
X9090529Y-12535187D02*
X9090529Y-12554235D01*
X9090529Y-12554235D02*
X9081005Y-12582806D01*
X9081005Y-12582806D02*
X8966720Y-12697092D01*
X8966720Y-12697092D02*
X9090529Y-12697092D01*
X9166720Y-12497092D02*
X9166720Y-12535187D01*
X9242910Y-12497092D02*
X9242910Y-12535187D01*
X9538148Y-12773282D02*
X9528625Y-12763759D01*
X9528625Y-12763759D02*
X9509577Y-12735187D01*
X9509577Y-12735187D02*
X9500053Y-12716140D01*
X9500053Y-12716140D02*
X9490529Y-12687568D01*
X9490529Y-12687568D02*
X9481006Y-12639949D01*
X9481006Y-12639949D02*
X9481006Y-12601854D01*
X9481006Y-12601854D02*
X9490529Y-12554235D01*
X9490529Y-12554235D02*
X9500053Y-12525663D01*
X9500053Y-12525663D02*
X9509577Y-12506616D01*
X9509577Y-12506616D02*
X9528625Y-12478044D01*
X9528625Y-12478044D02*
X9538148Y-12468521D01*
X9719101Y-12697092D02*
X9604815Y-12697092D01*
X9661958Y-12697092D02*
X9661958Y-12497092D01*
X9661958Y-12497092D02*
X9642910Y-12525663D01*
X9642910Y-12525663D02*
X9623863Y-12544711D01*
X9623863Y-12544711D02*
X9604815Y-12554235D01*
X9842910Y-12497092D02*
X9861958Y-12497092D01*
X9861958Y-12497092D02*
X9881006Y-12506616D01*
X9881006Y-12506616D02*
X9890529Y-12516140D01*
X9890529Y-12516140D02*
X9900053Y-12535187D01*
X9900053Y-12535187D02*
X9909577Y-12573282D01*
X9909577Y-12573282D02*
X9909577Y-12620902D01*
X9909577Y-12620902D02*
X9900053Y-12658997D01*
X9900053Y-12658997D02*
X9890529Y-12678044D01*
X9890529Y-12678044D02*
X9881006Y-12687568D01*
X9881006Y-12687568D02*
X9861958Y-12697092D01*
X9861958Y-12697092D02*
X9842910Y-12697092D01*
X9842910Y-12697092D02*
X9823863Y-12687568D01*
X9823863Y-12687568D02*
X9814339Y-12678044D01*
X9814339Y-12678044D02*
X9804815Y-12658997D01*
X9804815Y-12658997D02*
X9795291Y-12620902D01*
X9795291Y-12620902D02*
X9795291Y-12573282D01*
X9795291Y-12573282D02*
X9804815Y-12535187D01*
X9804815Y-12535187D02*
X9814339Y-12516140D01*
X9814339Y-12516140D02*
X9823863Y-12506616D01*
X9823863Y-12506616D02*
X9842910Y-12497092D01*
X10147672Y-12697092D02*
X10147672Y-12497092D01*
X10233387Y-12697092D02*
X10233387Y-12592330D01*
X10233387Y-12592330D02*
X10223863Y-12573282D01*
X10223863Y-12573282D02*
X10204815Y-12563759D01*
X10204815Y-12563759D02*
X10176244Y-12563759D01*
X10176244Y-12563759D02*
X10157196Y-12573282D01*
X10157196Y-12573282D02*
X10147672Y-12582806D01*
X10357196Y-12697092D02*
X10338148Y-12687568D01*
X10338148Y-12687568D02*
X10328625Y-12678044D01*
X10328625Y-12678044D02*
X10319101Y-12658997D01*
X10319101Y-12658997D02*
X10319101Y-12601854D01*
X10319101Y-12601854D02*
X10328625Y-12582806D01*
X10328625Y-12582806D02*
X10338148Y-12573282D01*
X10338148Y-12573282D02*
X10357196Y-12563759D01*
X10357196Y-12563759D02*
X10385768Y-12563759D01*
X10385768Y-12563759D02*
X10404815Y-12573282D01*
X10404815Y-12573282D02*
X10414339Y-12582806D01*
X10414339Y-12582806D02*
X10423863Y-12601854D01*
X10423863Y-12601854D02*
X10423863Y-12658997D01*
X10423863Y-12658997D02*
X10414339Y-12678044D01*
X10414339Y-12678044D02*
X10404815Y-12687568D01*
X10404815Y-12687568D02*
X10385768Y-12697092D01*
X10385768Y-12697092D02*
X10357196Y-12697092D01*
X10538148Y-12697092D02*
X10519101Y-12687568D01*
X10519101Y-12687568D02*
X10509577Y-12668521D01*
X10509577Y-12668521D02*
X10509577Y-12497092D01*
X10690529Y-12687568D02*
X10671482Y-12697092D01*
X10671482Y-12697092D02*
X10633387Y-12697092D01*
X10633387Y-12697092D02*
X10614339Y-12687568D01*
X10614339Y-12687568D02*
X10604815Y-12668521D01*
X10604815Y-12668521D02*
X10604815Y-12592330D01*
X10604815Y-12592330D02*
X10614339Y-12573282D01*
X10614339Y-12573282D02*
X10633387Y-12563759D01*
X10633387Y-12563759D02*
X10671482Y-12563759D01*
X10671482Y-12563759D02*
X10690529Y-12573282D01*
X10690529Y-12573282D02*
X10700053Y-12592330D01*
X10700053Y-12592330D02*
X10700053Y-12611378D01*
X10700053Y-12611378D02*
X10604815Y-12630425D01*
X10776244Y-12687568D02*
X10795291Y-12697092D01*
X10795291Y-12697092D02*
X10833387Y-12697092D01*
X10833387Y-12697092D02*
X10852434Y-12687568D01*
X10852434Y-12687568D02*
X10861958Y-12668521D01*
X10861958Y-12668521D02*
X10861958Y-12658997D01*
X10861958Y-12658997D02*
X10852434Y-12639949D01*
X10852434Y-12639949D02*
X10833387Y-12630425D01*
X10833387Y-12630425D02*
X10804815Y-12630425D01*
X10804815Y-12630425D02*
X10785768Y-12620902D01*
X10785768Y-12620902D02*
X10776244Y-12601854D01*
X10776244Y-12601854D02*
X10776244Y-12592330D01*
X10776244Y-12592330D02*
X10785768Y-12573282D01*
X10785768Y-12573282D02*
X10804815Y-12563759D01*
X10804815Y-12563759D02*
X10833387Y-12563759D01*
X10833387Y-12563759D02*
X10852434Y-12573282D01*
X10928625Y-12773282D02*
X10938149Y-12763759D01*
X10938149Y-12763759D02*
X10957196Y-12735187D01*
X10957196Y-12735187D02*
X10966720Y-12716140D01*
X10966720Y-12716140D02*
X10976244Y-12687568D01*
X10976244Y-12687568D02*
X10985768Y-12639949D01*
X10985768Y-12639949D02*
X10985768Y-12601854D01*
X10985768Y-12601854D02*
X10976244Y-12554235D01*
X10976244Y-12554235D02*
X10966720Y-12525663D01*
X10966720Y-12525663D02*
X10957196Y-12506616D01*
X10957196Y-12506616D02*
X10938149Y-12478044D01*
X10938149Y-12478044D02*
X10928625Y-12468521D01*
X5863085Y-12769608D02*
X5863085Y-12969608D01*
X5763085Y-12869608D02*
X5963085Y-12869608D01*
X6214338Y-12780140D02*
X6223862Y-12770616D01*
X6223862Y-12770616D02*
X6242910Y-12761092D01*
X6242910Y-12761092D02*
X6290529Y-12761092D01*
X6290529Y-12761092D02*
X6309577Y-12770616D01*
X6309577Y-12770616D02*
X6319100Y-12780140D01*
X6319100Y-12780140D02*
X6328624Y-12799187D01*
X6328624Y-12799187D02*
X6328624Y-12818235D01*
X6328624Y-12818235D02*
X6319100Y-12846806D01*
X6319100Y-12846806D02*
X6204815Y-12961092D01*
X6204815Y-12961092D02*
X6328624Y-12961092D01*
X6414338Y-12942044D02*
X6423862Y-12951568D01*
X6423862Y-12951568D02*
X6414338Y-12961092D01*
X6414338Y-12961092D02*
X6404815Y-12951568D01*
X6404815Y-12951568D02*
X6414338Y-12942044D01*
X6414338Y-12942044D02*
X6414338Y-12961092D01*
X6490529Y-12761092D02*
X6623862Y-12761092D01*
X6623862Y-12761092D02*
X6538148Y-12961092D01*
X6738148Y-12761092D02*
X6757196Y-12761092D01*
X6757196Y-12761092D02*
X6776243Y-12770616D01*
X6776243Y-12770616D02*
X6785767Y-12780140D01*
X6785767Y-12780140D02*
X6795291Y-12799187D01*
X6795291Y-12799187D02*
X6804815Y-12837282D01*
X6804815Y-12837282D02*
X6804815Y-12884902D01*
X6804815Y-12884902D02*
X6795291Y-12922997D01*
X6795291Y-12922997D02*
X6785767Y-12942044D01*
X6785767Y-12942044D02*
X6776243Y-12951568D01*
X6776243Y-12951568D02*
X6757196Y-12961092D01*
X6757196Y-12961092D02*
X6738148Y-12961092D01*
X6738148Y-12961092D02*
X6719100Y-12951568D01*
X6719100Y-12951568D02*
X6709577Y-12942044D01*
X6709577Y-12942044D02*
X6700053Y-12922997D01*
X6700053Y-12922997D02*
X6690529Y-12884902D01*
X6690529Y-12884902D02*
X6690529Y-12837282D01*
X6690529Y-12837282D02*
X6700053Y-12799187D01*
X6700053Y-12799187D02*
X6709577Y-12780140D01*
X6709577Y-12780140D02*
X6719100Y-12770616D01*
X6719100Y-12770616D02*
X6738148Y-12761092D01*
X6928624Y-12761092D02*
X6947672Y-12761092D01*
X6947672Y-12761092D02*
X6966719Y-12770616D01*
X6966719Y-12770616D02*
X6976243Y-12780140D01*
X6976243Y-12780140D02*
X6985767Y-12799187D01*
X6985767Y-12799187D02*
X6995291Y-12837282D01*
X6995291Y-12837282D02*
X6995291Y-12884902D01*
X6995291Y-12884902D02*
X6985767Y-12922997D01*
X6985767Y-12922997D02*
X6976243Y-12942044D01*
X6976243Y-12942044D02*
X6966719Y-12951568D01*
X6966719Y-12951568D02*
X6947672Y-12961092D01*
X6947672Y-12961092D02*
X6928624Y-12961092D01*
X6928624Y-12961092D02*
X6909577Y-12951568D01*
X6909577Y-12951568D02*
X6900053Y-12942044D01*
X6900053Y-12942044D02*
X6890529Y-12922997D01*
X6890529Y-12922997D02*
X6881005Y-12884902D01*
X6881005Y-12884902D02*
X6881005Y-12837282D01*
X6881005Y-12837282D02*
X6890529Y-12799187D01*
X6890529Y-12799187D02*
X6900053Y-12780140D01*
X6900053Y-12780140D02*
X6909577Y-12770616D01*
X6909577Y-12770616D02*
X6928624Y-12761092D01*
X7081005Y-12961092D02*
X7081005Y-12827759D01*
X7081005Y-12846806D02*
X7090529Y-12837282D01*
X7090529Y-12837282D02*
X7109577Y-12827759D01*
X7109577Y-12827759D02*
X7138148Y-12827759D01*
X7138148Y-12827759D02*
X7157196Y-12837282D01*
X7157196Y-12837282D02*
X7166719Y-12856330D01*
X7166719Y-12856330D02*
X7166719Y-12961092D01*
X7166719Y-12856330D02*
X7176243Y-12837282D01*
X7176243Y-12837282D02*
X7195291Y-12827759D01*
X7195291Y-12827759D02*
X7223862Y-12827759D01*
X7223862Y-12827759D02*
X7242910Y-12837282D01*
X7242910Y-12837282D02*
X7252434Y-12856330D01*
X7252434Y-12856330D02*
X7252434Y-12961092D01*
X7347672Y-12961092D02*
X7347672Y-12827759D01*
X7347672Y-12846806D02*
X7357196Y-12837282D01*
X7357196Y-12837282D02*
X7376243Y-12827759D01*
X7376243Y-12827759D02*
X7404815Y-12827759D01*
X7404815Y-12827759D02*
X7423862Y-12837282D01*
X7423862Y-12837282D02*
X7433386Y-12856330D01*
X7433386Y-12856330D02*
X7433386Y-12961092D01*
X7433386Y-12856330D02*
X7442910Y-12837282D01*
X7442910Y-12837282D02*
X7461958Y-12827759D01*
X7461958Y-12827759D02*
X7490529Y-12827759D01*
X7490529Y-12827759D02*
X7509577Y-12837282D01*
X7509577Y-12837282D02*
X7519100Y-12856330D01*
X7519100Y-12856330D02*
X7519100Y-12961092D01*
X7909577Y-12751568D02*
X7738148Y-13008711D01*
X8166720Y-12761092D02*
X8185767Y-12761092D01*
X8185767Y-12761092D02*
X8204815Y-12770616D01*
X8204815Y-12770616D02*
X8214339Y-12780140D01*
X8214339Y-12780140D02*
X8223862Y-12799187D01*
X8223862Y-12799187D02*
X8233386Y-12837282D01*
X8233386Y-12837282D02*
X8233386Y-12884902D01*
X8233386Y-12884902D02*
X8223862Y-12922997D01*
X8223862Y-12922997D02*
X8214339Y-12942044D01*
X8214339Y-12942044D02*
X8204815Y-12951568D01*
X8204815Y-12951568D02*
X8185767Y-12961092D01*
X8185767Y-12961092D02*
X8166720Y-12961092D01*
X8166720Y-12961092D02*
X8147672Y-12951568D01*
X8147672Y-12951568D02*
X8138148Y-12942044D01*
X8138148Y-12942044D02*
X8128624Y-12922997D01*
X8128624Y-12922997D02*
X8119101Y-12884902D01*
X8119101Y-12884902D02*
X8119101Y-12837282D01*
X8119101Y-12837282D02*
X8128624Y-12799187D01*
X8128624Y-12799187D02*
X8138148Y-12780140D01*
X8138148Y-12780140D02*
X8147672Y-12770616D01*
X8147672Y-12770616D02*
X8166720Y-12761092D01*
X8319101Y-12942044D02*
X8328624Y-12951568D01*
X8328624Y-12951568D02*
X8319101Y-12961092D01*
X8319101Y-12961092D02*
X8309577Y-12951568D01*
X8309577Y-12951568D02*
X8319101Y-12942044D01*
X8319101Y-12942044D02*
X8319101Y-12961092D01*
X8519101Y-12961092D02*
X8404815Y-12961092D01*
X8461958Y-12961092D02*
X8461958Y-12761092D01*
X8461958Y-12761092D02*
X8442910Y-12789663D01*
X8442910Y-12789663D02*
X8423863Y-12808711D01*
X8423863Y-12808711D02*
X8404815Y-12818235D01*
X8642910Y-12761092D02*
X8661958Y-12761092D01*
X8661958Y-12761092D02*
X8681005Y-12770616D01*
X8681005Y-12770616D02*
X8690529Y-12780140D01*
X8690529Y-12780140D02*
X8700053Y-12799187D01*
X8700053Y-12799187D02*
X8709577Y-12837282D01*
X8709577Y-12837282D02*
X8709577Y-12884902D01*
X8709577Y-12884902D02*
X8700053Y-12922997D01*
X8700053Y-12922997D02*
X8690529Y-12942044D01*
X8690529Y-12942044D02*
X8681005Y-12951568D01*
X8681005Y-12951568D02*
X8661958Y-12961092D01*
X8661958Y-12961092D02*
X8642910Y-12961092D01*
X8642910Y-12961092D02*
X8623863Y-12951568D01*
X8623863Y-12951568D02*
X8614339Y-12942044D01*
X8614339Y-12942044D02*
X8604815Y-12922997D01*
X8604815Y-12922997D02*
X8595291Y-12884902D01*
X8595291Y-12884902D02*
X8595291Y-12837282D01*
X8595291Y-12837282D02*
X8604815Y-12799187D01*
X8604815Y-12799187D02*
X8614339Y-12780140D01*
X8614339Y-12780140D02*
X8623863Y-12770616D01*
X8623863Y-12770616D02*
X8642910Y-12761092D01*
X8881005Y-12761092D02*
X8842910Y-12761092D01*
X8842910Y-12761092D02*
X8823863Y-12770616D01*
X8823863Y-12770616D02*
X8814339Y-12780140D01*
X8814339Y-12780140D02*
X8795291Y-12808711D01*
X8795291Y-12808711D02*
X8785767Y-12846806D01*
X8785767Y-12846806D02*
X8785767Y-12922997D01*
X8785767Y-12922997D02*
X8795291Y-12942044D01*
X8795291Y-12942044D02*
X8804815Y-12951568D01*
X8804815Y-12951568D02*
X8823863Y-12961092D01*
X8823863Y-12961092D02*
X8861958Y-12961092D01*
X8861958Y-12961092D02*
X8881005Y-12951568D01*
X8881005Y-12951568D02*
X8890529Y-12942044D01*
X8890529Y-12942044D02*
X8900053Y-12922997D01*
X8900053Y-12922997D02*
X8900053Y-12875378D01*
X8900053Y-12875378D02*
X8890529Y-12856330D01*
X8890529Y-12856330D02*
X8881005Y-12846806D01*
X8881005Y-12846806D02*
X8861958Y-12837282D01*
X8861958Y-12837282D02*
X8823863Y-12837282D01*
X8823863Y-12837282D02*
X8804815Y-12846806D01*
X8804815Y-12846806D02*
X8795291Y-12856330D01*
X8795291Y-12856330D02*
X8785767Y-12875378D01*
X8966720Y-12761092D02*
X9090529Y-12761092D01*
X9090529Y-12761092D02*
X9023863Y-12837282D01*
X9023863Y-12837282D02*
X9052434Y-12837282D01*
X9052434Y-12837282D02*
X9071482Y-12846806D01*
X9071482Y-12846806D02*
X9081005Y-12856330D01*
X9081005Y-12856330D02*
X9090529Y-12875378D01*
X9090529Y-12875378D02*
X9090529Y-12922997D01*
X9090529Y-12922997D02*
X9081005Y-12942044D01*
X9081005Y-12942044D02*
X9071482Y-12951568D01*
X9071482Y-12951568D02*
X9052434Y-12961092D01*
X9052434Y-12961092D02*
X8995291Y-12961092D01*
X8995291Y-12961092D02*
X8976244Y-12951568D01*
X8976244Y-12951568D02*
X8966720Y-12942044D01*
X9166720Y-12761092D02*
X9166720Y-12799187D01*
X9242910Y-12761092D02*
X9242910Y-12799187D01*
X9538148Y-13037282D02*
X9528625Y-13027759D01*
X9528625Y-13027759D02*
X9509577Y-12999187D01*
X9509577Y-12999187D02*
X9500053Y-12980140D01*
X9500053Y-12980140D02*
X9490529Y-12951568D01*
X9490529Y-12951568D02*
X9481006Y-12903949D01*
X9481006Y-12903949D02*
X9481006Y-12865854D01*
X9481006Y-12865854D02*
X9490529Y-12818235D01*
X9490529Y-12818235D02*
X9500053Y-12789663D01*
X9500053Y-12789663D02*
X9509577Y-12770616D01*
X9509577Y-12770616D02*
X9528625Y-12742044D01*
X9528625Y-12742044D02*
X9538148Y-12732521D01*
X9604815Y-12780140D02*
X9614339Y-12770616D01*
X9614339Y-12770616D02*
X9633386Y-12761092D01*
X9633386Y-12761092D02*
X9681006Y-12761092D01*
X9681006Y-12761092D02*
X9700053Y-12770616D01*
X9700053Y-12770616D02*
X9709577Y-12780140D01*
X9709577Y-12780140D02*
X9719101Y-12799187D01*
X9719101Y-12799187D02*
X9719101Y-12818235D01*
X9719101Y-12818235D02*
X9709577Y-12846806D01*
X9709577Y-12846806D02*
X9595291Y-12961092D01*
X9595291Y-12961092D02*
X9719101Y-12961092D01*
X9957196Y-12961092D02*
X9957196Y-12761092D01*
X10042910Y-12961092D02*
X10042910Y-12856330D01*
X10042910Y-12856330D02*
X10033387Y-12837282D01*
X10033387Y-12837282D02*
X10014339Y-12827759D01*
X10014339Y-12827759D02*
X9985767Y-12827759D01*
X9985767Y-12827759D02*
X9966720Y-12837282D01*
X9966720Y-12837282D02*
X9957196Y-12846806D01*
X10166720Y-12961092D02*
X10147672Y-12951568D01*
X10147672Y-12951568D02*
X10138148Y-12942044D01*
X10138148Y-12942044D02*
X10128625Y-12922997D01*
X10128625Y-12922997D02*
X10128625Y-12865854D01*
X10128625Y-12865854D02*
X10138148Y-12846806D01*
X10138148Y-12846806D02*
X10147672Y-12837282D01*
X10147672Y-12837282D02*
X10166720Y-12827759D01*
X10166720Y-12827759D02*
X10195291Y-12827759D01*
X10195291Y-12827759D02*
X10214339Y-12837282D01*
X10214339Y-12837282D02*
X10223863Y-12846806D01*
X10223863Y-12846806D02*
X10233387Y-12865854D01*
X10233387Y-12865854D02*
X10233387Y-12922997D01*
X10233387Y-12922997D02*
X10223863Y-12942044D01*
X10223863Y-12942044D02*
X10214339Y-12951568D01*
X10214339Y-12951568D02*
X10195291Y-12961092D01*
X10195291Y-12961092D02*
X10166720Y-12961092D01*
X10347672Y-12961092D02*
X10328625Y-12951568D01*
X10328625Y-12951568D02*
X10319101Y-12932521D01*
X10319101Y-12932521D02*
X10319101Y-12761092D01*
X10500053Y-12951568D02*
X10481006Y-12961092D01*
X10481006Y-12961092D02*
X10442910Y-12961092D01*
X10442910Y-12961092D02*
X10423863Y-12951568D01*
X10423863Y-12951568D02*
X10414339Y-12932521D01*
X10414339Y-12932521D02*
X10414339Y-12856330D01*
X10414339Y-12856330D02*
X10423863Y-12837282D01*
X10423863Y-12837282D02*
X10442910Y-12827759D01*
X10442910Y-12827759D02*
X10481006Y-12827759D01*
X10481006Y-12827759D02*
X10500053Y-12837282D01*
X10500053Y-12837282D02*
X10509577Y-12856330D01*
X10509577Y-12856330D02*
X10509577Y-12875378D01*
X10509577Y-12875378D02*
X10414339Y-12894425D01*
X10585768Y-12951568D02*
X10604815Y-12961092D01*
X10604815Y-12961092D02*
X10642910Y-12961092D01*
X10642910Y-12961092D02*
X10661958Y-12951568D01*
X10661958Y-12951568D02*
X10671482Y-12932521D01*
X10671482Y-12932521D02*
X10671482Y-12922997D01*
X10671482Y-12922997D02*
X10661958Y-12903949D01*
X10661958Y-12903949D02*
X10642910Y-12894425D01*
X10642910Y-12894425D02*
X10614339Y-12894425D01*
X10614339Y-12894425D02*
X10595291Y-12884902D01*
X10595291Y-12884902D02*
X10585768Y-12865854D01*
X10585768Y-12865854D02*
X10585768Y-12856330D01*
X10585768Y-12856330D02*
X10595291Y-12837282D01*
X10595291Y-12837282D02*
X10614339Y-12827759D01*
X10614339Y-12827759D02*
X10642910Y-12827759D01*
X10642910Y-12827759D02*
X10661958Y-12837282D01*
X10738149Y-13037282D02*
X10747672Y-13027759D01*
X10747672Y-13027759D02*
X10766720Y-12999187D01*
X10766720Y-12999187D02*
X10776244Y-12980140D01*
X10776244Y-12980140D02*
X10785768Y-12951568D01*
X10785768Y-12951568D02*
X10795291Y-12903949D01*
X10795291Y-12903949D02*
X10795291Y-12865854D01*
X10795291Y-12865854D02*
X10785768Y-12818235D01*
X10785768Y-12818235D02*
X10776244Y-12789663D01*
X10776244Y-12789663D02*
X10766720Y-12770616D01*
X10766720Y-12770616D02*
X10747672Y-12742044D01*
X10747672Y-12742044D02*
X10738149Y-12732521D01*
X5933797Y-13260320D02*
X5933797Y-13118897D01*
X5792374Y-13118897D01*
X5792374Y-13260320D01*
X5933797Y-13260320D01*
X6204815Y-13081092D02*
X6328624Y-13081092D01*
X6328624Y-13081092D02*
X6261957Y-13157282D01*
X6261957Y-13157282D02*
X6290529Y-13157282D01*
X6290529Y-13157282D02*
X6309577Y-13166806D01*
X6309577Y-13166806D02*
X6319100Y-13176330D01*
X6319100Y-13176330D02*
X6328624Y-13195378D01*
X6328624Y-13195378D02*
X6328624Y-13242997D01*
X6328624Y-13242997D02*
X6319100Y-13262044D01*
X6319100Y-13262044D02*
X6309577Y-13271568D01*
X6309577Y-13271568D02*
X6290529Y-13281092D01*
X6290529Y-13281092D02*
X6233386Y-13281092D01*
X6233386Y-13281092D02*
X6214338Y-13271568D01*
X6214338Y-13271568D02*
X6204815Y-13262044D01*
X6414338Y-13262044D02*
X6423862Y-13271568D01*
X6423862Y-13271568D02*
X6414338Y-13281092D01*
X6414338Y-13281092D02*
X6404815Y-13271568D01*
X6404815Y-13271568D02*
X6414338Y-13262044D01*
X6414338Y-13262044D02*
X6414338Y-13281092D01*
X6547672Y-13081092D02*
X6566719Y-13081092D01*
X6566719Y-13081092D02*
X6585767Y-13090616D01*
X6585767Y-13090616D02*
X6595291Y-13100140D01*
X6595291Y-13100140D02*
X6604815Y-13119187D01*
X6604815Y-13119187D02*
X6614338Y-13157282D01*
X6614338Y-13157282D02*
X6614338Y-13204902D01*
X6614338Y-13204902D02*
X6604815Y-13242997D01*
X6604815Y-13242997D02*
X6595291Y-13262044D01*
X6595291Y-13262044D02*
X6585767Y-13271568D01*
X6585767Y-13271568D02*
X6566719Y-13281092D01*
X6566719Y-13281092D02*
X6547672Y-13281092D01*
X6547672Y-13281092D02*
X6528624Y-13271568D01*
X6528624Y-13271568D02*
X6519100Y-13262044D01*
X6519100Y-13262044D02*
X6509577Y-13242997D01*
X6509577Y-13242997D02*
X6500053Y-13204902D01*
X6500053Y-13204902D02*
X6500053Y-13157282D01*
X6500053Y-13157282D02*
X6509577Y-13119187D01*
X6509577Y-13119187D02*
X6519100Y-13100140D01*
X6519100Y-13100140D02*
X6528624Y-13090616D01*
X6528624Y-13090616D02*
X6547672Y-13081092D01*
X6738148Y-13081092D02*
X6757196Y-13081092D01*
X6757196Y-13081092D02*
X6776243Y-13090616D01*
X6776243Y-13090616D02*
X6785767Y-13100140D01*
X6785767Y-13100140D02*
X6795291Y-13119187D01*
X6795291Y-13119187D02*
X6804815Y-13157282D01*
X6804815Y-13157282D02*
X6804815Y-13204902D01*
X6804815Y-13204902D02*
X6795291Y-13242997D01*
X6795291Y-13242997D02*
X6785767Y-13262044D01*
X6785767Y-13262044D02*
X6776243Y-13271568D01*
X6776243Y-13271568D02*
X6757196Y-13281092D01*
X6757196Y-13281092D02*
X6738148Y-13281092D01*
X6738148Y-13281092D02*
X6719100Y-13271568D01*
X6719100Y-13271568D02*
X6709577Y-13262044D01*
X6709577Y-13262044D02*
X6700053Y-13242997D01*
X6700053Y-13242997D02*
X6690529Y-13204902D01*
X6690529Y-13204902D02*
X6690529Y-13157282D01*
X6690529Y-13157282D02*
X6700053Y-13119187D01*
X6700053Y-13119187D02*
X6709577Y-13100140D01*
X6709577Y-13100140D02*
X6719100Y-13090616D01*
X6719100Y-13090616D02*
X6738148Y-13081092D01*
X6928624Y-13081092D02*
X6947672Y-13081092D01*
X6947672Y-13081092D02*
X6966719Y-13090616D01*
X6966719Y-13090616D02*
X6976243Y-13100140D01*
X6976243Y-13100140D02*
X6985767Y-13119187D01*
X6985767Y-13119187D02*
X6995291Y-13157282D01*
X6995291Y-13157282D02*
X6995291Y-13204902D01*
X6995291Y-13204902D02*
X6985767Y-13242997D01*
X6985767Y-13242997D02*
X6976243Y-13262044D01*
X6976243Y-13262044D02*
X6966719Y-13271568D01*
X6966719Y-13271568D02*
X6947672Y-13281092D01*
X6947672Y-13281092D02*
X6928624Y-13281092D01*
X6928624Y-13281092D02*
X6909577Y-13271568D01*
X6909577Y-13271568D02*
X6900053Y-13262044D01*
X6900053Y-13262044D02*
X6890529Y-13242997D01*
X6890529Y-13242997D02*
X6881005Y-13204902D01*
X6881005Y-13204902D02*
X6881005Y-13157282D01*
X6881005Y-13157282D02*
X6890529Y-13119187D01*
X6890529Y-13119187D02*
X6900053Y-13100140D01*
X6900053Y-13100140D02*
X6909577Y-13090616D01*
X6909577Y-13090616D02*
X6928624Y-13081092D01*
X7081005Y-13281092D02*
X7081005Y-13147759D01*
X7081005Y-13166806D02*
X7090529Y-13157282D01*
X7090529Y-13157282D02*
X7109577Y-13147759D01*
X7109577Y-13147759D02*
X7138148Y-13147759D01*
X7138148Y-13147759D02*
X7157196Y-13157282D01*
X7157196Y-13157282D02*
X7166719Y-13176330D01*
X7166719Y-13176330D02*
X7166719Y-13281092D01*
X7166719Y-13176330D02*
X7176243Y-13157282D01*
X7176243Y-13157282D02*
X7195291Y-13147759D01*
X7195291Y-13147759D02*
X7223862Y-13147759D01*
X7223862Y-13147759D02*
X7242910Y-13157282D01*
X7242910Y-13157282D02*
X7252434Y-13176330D01*
X7252434Y-13176330D02*
X7252434Y-13281092D01*
X7347672Y-13281092D02*
X7347672Y-13147759D01*
X7347672Y-13166806D02*
X7357196Y-13157282D01*
X7357196Y-13157282D02*
X7376243Y-13147759D01*
X7376243Y-13147759D02*
X7404815Y-13147759D01*
X7404815Y-13147759D02*
X7423862Y-13157282D01*
X7423862Y-13157282D02*
X7433386Y-13176330D01*
X7433386Y-13176330D02*
X7433386Y-13281092D01*
X7433386Y-13176330D02*
X7442910Y-13157282D01*
X7442910Y-13157282D02*
X7461958Y-13147759D01*
X7461958Y-13147759D02*
X7490529Y-13147759D01*
X7490529Y-13147759D02*
X7509577Y-13157282D01*
X7509577Y-13157282D02*
X7519100Y-13176330D01*
X7519100Y-13176330D02*
X7519100Y-13281092D01*
X7909577Y-13071568D02*
X7738148Y-13328711D01*
X8166720Y-13081092D02*
X8185767Y-13081092D01*
X8185767Y-13081092D02*
X8204815Y-13090616D01*
X8204815Y-13090616D02*
X8214339Y-13100140D01*
X8214339Y-13100140D02*
X8223862Y-13119187D01*
X8223862Y-13119187D02*
X8233386Y-13157282D01*
X8233386Y-13157282D02*
X8233386Y-13204902D01*
X8233386Y-13204902D02*
X8223862Y-13242997D01*
X8223862Y-13242997D02*
X8214339Y-13262044D01*
X8214339Y-13262044D02*
X8204815Y-13271568D01*
X8204815Y-13271568D02*
X8185767Y-13281092D01*
X8185767Y-13281092D02*
X8166720Y-13281092D01*
X8166720Y-13281092D02*
X8147672Y-13271568D01*
X8147672Y-13271568D02*
X8138148Y-13262044D01*
X8138148Y-13262044D02*
X8128624Y-13242997D01*
X8128624Y-13242997D02*
X8119101Y-13204902D01*
X8119101Y-13204902D02*
X8119101Y-13157282D01*
X8119101Y-13157282D02*
X8128624Y-13119187D01*
X8128624Y-13119187D02*
X8138148Y-13100140D01*
X8138148Y-13100140D02*
X8147672Y-13090616D01*
X8147672Y-13090616D02*
X8166720Y-13081092D01*
X8319101Y-13262044D02*
X8328624Y-13271568D01*
X8328624Y-13271568D02*
X8319101Y-13281092D01*
X8319101Y-13281092D02*
X8309577Y-13271568D01*
X8309577Y-13271568D02*
X8319101Y-13262044D01*
X8319101Y-13262044D02*
X8319101Y-13281092D01*
X8519101Y-13281092D02*
X8404815Y-13281092D01*
X8461958Y-13281092D02*
X8461958Y-13081092D01*
X8461958Y-13081092D02*
X8442910Y-13109663D01*
X8442910Y-13109663D02*
X8423863Y-13128711D01*
X8423863Y-13128711D02*
X8404815Y-13138235D01*
X8709577Y-13281092D02*
X8595291Y-13281092D01*
X8652434Y-13281092D02*
X8652434Y-13081092D01*
X8652434Y-13081092D02*
X8633386Y-13109663D01*
X8633386Y-13109663D02*
X8614339Y-13128711D01*
X8614339Y-13128711D02*
X8595291Y-13138235D01*
X8823863Y-13166806D02*
X8804815Y-13157282D01*
X8804815Y-13157282D02*
X8795291Y-13147759D01*
X8795291Y-13147759D02*
X8785767Y-13128711D01*
X8785767Y-13128711D02*
X8785767Y-13119187D01*
X8785767Y-13119187D02*
X8795291Y-13100140D01*
X8795291Y-13100140D02*
X8804815Y-13090616D01*
X8804815Y-13090616D02*
X8823863Y-13081092D01*
X8823863Y-13081092D02*
X8861958Y-13081092D01*
X8861958Y-13081092D02*
X8881005Y-13090616D01*
X8881005Y-13090616D02*
X8890529Y-13100140D01*
X8890529Y-13100140D02*
X8900053Y-13119187D01*
X8900053Y-13119187D02*
X8900053Y-13128711D01*
X8900053Y-13128711D02*
X8890529Y-13147759D01*
X8890529Y-13147759D02*
X8881005Y-13157282D01*
X8881005Y-13157282D02*
X8861958Y-13166806D01*
X8861958Y-13166806D02*
X8823863Y-13166806D01*
X8823863Y-13166806D02*
X8804815Y-13176330D01*
X8804815Y-13176330D02*
X8795291Y-13185854D01*
X8795291Y-13185854D02*
X8785767Y-13204902D01*
X8785767Y-13204902D02*
X8785767Y-13242997D01*
X8785767Y-13242997D02*
X8795291Y-13262044D01*
X8795291Y-13262044D02*
X8804815Y-13271568D01*
X8804815Y-13271568D02*
X8823863Y-13281092D01*
X8823863Y-13281092D02*
X8861958Y-13281092D01*
X8861958Y-13281092D02*
X8881005Y-13271568D01*
X8881005Y-13271568D02*
X8890529Y-13262044D01*
X8890529Y-13262044D02*
X8900053Y-13242997D01*
X8900053Y-13242997D02*
X8900053Y-13204902D01*
X8900053Y-13204902D02*
X8890529Y-13185854D01*
X8890529Y-13185854D02*
X8881005Y-13176330D01*
X8881005Y-13176330D02*
X8861958Y-13166806D01*
X9090529Y-13281092D02*
X8976244Y-13281092D01*
X9033386Y-13281092D02*
X9033386Y-13081092D01*
X9033386Y-13081092D02*
X9014339Y-13109663D01*
X9014339Y-13109663D02*
X8995291Y-13128711D01*
X8995291Y-13128711D02*
X8976244Y-13138235D01*
X9166720Y-13081092D02*
X9166720Y-13119187D01*
X9242910Y-13081092D02*
X9242910Y-13119187D01*
X9538148Y-13357282D02*
X9528625Y-13347759D01*
X9528625Y-13347759D02*
X9509577Y-13319187D01*
X9509577Y-13319187D02*
X9500053Y-13300140D01*
X9500053Y-13300140D02*
X9490529Y-13271568D01*
X9490529Y-13271568D02*
X9481006Y-13223949D01*
X9481006Y-13223949D02*
X9481006Y-13185854D01*
X9481006Y-13185854D02*
X9490529Y-13138235D01*
X9490529Y-13138235D02*
X9500053Y-13109663D01*
X9500053Y-13109663D02*
X9509577Y-13090616D01*
X9509577Y-13090616D02*
X9528625Y-13062044D01*
X9528625Y-13062044D02*
X9538148Y-13052521D01*
X9604815Y-13100140D02*
X9614339Y-13090616D01*
X9614339Y-13090616D02*
X9633386Y-13081092D01*
X9633386Y-13081092D02*
X9681006Y-13081092D01*
X9681006Y-13081092D02*
X9700053Y-13090616D01*
X9700053Y-13090616D02*
X9709577Y-13100140D01*
X9709577Y-13100140D02*
X9719101Y-13119187D01*
X9719101Y-13119187D02*
X9719101Y-13138235D01*
X9719101Y-13138235D02*
X9709577Y-13166806D01*
X9709577Y-13166806D02*
X9595291Y-13281092D01*
X9595291Y-13281092D02*
X9719101Y-13281092D01*
X9957196Y-13281092D02*
X9957196Y-13081092D01*
X10042910Y-13281092D02*
X10042910Y-13176330D01*
X10042910Y-13176330D02*
X10033387Y-13157282D01*
X10033387Y-13157282D02*
X10014339Y-13147759D01*
X10014339Y-13147759D02*
X9985767Y-13147759D01*
X9985767Y-13147759D02*
X9966720Y-13157282D01*
X9966720Y-13157282D02*
X9957196Y-13166806D01*
X10166720Y-13281092D02*
X10147672Y-13271568D01*
X10147672Y-13271568D02*
X10138148Y-13262044D01*
X10138148Y-13262044D02*
X10128625Y-13242997D01*
X10128625Y-13242997D02*
X10128625Y-13185854D01*
X10128625Y-13185854D02*
X10138148Y-13166806D01*
X10138148Y-13166806D02*
X10147672Y-13157282D01*
X10147672Y-13157282D02*
X10166720Y-13147759D01*
X10166720Y-13147759D02*
X10195291Y-13147759D01*
X10195291Y-13147759D02*
X10214339Y-13157282D01*
X10214339Y-13157282D02*
X10223863Y-13166806D01*
X10223863Y-13166806D02*
X10233387Y-13185854D01*
X10233387Y-13185854D02*
X10233387Y-13242997D01*
X10233387Y-13242997D02*
X10223863Y-13262044D01*
X10223863Y-13262044D02*
X10214339Y-13271568D01*
X10214339Y-13271568D02*
X10195291Y-13281092D01*
X10195291Y-13281092D02*
X10166720Y-13281092D01*
X10347672Y-13281092D02*
X10328625Y-13271568D01*
X10328625Y-13271568D02*
X10319101Y-13252521D01*
X10319101Y-13252521D02*
X10319101Y-13081092D01*
X10500053Y-13271568D02*
X10481006Y-13281092D01*
X10481006Y-13281092D02*
X10442910Y-13281092D01*
X10442910Y-13281092D02*
X10423863Y-13271568D01*
X10423863Y-13271568D02*
X10414339Y-13252521D01*
X10414339Y-13252521D02*
X10414339Y-13176330D01*
X10414339Y-13176330D02*
X10423863Y-13157282D01*
X10423863Y-13157282D02*
X10442910Y-13147759D01*
X10442910Y-13147759D02*
X10481006Y-13147759D01*
X10481006Y-13147759D02*
X10500053Y-13157282D01*
X10500053Y-13157282D02*
X10509577Y-13176330D01*
X10509577Y-13176330D02*
X10509577Y-13195378D01*
X10509577Y-13195378D02*
X10414339Y-13214425D01*
X10585768Y-13271568D02*
X10604815Y-13281092D01*
X10604815Y-13281092D02*
X10642910Y-13281092D01*
X10642910Y-13281092D02*
X10661958Y-13271568D01*
X10661958Y-13271568D02*
X10671482Y-13252521D01*
X10671482Y-13252521D02*
X10671482Y-13242997D01*
X10671482Y-13242997D02*
X10661958Y-13223949D01*
X10661958Y-13223949D02*
X10642910Y-13214425D01*
X10642910Y-13214425D02*
X10614339Y-13214425D01*
X10614339Y-13214425D02*
X10595291Y-13204902D01*
X10595291Y-13204902D02*
X10585768Y-13185854D01*
X10585768Y-13185854D02*
X10585768Y-13176330D01*
X10585768Y-13176330D02*
X10595291Y-13157282D01*
X10595291Y-13157282D02*
X10614339Y-13147759D01*
X10614339Y-13147759D02*
X10642910Y-13147759D01*
X10642910Y-13147759D02*
X10661958Y-13157282D01*
X10738149Y-13357282D02*
X10747672Y-13347759D01*
X10747672Y-13347759D02*
X10766720Y-13319187D01*
X10766720Y-13319187D02*
X10776244Y-13300140D01*
X10776244Y-13300140D02*
X10785768Y-13271568D01*
X10785768Y-13271568D02*
X10795291Y-13223949D01*
X10795291Y-13223949D02*
X10795291Y-13185854D01*
X10795291Y-13185854D02*
X10785768Y-13138235D01*
X10785768Y-13138235D02*
X10776244Y-13109663D01*
X10776244Y-13109663D02*
X10766720Y-13090616D01*
X10766720Y-13090616D02*
X10747672Y-13062044D01*
X10747672Y-13062044D02*
X10738149Y-13052521D01*
X11100053Y-13357282D02*
X11090529Y-13347759D01*
X11090529Y-13347759D02*
X11071482Y-13319187D01*
X11071482Y-13319187D02*
X11061958Y-13300140D01*
X11061958Y-13300140D02*
X11052434Y-13271568D01*
X11052434Y-13271568D02*
X11042910Y-13223949D01*
X11042910Y-13223949D02*
X11042910Y-13185854D01*
X11042910Y-13185854D02*
X11052434Y-13138235D01*
X11052434Y-13138235D02*
X11061958Y-13109663D01*
X11061958Y-13109663D02*
X11071482Y-13090616D01*
X11071482Y-13090616D02*
X11090529Y-13062044D01*
X11090529Y-13062044D02*
X11100053Y-13052521D01*
X11176244Y-13147759D02*
X11176244Y-13281092D01*
X11176244Y-13166806D02*
X11185767Y-13157282D01*
X11185767Y-13157282D02*
X11204815Y-13147759D01*
X11204815Y-13147759D02*
X11233387Y-13147759D01*
X11233387Y-13147759D02*
X11252434Y-13157282D01*
X11252434Y-13157282D02*
X11261958Y-13176330D01*
X11261958Y-13176330D02*
X11261958Y-13281092D01*
X11385767Y-13281092D02*
X11366720Y-13271568D01*
X11366720Y-13271568D02*
X11357196Y-13262044D01*
X11357196Y-13262044D02*
X11347672Y-13242997D01*
X11347672Y-13242997D02*
X11347672Y-13185854D01*
X11347672Y-13185854D02*
X11357196Y-13166806D01*
X11357196Y-13166806D02*
X11366720Y-13157282D01*
X11366720Y-13157282D02*
X11385767Y-13147759D01*
X11385767Y-13147759D02*
X11414339Y-13147759D01*
X11414339Y-13147759D02*
X11433387Y-13157282D01*
X11433387Y-13157282D02*
X11442910Y-13166806D01*
X11442910Y-13166806D02*
X11452434Y-13185854D01*
X11452434Y-13185854D02*
X11452434Y-13242997D01*
X11452434Y-13242997D02*
X11442910Y-13262044D01*
X11442910Y-13262044D02*
X11433387Y-13271568D01*
X11433387Y-13271568D02*
X11414339Y-13281092D01*
X11414339Y-13281092D02*
X11385767Y-13281092D01*
X11509577Y-13147759D02*
X11585767Y-13147759D01*
X11538148Y-13081092D02*
X11538148Y-13252521D01*
X11538148Y-13252521D02*
X11547672Y-13271568D01*
X11547672Y-13271568D02*
X11566720Y-13281092D01*
X11566720Y-13281092D02*
X11585767Y-13281092D01*
X11804815Y-13147759D02*
X11804815Y-13347759D01*
X11804815Y-13157282D02*
X11823863Y-13147759D01*
X11823863Y-13147759D02*
X11861958Y-13147759D01*
X11861958Y-13147759D02*
X11881006Y-13157282D01*
X11881006Y-13157282D02*
X11890529Y-13166806D01*
X11890529Y-13166806D02*
X11900053Y-13185854D01*
X11900053Y-13185854D02*
X11900053Y-13242997D01*
X11900053Y-13242997D02*
X11890529Y-13262044D01*
X11890529Y-13262044D02*
X11881006Y-13271568D01*
X11881006Y-13271568D02*
X11861958Y-13281092D01*
X11861958Y-13281092D02*
X11823863Y-13281092D01*
X11823863Y-13281092D02*
X11804815Y-13271568D01*
X12014339Y-13281092D02*
X11995291Y-13271568D01*
X11995291Y-13271568D02*
X11985768Y-13252521D01*
X11985768Y-13252521D02*
X11985768Y-13081092D01*
X12176244Y-13281092D02*
X12176244Y-13176330D01*
X12176244Y-13176330D02*
X12166720Y-13157282D01*
X12166720Y-13157282D02*
X12147672Y-13147759D01*
X12147672Y-13147759D02*
X12109577Y-13147759D01*
X12109577Y-13147759D02*
X12090529Y-13157282D01*
X12176244Y-13271568D02*
X12157196Y-13281092D01*
X12157196Y-13281092D02*
X12109577Y-13281092D01*
X12109577Y-13281092D02*
X12090529Y-13271568D01*
X12090529Y-13271568D02*
X12081006Y-13252521D01*
X12081006Y-13252521D02*
X12081006Y-13233473D01*
X12081006Y-13233473D02*
X12090529Y-13214425D01*
X12090529Y-13214425D02*
X12109577Y-13204902D01*
X12109577Y-13204902D02*
X12157196Y-13204902D01*
X12157196Y-13204902D02*
X12176244Y-13195378D01*
X12242910Y-13147759D02*
X12319101Y-13147759D01*
X12271482Y-13081092D02*
X12271482Y-13252521D01*
X12271482Y-13252521D02*
X12281006Y-13271568D01*
X12281006Y-13271568D02*
X12300053Y-13281092D01*
X12300053Y-13281092D02*
X12319101Y-13281092D01*
X12461958Y-13271568D02*
X12442910Y-13281092D01*
X12442910Y-13281092D02*
X12404815Y-13281092D01*
X12404815Y-13281092D02*
X12385768Y-13271568D01*
X12385768Y-13271568D02*
X12376244Y-13252521D01*
X12376244Y-13252521D02*
X12376244Y-13176330D01*
X12376244Y-13176330D02*
X12385768Y-13157282D01*
X12385768Y-13157282D02*
X12404815Y-13147759D01*
X12404815Y-13147759D02*
X12442910Y-13147759D01*
X12442910Y-13147759D02*
X12461958Y-13157282D01*
X12461958Y-13157282D02*
X12471482Y-13176330D01*
X12471482Y-13176330D02*
X12471482Y-13195378D01*
X12471482Y-13195378D02*
X12376244Y-13214425D01*
X12642910Y-13281092D02*
X12642910Y-13081092D01*
X12642910Y-13271568D02*
X12623863Y-13281092D01*
X12623863Y-13281092D02*
X12585768Y-13281092D01*
X12585768Y-13281092D02*
X12566720Y-13271568D01*
X12566720Y-13271568D02*
X12557196Y-13262044D01*
X12557196Y-13262044D02*
X12547672Y-13242997D01*
X12547672Y-13242997D02*
X12547672Y-13185854D01*
X12547672Y-13185854D02*
X12557196Y-13166806D01*
X12557196Y-13166806D02*
X12566720Y-13157282D01*
X12566720Y-13157282D02*
X12585768Y-13147759D01*
X12585768Y-13147759D02*
X12623863Y-13147759D01*
X12623863Y-13147759D02*
X12642910Y-13157282D01*
X12719101Y-13357282D02*
X12728625Y-13347759D01*
X12728625Y-13347759D02*
X12747672Y-13319187D01*
X12747672Y-13319187D02*
X12757196Y-13300140D01*
X12757196Y-13300140D02*
X12766720Y-13271568D01*
X12766720Y-13271568D02*
X12776244Y-13223949D01*
X12776244Y-13223949D02*
X12776244Y-13185854D01*
X12776244Y-13185854D02*
X12766720Y-13138235D01*
X12766720Y-13138235D02*
X12757196Y-13109663D01*
X12757196Y-13109663D02*
X12747672Y-13090616D01*
X12747672Y-13090616D02*
X12728625Y-13062044D01*
X12728625Y-13062044D02*
X12719101Y-13052521D01*
M02*
